<?xml version="1.0" encoding="UTF-8" standalone="no"?>
<!-- Generator: Adobe Illustrator 16.0.0, SVG Export Plug-In . SVG Version: 6.00 Build 0)  -->

<svg
   xmlns:dc="http://purl.org/dc/elements/1.1/"
   xmlns:cc="http://creativecommons.org/ns#"
   xmlns:rdf="http://www.w3.org/1999/02/22-rdf-syntax-ns#"
   xmlns:svg="http://www.w3.org/2000/svg"
   xmlns="http://www.w3.org/2000/svg"
   xmlns:sodipodi="http://sodipodi.sourceforge.net/DTD/sodipodi-0.dtd"
   xmlns:inkscape="http://www.inkscape.org/namespaces/inkscape"
   version="1.1"
   id="Capa_1"
   x="0px"
   y="0px"
   width="893px"
   height="300px"
   viewBox="0 0 893 300"
   enable-background="new 0 0 893 300"
   xml:space="preserve"
   inkscape:version="0.91 r13725"
   sodipodi:docname="3_NOU.svg"><metadata
     id="metadata271"><rdf:RDF><cc:Work
         rdf:about=""><dc:format>image/svg+xml</dc:format><dc:type
           rdf:resource="http://purl.org/dc/dcmitype/StillImage" /></cc:Work></rdf:RDF></metadata><defs
     id="defs269" /><sodipodi:namedview
     pagecolor="#ffffff"
     bordercolor="#666666"
     borderopacity="1"
     objecttolerance="10"
     gridtolerance="10"
     guidetolerance="10"
     inkscape:pageopacity="0"
     inkscape:pageshadow="2"
     inkscape:window-width="1400"
     inkscape:window-height="994"
     id="namedview267"
     showgrid="false"
     inkscape:zoom="5.2577705"
     inkscape:cx="519.03096"
     inkscape:cy="89.184637"
     inkscape:window-x="0"
     inkscape:window-y="0"
     inkscape:window-maximized="1"
     inkscape:current-layer="Capa_1" /><path
     fill="#EDEDED"
     d="M624.272,150c0,3.739-2.789,6.768-6.229,6.768h-16.871c-3.44,0-6.229-3.029-6.229-6.768l0,0  c0-3.737,2.789-6.767,6.229-6.767h16.871C621.483,143.232,624.272,146.262,624.272,150L624.272,150z"
     id="path3" /><path
     fill="#EDEDED"
     d="M429.371,149.471c0,3.738-2.789,6.768-6.229,6.768h-16.871c-3.44,0-6.229-3.029-6.229-6.768l0,0  c0-3.737,2.789-6.767,6.229-6.767h16.871C426.582,142.704,429.371,145.733,429.371,149.471L429.371,149.471z"
     id="path5" /><path
     fill="#EDEDED"
     d="M234.468,149.471c0,3.738-2.789,6.767-6.229,6.767h-16.871c-3.44,0-6.229-3.029-6.229-6.767l0,0  c0-3.737,2.789-6.767,6.229-6.767h16.871C231.679,142.704,234.468,145.734,234.468,149.471L234.468,149.471z"
     id="path7" /><path
     fill="#EDEDED"
     d="M39.86,149.471c0,3.737-2.789,6.767-6.229,6.767H16.76c-3.44,0-6.229-3.029-6.229-6.767l0,0  c0-3.737,2.789-6.767,6.229-6.767H33.63C37.071,142.704,39.86,145.733,39.86,149.471L39.86,149.471z"
     id="path9" /><text
     class="title"
     transform="matrix(1 0 0 1 40.2437 38.7671)"
     font-family="'Roboto-Bold'"
     font-size="30"
     id="text11">Evolución histórica de los brotes de ébola</text>
<g
     id="g3655"
     class="_2014-2015"><rect
       id="rect13"
       height="157.336"
       width="157.33701"
       y="48.597"
       x="717.25299"
       style="fill:#fdd292" /><rect
       id="rect15"
       height="98.893997"
       width="98.892998"
       y="76.266998"
       x="744.17902"
       style="fill:#f59c00" /></g><g
     id="g17"><line
       fill="none"
       stroke="#575756"
       stroke-width="1.8606"
       stroke-miterlimit="10"
       x1="24.901"
       y1="125.714"
       x2="804.51"
       y2="125.714"
       id="line19" /><line
       fill="none"
       stroke="#575756"
       stroke-width="1.8606"
       stroke-miterlimit="10"
       x1="24.901"
       y1="109.724"
       x2="24.901"
       y2="141.704"
       id="line21" /><line
       fill="none"
       stroke="#575756"
       stroke-width="1.8606"
       stroke-miterlimit="10"
       x1="63.882"
       y1="118.33"
       x2="63.882"
       y2="133.098"
       id="line23" /><line
       fill="none"
       stroke="#575756"
       stroke-width="1.8606"
       stroke-miterlimit="10"
       x1="44.391"
       y1="118.33"
       x2="44.391"
       y2="133.098"
       id="line25" /><line
       fill="none"
       stroke="#575756"
       stroke-width="1.8606"
       stroke-miterlimit="10"
       x1="102.862"
       y1="118.33"
       x2="102.862"
       y2="133.098"
       id="line27" /><line
       fill="none"
       stroke="#575756"
       stroke-width="1.8606"
       stroke-miterlimit="10"
       x1="83.372"
       y1="118.33"
       x2="83.372"
       y2="133.098"
       id="line29" /><line
       fill="none"
       stroke="#575756"
       stroke-width="1.8606"
       stroke-miterlimit="10"
       x1="122.353"
       y1="109.724"
       x2="122.353"
       y2="141.704"
       id="line31" /><line
       fill="none"
       stroke="#575756"
       stroke-width="1.8606"
       stroke-miterlimit="10"
       x1="161.333"
       y1="118.465"
       x2="161.333"
       y2="132.963"
       id="line33" /><line
       fill="none"
       stroke="#575756"
       stroke-width="1.8606"
       stroke-miterlimit="10"
       x1="141.842"
       y1="118.465"
       x2="141.842"
       y2="132.963"
       id="line35" /><line
       fill="none"
       stroke="#575756"
       stroke-width="1.8606"
       stroke-miterlimit="10"
       x1="200.313"
       y1="118.465"
       x2="200.313"
       y2="132.963"
       id="line37" /><line
       fill="none"
       stroke="#575756"
       stroke-width="1.8606"
       stroke-miterlimit="10"
       x1="180.823"
       y1="118.465"
       x2="180.823"
       y2="132.963"
       id="line39" /><line
       fill="none"
       stroke="#575756"
       stroke-width="1.8606"
       stroke-miterlimit="10"
       x1="219.803"
       y1="109.724"
       x2="219.803"
       y2="141.704"
       id="line41" /><line
       fill="none"
       stroke="#575756"
       stroke-width="1.8606"
       stroke-miterlimit="10"
       x1="258.784"
       y1="117.981"
       x2="258.784"
       y2="133.446"
       id="line43" /><line
       fill="none"
       stroke="#575756"
       stroke-width="1.8606"
       stroke-miterlimit="10"
       x1="239.294"
       y1="117.981"
       x2="239.294"
       y2="133.446"
       id="line45" /><line
       fill="none"
       stroke="#575756"
       stroke-width="1.8606"
       stroke-miterlimit="10"
       x1="297.765"
       y1="117.981"
       x2="297.765"
       y2="133.446"
       id="line47" /><line
       fill="none"
       stroke="#575756"
       stroke-width="1.8606"
       stroke-miterlimit="10"
       x1="278.275"
       y1="117.981"
       x2="278.275"
       y2="133.446"
       id="line49" /><line
       fill="none"
       stroke="#575756"
       stroke-width="1.8606"
       stroke-miterlimit="10"
       x1="317.254"
       y1="109.724"
       x2="317.254"
       y2="141.704"
       id="line51" /><line
       fill="none"
       stroke="#575756"
       stroke-width="1.8606"
       stroke-miterlimit="10"
       x1="356.235"
       y1="118.155"
       x2="356.235"
       y2="133.273"
       id="line53" /><line
       fill="none"
       stroke="#575756"
       stroke-width="1.8606"
       stroke-miterlimit="10"
       x1="336.745"
       y1="118.155"
       x2="336.745"
       y2="133.273"
       id="line55" /><line
       fill="none"
       stroke="#575756"
       stroke-width="1.8606"
       stroke-miterlimit="10"
       x1="395.216"
       y1="118.155"
       x2="395.216"
       y2="133.273"
       id="line57" /><line
       fill="none"
       stroke="#575756"
       stroke-width="1.8606"
       stroke-miterlimit="10"
       x1="375.726"
       y1="118.155"
       x2="375.726"
       y2="133.273"
       id="line59" /><line
       fill="none"
       stroke="#575756"
       stroke-width="1.8606"
       stroke-miterlimit="10"
       x1="414.706"
       y1="109.724"
       x2="414.706"
       y2="141.704"
       id="line61" /><line
       fill="none"
       stroke="#575756"
       stroke-width="1.8606"
       stroke-miterlimit="10"
       x1="453.686"
       y1="117.98"
       x2="453.686"
       y2="133.447"
       id="line63" /><line
       fill="none"
       stroke="#575756"
       stroke-width="1.8606"
       stroke-miterlimit="10"
       x1="434.196"
       y1="117.98"
       x2="434.196"
       y2="133.447"
       id="line65" /><line
       fill="none"
       stroke="#575756"
       stroke-width="1.8606"
       stroke-miterlimit="10"
       x1="492.667"
       y1="117.98"
       x2="492.667"
       y2="133.447"
       id="line67" /><line
       fill="none"
       stroke="#575756"
       stroke-width="1.8606"
       stroke-miterlimit="10"
       x1="473.177"
       y1="117.98"
       x2="473.177"
       y2="133.447"
       id="line69" /><line
       fill="none"
       stroke="#575756"
       stroke-width="1.8606"
       stroke-miterlimit="10"
       x1="512.157"
       y1="109.724"
       x2="512.157"
       y2="141.704"
       id="line71" /><line
       fill="none"
       stroke="#575756"
       stroke-width="1.8606"
       stroke-miterlimit="10"
       x1="570.627"
       y1="118.117"
       x2="570.627"
       y2="133.311"
       id="line73" /><line
       fill="none"
       stroke="#575756"
       stroke-width="1.8606"
       stroke-miterlimit="10"
       x1="551.136"
       y1="118.117"
       x2="551.136"
       y2="133.311"
       id="line75" /><line
       fill="none"
       stroke="#575756"
       stroke-width="1.8606"
       stroke-miterlimit="10"
       x1="609.608"
       y1="109.724"
       x2="609.608"
       y2="141.704"
       id="line77" /><line
       fill="none"
       stroke="#575756"
       stroke-width="1.8606"
       stroke-miterlimit="10"
       x1="590.117"
       y1="118.117"
       x2="590.117"
       y2="133.311"
       id="line79" /><line
       fill="none"
       stroke="#575756"
       stroke-width="1.8606"
       stroke-miterlimit="10"
       x1="531.647"
       y1="118.117"
       x2="531.647"
       y2="133.311"
       id="line81" /><line
       fill="none"
       stroke="#575756"
       stroke-width="1.8606"
       stroke-miterlimit="10"
       x1="668.079"
       y1="118.117"
       x2="668.079"
       y2="133.311"
       id="line83" /><line
       fill="none"
       stroke="#575756"
       stroke-width="1.8606"
       stroke-miterlimit="10"
       x1="648.588"
       y1="118.117"
       x2="648.588"
       y2="133.311"
       id="line85" /><line
       fill="none"
       stroke="#575756"
       stroke-width="1.8606"
       stroke-miterlimit="10"
       x1="707.059"
       y1="109.724"
       x2="707.059"
       y2="141.704"
       id="line87" /><line
       fill="none"
       stroke="#575756"
       stroke-width="1.8606"
       stroke-miterlimit="10"
       x1="687.569"
       y1="118.117"
       x2="687.569"
       y2="133.311"
       id="line89" /><line
       fill="none"
       stroke="#575756"
       stroke-width="1.8606"
       stroke-miterlimit="10"
       x1="629.099"
       y1="118.117"
       x2="629.099"
       y2="133.311"
       id="line91" /><line
       fill="none"
       stroke="#575756"
       stroke-width="1.8606"
       stroke-miterlimit="10"
       x1="765.53"
       y1="118.117"
       x2="765.53"
       y2="133.311"
       id="line93" /><line
       fill="none"
       stroke="#575756"
       stroke-width="1.8606"
       stroke-miterlimit="10"
       x1="746.039"
       y1="118.117"
       x2="746.039"
       y2="133.311"
       id="line95" /><line
       fill="none"
       stroke="#575756"
       stroke-width="1.8606"
       stroke-miterlimit="10"
       x1="804.51"
       y1="109.724"
       x2="804.51"
       y2="141.704"
       id="line97" /><line
       fill="none"
       stroke="#575756"
       stroke-width="1.8606"
       stroke-miterlimit="10"
       x1="785.02"
       y1="118.117"
       x2="785.02"
       y2="133.311"
       id="line99" /><line
       fill="none"
       stroke="#575756"
       stroke-width="1.8606"
       stroke-miterlimit="10"
       x1="726.549"
       y1="118.117"
       x2="726.549"
       y2="133.311"
       id="line101" /></g><g
     id="g3639"
     class="_2004"><rect
       id="rect103"
       height="3.832"
       width="3.832"
       y="123.798"
       x="588.20099"
       style="fill:#fdd292" /><rect
       id="rect105"
       height="2.4660001"
       width="2.4660001"
       y="124.481"
       x="588.883"
       style="fill:#f59c00" /></g><g
     id="g3659"
     class="_2014"><rect
       id="rect107"
       height="7.5549998"
       width="7.5549998"
       stroke-miterlimit="10"
       y="121.936"
       x="781.24298"
       style="fill:#fdd292;stroke:#ffffff;stroke-width:0.2791;stroke-miterlimit:10" /><rect
       id="rect109"
       height="6.513"
       width="6.5149999"
       y="122.458"
       x="781.763"
       style="fill:#f59c00" /></g><g
     id="g3647"
     class="_2007_uganda"><rect
       id="rect111"
       height="12.21"
       width="12.21"
       y="112.583"
       x="642.48297"
       style="fill:#fdd292" /><rect
       id="rect113"
       height="6.0799999"
       width="6.0799999"
       y="115.649"
       x="645.547"
       style="fill:#f59c00" /></g><g
     id="g3663"
     class="_2012_congo"><rect
       id="rect115"
       height="6"
       width="6"
       stroke-miterlimit="10"
       y="118.713"
       x="743.039"
       style="fill:#fdd292;stroke:#ffffff;stroke-width:0.30000001;stroke-miterlimit:10" /><rect
       id="rect117"
       height="3.6099999"
       width="3.6099999"
       y="119.909"
       x="744.23401"
       style="fill:#f59c00" /></g><g
     id="g3651"
     class="_2008"><rect
       id="rect119"
       height="5.2659998"
       width="5.2649999"
       y="123.081"
       x="665.44702"
       style="fill:#fdd292" /><rect
       id="rect121"
       height="3.4790001"
       width="3.4790001"
       y="123.974"
       x="666.34003"
       style="fill:#f59c00" /></g><g
     id="g3623"
     class="_2000"><rect
       id="rect123"
       height="19.184"
       width="19.183001"
       y="116.123"
       x="502.56601"
       style="fill:#fdd292" /><rect
       id="rect125"
       height="13.928"
       width="13.928"
       y="118.751"
       x="505.194"
       style="fill:#f59c00" /></g><g
     id="g3635"
     class="_2003"><rect
       id="rect127"
       height="5.5079999"
       width="5.5079999"
       y="122.959"
       x="567.87402"
       style="fill:#fdd292" /><rect
       id="rect129"
       height="5.0139999"
       width="5.0149999"
       y="123.207"
       x="568.12097"
       style="fill:#f59c00" /></g><g
     id="g3631"
     class="_2002"><rect
       id="rect131"
       height="11.127"
       width="11.127"
       y="120.15"
       x="545.57397"
       style="fill:#fdd292" /><rect
       id="rect133"
       height="10.521"
       width="10.522"
       y="120.453"
       x="545.87598"
       style="fill:#f59c00" /></g><g
     id="g3627"
     class="_2001"><rect
       id="rect135"
       height="7.4980001"
       width="7.4980001"
       y="121.965"
       x="527.89801"
       style="fill:#fdd292" /><rect
       id="rect137"
       height="6.7729998"
       width="6.7719998"
       y="122.328"
       x="528.26099"
       style="fill:#f59c00" /></g><g
     id="g3619"
     class="_1996"><rect
       id="rect139"
       height="9.1630001"
       width="9.1639996"
       y="121.133"
       x="429.61401"
       style="fill:#fdd292" /><rect
       id="rect141"
       height="7.5539999"
       width="7.553"
       y="121.938"
       x="430.41901"
       style="fill:#f59c00" /></g><g
     id="g3611"
     class="_1994"><rect
       id="rect143"
       height="6.7080002"
       width="6.7080002"
       y="122.361"
       x="391.862"
       style="fill:#fdd292" /><rect
       id="rect145"
       height="5.1820002"
       width="5.1820002"
       y="123.124"
       x="392.625"
       style="fill:#f59c00" /></g><g
     id="g3615"
     class="_1995"><rect
       id="rect147"
       height="16.514"
       width="16.514"
       y="117.457"
       x="406.44901"
       style="fill:#fdd292" /><rect
       id="rect149"
       height="14.83"
       width="14.829"
       y="118.299"
       x="407.29199"
       style="fill:#f59c00" /></g><g
     id="g3607"
     class="_1979"><rect
       id="rect151"
       height="5.4239998"
       width="5.4239998"
       y="123.003"
       x="100.15"
       style="fill:#fdd292" /><rect
       id="rect153"
       height="4.3639998"
       width="4.3639998"
       y="123.533"
       x="100.681"
       style="fill:#f59c00" /></g><g
     id="g3599"
     class="_1976_sudan"><rect class="selected"
       id="rect155"
       height="16.85"
       width="16.85"
       y="107.959"
       x="35.966999"
       style="fill:#fdd292;" /><rect
       id="rect157"
       height="12.29"
       width="12.29"
       y="110.239"
       x="38.248001"
       style="fill:#f59c00" /></g><text
     transform="matrix(1 0 0 1 12.5303 153.3096)"
     font-family="'Roboto-Light'"
     font-size="10"
     id="text159">1975</text>
<text
     transform="matrix(1 0 0 1 207.5303 153.3096)"
     font-family="'Roboto-Light'"
     font-size="10"
     id="text161">1985</text>
<text
     transform="matrix(1 0 0 1 402.5698 153.3096)"
     font-family="'Roboto-Light'"
     font-size="10"
     id="text163">1995</text>
<text
     transform="matrix(1 0 0 1 597.5298 153.3096)"
     font-family="'Roboto-Light'"
     font-size="10"
     id="text165">2005</text>
<path
     opacity="0.4"
     fill="#F59C00"
     d="M597.53,261.191c0,7.438-9.564,13.47-21.361,13.47H46.558  c-11.798,0-21.363-6.031-21.363-13.47v-25.817c0-7.438,9.564-13.47,21.363-13.47h529.61c11.797,0,21.361,6.031,21.361,13.47V261.191  z"
     id="path167" /><text
     transform="matrix(1 0 0 1 37.5664 244.6611)"
     id="text169"><tspan
       class="Lyear"
			 x="60"
			 text-anchor="end"
       y="0"
       font-family="'Roboto-Regular'"
       font-size="14"
       id="tspan171">Año: </tspan><tspan
			 class="year"
       x="66"
       y="0"
       font-family="'Roboto-Bold'"
       font-size="14"
       id="tspan173">1976</tspan><tspan
       class="Lcountry"
       x="60"
			 text-anchor="end"
       y="16.8"
       font-family="'Roboto-Regular'"
       font-size="14"
       id="tspan175">País: </tspan><tspan
			 class="country"
       x="66"
       y="16.8"
       font-family="'Roboto-Bold'"
       font-size="14"
       id="tspan177">Sudán</tspan><tspan
       x="76.61"
       y="16.8"
       font-family="'Roboto-Regular'"
       font-size="14"
       id="tspan179" /></text>
<text
     transform="matrix(1 0 0 1 358.8901 244.6611)"
     id="text181"><tspan
       class="Lspecies"
			 x="75"
			 text-anchor="end"
       y="0"
       font-family="'Roboto-Regular'"
       font-size="14"
       id="tspan183">Especies: </tspan><tspan
			 class="species"
       x="79.091"
       y="0"
       font-family="'Roboto-Bold'"
       font-size="14"
       id="tspan185">Sudán </tspan><tspan
       class="Lfatality_rate"
       x="75"
			 text-anchor="end"
       y="16.8"
       font-family="'Roboto-Regular'"
       font-size="14"
       id="tspan187">Mortalidad: </tspan><tspan
			 class="fatality_rate"
       x="79.091"
       y="16.8"
       font-family="'Roboto-Bold'"
       font-size="14"
       id="tspan189">53% </tspan></text>
<text
     transform="matrix(1 0 0 1 201.4883 244.6611)"
     id="text191"><tspan
       class="Lcases"
       x="50"
			 text-anchor="end"
       y="0"
       font-family="'Roboto-Regular'"
       font-size="14"
       id="tspan193">Casos: </tspan><tspan
			 class="cases"
       x="55"
       y="0"
       font-family="'Roboto-Bold'"
       font-size="14"
       id="tspan195">284 </tspan><tspan
       class="Ldeaths"
			 x="50"
			 text-anchor="end"
       y="16.8"
       font-family="'Roboto-Regular'"
       font-size="14"
       id="tspan197">Muertes: </tspan><tspan
			 class="deaths"
       x="55"
       y="16.8"
       font-family="'Roboto-Bold'"
       font-size="14"
       id="tspan199">151 </tspan></text>
<path
     opacity="0.3"
     fill="#878787"
     d="M819.175,149.999c0,3.738-2.789,6.768-6.229,6.768h-16.871c-3.44,0-6.229-3.029-6.229-6.768  l0,0c0-3.737,2.789-6.767,6.229-6.767h16.871C816.386,143.232,819.175,146.262,819.175,149.999L819.175,149.999z"
     id="path201" /><text
     transform="matrix(1 0 0 1 792.3755 153.3096)"
     font-family="'Roboto-Light'"
     font-size="10"
     id="text203">2015</text>
<g
     id="g205"><path
       fill="#010202"
       d="M300.124,399.996c-6.543,0-11.873,5.33-11.873,11.873s5.33,11.873,11.873,11.873s11.873-5.33,11.873-11.873   S306.667,399.996,300.124,399.996z M298.593,417.463l-1.688-1.688l3.904-3.906l-3.904-3.904l1.688-1.688l5.593,5.592   L298.593,417.463z"
       id="path207" /><path
       fill="#010202"
       d="M124.201,423.742c6.543,0,11.873-5.328,11.873-11.873c0-6.543-5.33-11.873-11.873-11.873   s-11.873,5.33-11.873,11.873C112.328,418.414,117.658,423.742,124.201,423.742z M125.731,406.275l1.688,1.689l-3.905,3.904   l3.905,3.906l-1.688,1.688l-5.593-5.594L125.731,406.275z"
       id="path209" /><circle
       fill="#F59C00"
       cx="141.259"
       cy="411.893"
       r="2.978"
       id="circle211" /><circle
       fill="#010202"
       cx="161.374"
       cy="411.869"
       r="2.978"
       id="circle213" /><circle
       fill="#010202"
       cx="151.316"
       cy="411.893"
       r="2.978"
       id="circle215" /><circle
       fill="#010202"
       cx="201.604"
       cy="411.893"
       r="2.978"
       id="circle217" /><circle
       fill="#010202"
       cx="221.72"
       cy="411.869"
       r="2.978"
       id="circle219" /><circle
       fill="#010202"
       cx="211.662"
       cy="411.893"
       r="2.978"
       id="circle221" /><circle
       fill="#010202"
       cx="171.432"
       cy="411.904"
       r="2.978"
       id="circle223" /><circle
       fill="#010202"
       cx="191.547"
       cy="411.881"
       r="2.978"
       id="circle225" /><circle
       fill="#010202"
       cx="181.489"
       cy="411.904"
       r="2.978"
       id="circle227" /><circle
       fill="#010202"
       cx="231.778"
       cy="411.881"
       r="2.978"
       id="circle229" /><circle
       fill="#010202"
       cx="251.893"
       cy="411.857"
       r="2.978"
       id="circle231" /><circle
       fill="#010202"
       cx="241.835"
       cy="411.881"
       r="2.978"
       id="circle233" /><circle
       fill="#010202"
       cx="261.951"
       cy="411.869"
       r="2.978"
       id="circle235" /><circle
       fill="#010202"
       cx="282.066"
       cy="411.846"
       r="2.978"
       id="circle237" /><circle
       fill="#010202"
       cx="272.008"
       cy="411.869"
       r="2.978"
       id="circle239" /></g><g
     id="g241"><g
       id="g243"
       class="arrow_left"><rect
         x="570.698"
         y="249.597"
         transform="matrix(0.7071,-0.7071,0.7071,0.7071,-8.7937,482.106)"
         width="13.717"
         height="4.1409998"
         id="rect245"
         style="fill:#3c3c3b" /><rect
         x="575.51599"
         y="238.026"
         transform="matrix(-0.707,0.7072,-0.7072,-0.707,1159.0927,9.5435)"
         width="4.1069999"
         height="13.717"
         id="rect247"
         style="fill:#3c3c3b" /></g><g
       id="g249"
       class="arrow_right"><rect
         x="540.73199"
         y="249.597"
         transform="matrix(-0.7071,-0.7071,0.7071,-0.7071,756.8398,816.8293)"
         width="13.717"
         height="4.1409998"
         id="rect251"
         style="fill:#3c3c3b" /><rect
         x="545.52502"
         y="238.026"
         transform="matrix(0.707,0.7072,-0.7072,0.707,333.6359,-315.5071)"
         width="4.1069999"
         height="13.717"
         id="rect253"
         style="fill:#3c3c3b" /></g></g><g
     id="g3603"
     class="_1976_congo"><rect
       id="rect255"
       height="17.83"
       width="17.83"
       y="126.636"
       x="35.476002"
       style="fill:#fdd292" /><rect
       id="rect257"
       height="16.73"
       width="16.73"
       y="127.186"
       x="36.027"
       style="fill:#f59c00" /></g><g
     id="g3643"
     class="_2007_congo"><rect
       id="rect259"
       height="16.25"
       width="16.25"
       y="126.65"
       x="640.46301"
       style="fill:#fdd292" /><rect
       id="rect261"
       height="13.67"
       width="13.67"
       y="127.941"
       x="641.75201"
       style="fill:#f59c00" /></g><g
     id="g3667"
     class="_2012_uganda"><rect
       id="rect263"
       height="4.9000001"
       width="4.8990002"
       stroke-miterlimit="10"
       y="126.638"
       x="743.58899"
       style="fill:#fdd292;stroke:#ffffff;stroke-width:0.245;stroke-miterlimit:10" /><rect
       id="rect265"
       height="4.1199999"
       width="4.1199999"
       y="127.029"
       x="743.979"
       style="fill:#f59c00" /></g></svg>
