<?xml version="1.0" encoding="utf-8"?>
<!-- Generator: Adobe Illustrator 16.0.0, SVG Export Plug-In . SVG Version: 6.00 Build 0)  -->
<!DOCTYPE svg PUBLIC "-//W3C//DTD SVG 1.1//EN" "http://www.w3.org/Graphics/SVG/1.1/DTD/svg11.dtd">
<svg version="1.1" id="Capa_1" xmlns="http://www.w3.org/2000/svg" xmlns:xlink="http://www.w3.org/1999/xlink" x="0px" y="0px"
	 width="893px" height="480px" viewBox="0 0 893 480" enable-background="new 0 0 893 480" xml:space="preserve">
<rect y="158.213" opacity="0.4" fill="#D7AE1A" width="893" height="47.457"/>
<rect x="23.277" y="-9.553" fill="none" width="438.723" height="43.341"/>
<text transform="matrix(1 0 0 1 24.9585 38.7671)" fill="#1D1D1B" font-family="Roboto" font-weight="700" font-size="30">The Most Advanced Ebola Vaccine Candidates</text>
<path d="M72.018,197.271"/>
<rect y="54.73" opacity="0.7" fill="#D7AE1A" width="893" height="56"/>
<text transform="matrix(1 0 0 1 49 88.4155)" font-family="Roboto" font-weight="700" font-size="14">Name</text>
<text transform="matrix(1 0 0 1 147.2065 88.4155)" font-family="Roboto" font-weight="700" font-size="14">Company</text>
<text transform="matrix(1 0 0 1 272.5171 88.7485)" font-family="Roboto" font-weight="700" font-size="14">Vehicle</text>
<text transform="matrix(1 0 0 1 384.6978 82.3496)">
	<tspan x="0" y="0" font-family="Roboto" font-weight="700" font-size="14">Phase I</tspan>
	<tspan x="0" y="16.8" font-family="Roboto" font-size="14">Safety</tspan>
</text>
<text transform="matrix(1 0 0 1 503.3164 71.6157)">
	<tspan x="0" y="0" font-family="Roboto" font-weight="700" font-size="14">Phase II</tspan>
	<tspan x="0" y="16.8" font-family="Roboto" font-size="14">Safety and</tspan>
	<tspan x="0" y="33.6" font-family="Roboto" font-size="14">Immunogenicity</tspan>
</text>
<text transform="matrix(1 0 0 1 668 71.6157)">
	<tspan x="0" y="0" font-family="Roboto" font-weight="700" font-size="14">Phase III</tspan>
	<tspan x="0" y="16.8" font-family="Roboto" font-size="14">Immunogenicity</tspan>
	<tspan x="0" y="33.6" font-family="Roboto" font-size="14">and Efficacy</tspan>
</text>
<text class="v1" transform="matrix(1 0 0 1 48.9995 137.4585)" font-family="Roboto" font-size="11">rVSV-ZEBOV</text>
<text class="v1" transform="matrix(1 0 0 1 147.2061 130.8589)"><tspan x="0" y="0" font-family="Roboto" font-size="11">NewLink Genetics </tspan><tspan x="0" y="13.2" font-family="Roboto" font-size="11">and Merck Vaccines</tspan></text>
<text class="v1" transform="matrix(1 0 0 1 272.5166 130.8589)"><tspan x="0" y="0" font-family="Roboto" font-size="11">Replicative</tspan><tspan x="0" y="13.2" font-family="Roboto" font-size="11">viral vector</tspan></text>
<text class="v1" transform="matrix(1 0 0 1 384.6968 130.8589)"><tspan x="0" y="0" font-family="Roboto" font-size="11">Completed</tspan><tspan x="0" y="13.2" font-family="Roboto" font-size="11">Safe</tspan></text>
<text class="v1" transform="matrix(1 0 0 1 503.3164 124.2588)"><tspan x="0" y="0" font-family="Roboto" font-size="11">Completed</tspan><tspan x="0" y="13.2" font-family="Roboto" font-size="11">Good immunogenicity</tspan><tspan x="0" y="26.4" font-family="Roboto" font-size="11">Short-term protection?</tspan></text>
<text class="v1" transform="matrix(1 0 0 1 668 124.2583)"><tspan x="0" y="0" font-family="Roboto" font-size="11">Preliminary results for efficacy</tspan><tspan x="0" y="13.2" font-family="Roboto" font-size="11">(A ring vaccination trial in Guinea protected </tspan><tspan x="0" y="26.4" font-family="Roboto" font-size="11">100% of vaccinated individuals)</tspan></text>
<text class="v2" transform="matrix(1 0 0 1 48.9995 185.4663)" font-family="Roboto" font-size="11">ChAd3-ZEBOV</text>
<text class="v2" transform="matrix(1 0 0 1 147.2056 178.2661)"><tspan x="0" y="0" font-family="Roboto" font-size="11">GlaxoSmithKline </tspan><tspan x="0" y="13.2" font-family="Roboto" font-size="11">and PHAC</tspan></text>
<text class="v2" transform="matrix(1 0 0 1 272.5161 178.2661)"><tspan x="0" y="0" font-family="Roboto" font-size="11">Non-replicative</tspan><tspan x="0" y="13.2" font-family="Roboto" font-size="11">viral vector</tspan></text>
<text class="v2" transform="matrix(1 0 0 1 384.6963 178.5562)"><tspan x="0" y="0" font-family="Roboto" font-size="11">Completed</tspan><tspan x="0" y="13.2" font-family="Roboto" font-size="11">Safe</tspan></text>
<text class="v2" transform="matrix(1 0 0 1 503.3164 171.9561)"><tspan x="0" y="0" font-family="Roboto" font-size="11">Completed</tspan><tspan x="0" y="13.2" font-family="Roboto" font-size="11">Good immunogenicity</tspan><tspan x="0" y="26.4" font-family="Roboto" font-size="11">Long-term protection?</tspan></text>
<text class="v2" transform="matrix(1 0 0 1 676 185.1563)" font-family="Roboto" font-size="11">Initiated</text>
<rect y="447.947" opacity="0.4" fill="#D7AE1A" width="893" height="4"/>
<rect y="347.309" opacity="0.4" fill="#D7AE1A" width="893" height="47.457"/>
<rect y="253.352" opacity="0.4" fill="#D7AE1A" width="893" height="47.457"/>
<text class="v3" transform="matrix(1 0 0 1 48.999 225.3481)"><tspan x="0" y="0" font-family="Roboto" font-size="11">Ad26-EBOV </tspan><tspan x="0" y="13.2" font-family="Roboto" font-size="11">+ MVA-EBOV</tspan></text>
<text class="v3" transform="matrix(1 0 0 1 147.2061 225.3481)"><tspan x="0" y="0" font-family="Roboto" font-size="11">Janssen and </tspan><tspan x="0" y="13.2" font-family="Roboto" font-size="11">Bavarian Nordic</tspan></text>
<text class="v3" transform="matrix(1 0 0 1 272.5176 225.6411)"><tspan x="0" y="0" font-family="Roboto" font-size="11">Non-replicative </tspan><tspan x="0" y="13.2" font-family="Roboto" font-size="11">viral vector</tspan></text>
<text class="v3" transform="matrix(1 0 0 1 384.6958 225.3481)"><tspan x="0" y="0" font-family="Roboto" font-size="11">Completed</tspan><tspan x="0" y="13.2" font-family="Roboto" font-size="11">Safe</tspan></text>
<text class="v3" transform="matrix(1 0 0 1 503.3164 218.1479)"><tspan x="0" y="0" font-family="Roboto" font-size="11">Initiated</tspan><tspan x="0" y="13.2" font-family="Roboto" font-size="11">Good immune response</tspan><tspan x="0" y="26.401" font-family="Roboto" font-size="11">Longer duration?</tspan></text>
<text class="v3" transform="matrix(1 0 0 1 676 232.2407)" font-family="Roboto" font-size="11">-</text>
<text class="v4" transform="matrix(1 0 0 1 48.9985 273.6953)"><tspan x="0" y="0" font-family="Roboto" font-size="11">VesiculoVax </tspan><tspan x="0" y="13.199" font-family="Roboto" font-size="11">((attenuated VSV)</tspan></text>
<text class="v4" transform="matrix(1 0 0 1 147.2051 273.6953)"><tspan x="0" y="0" font-family="Roboto" font-size="11">Profectus </tspan><tspan x="0" y="13.199" font-family="Roboto" font-size="11">Biosciences Inc</tspan></text>
<text class="v4" transform="matrix(1 0 0 1 272.5176 273.6953)"><tspan x="0" y="0" font-family="Roboto" font-size="11">Replicative</tspan><tspan x="0" y="13.199" font-family="Roboto" font-size="11">viral vector</tspan></text>
<text class="v4" transform="matrix(1 0 0 1 384.6973 280.2949)" font-family="Roboto" font-size="11">Initiated</text>
<text class="v4"transform="matrix(1 0 0 1 676 280.2949)" font-family="Roboto" font-size="11">-</text>
<text class="v4"transform="matrix(1 0 0 1 503.3164 280.2949)" font-family="Roboto" font-size="11">-</text>
<text class="v5" transform="matrix(1 0 0 1 48.998 313.4668)"><tspan x="0" y="0" font-family="Roboto" font-size="11">Recombinant </tspan><tspan x="0" y="13.199" font-family="Roboto" font-size="11">influenza- </tspan><tspan x="0" y="26.4" font-family="Roboto" font-size="11">EBOV</tspan></text>
<text class="v5" transform="matrix(1 0 0 1 147.2046 320.666)"><tspan x="0" y="0" font-family="Roboto" font-size="11">Russian MoH</tspan><tspan x="0" y="13.201" font-family="Roboto" font-size="11"></tspan></text>
<text class="v5" transform="matrix(1 0 0 1 272.5176 320.959)"><tspan x="0" y="0" font-family="Roboto" font-size="11">Replicative </tspan><tspan x="0" y="13.201" font-family="Roboto" font-size="11">viral vector</tspan></text>
<text class="v5" transform="matrix(1 0 0 1 384.6973 320.959)"><tspan x="0" y="0" font-family="Roboto" font-size="11">Initiated (according</tspan><tspan x="0" y="13.201" font-family="Roboto" font-size="11">to Russian sources)</tspan></text>
<text class="v5" transform="matrix(1 0 0 1 503.3164 327.5586)" font-family="Roboto" font-size="11">-</text>
<text class="v5" transform="matrix(1 0 0 1 676 327.5586)" font-family="Roboto" font-size="11">-</text>
<text class="v6" transform="matrix(1 0 0 1 48.9995 361.0508)"><tspan x="0" y="0" font-family="Roboto" font-size="11">Recombinant </tspan><tspan x="0" y="13.201" font-family="Roboto" font-size="11">protein </tspan><tspan x="0" y="26.4" font-family="Roboto" font-size="11">Ebola</tspan></text>
<text class="v6" transform="matrix(1 0 0 1 147.2061 374.252)" font-family="Roboto" font-size="11">Novavax</text>
<text class="v6" transform="matrix(1 0 0 1 272.5171 374.252)" font-family="Roboto" font-size="11">Nanoparticles</text>
<text class="v6" transform="matrix(1 0 0 1 384.6953 367.6523)"><tspan x="0" y="0" font-family="Roboto" font-size="11">Completed</tspan><tspan x="0" y="13.199" font-family="Roboto" font-size="11">safe</tspan></text>
<text class="v6" transform="matrix(1 0 0 1 503.3164 374.252)" font-family="Roboto" font-size="11">-</text>
<text class="v6"transform="matrix(1 0 0 1 676 374.252)" font-family="Roboto" font-size="11">-</text>
<rect x="51" y="404.947" fill="none" width="817" height="42"/>
<text transform="matrix(1 0 0 1 51 413.1973)">
	<tspan x="0" y="0" font-family="Roboto" font-size="11">Other Ebola vaccines in the preclinical phase of development (testing in animal models) have given encouraging results. Some examples are the rAd5 vector-vaccine </tspan>
	<tspan x="0" y="13.2" font-family="Roboto" font-size="11">for oral administration (VaxArt), the recombinant rabies vaccine (Jefferson University), viral-like particle based vaccines (integrated Bio-therapeutics), DNA </tspan>
	<tspan x="0" y="26.4" font-family="Roboto" font-size="11">vaccines (Inovia), etc.</tspan>
</text>
<text transform="matrix(1 0 0 1 24.9585 469.543)"><tspan x="0" y="0" font-family="Roboto" font-weight="300" font-style="italic" font-size="10">Source: Prepared on the basis of WHO data http://www.who.int/medicines/emp_ebola_q_as/en/</tspan></text>
</svg>
