<?xml version="1.0" encoding="utf-8"?>
<!-- Generator: Adobe Illustrator 16.0.0, SVG Export Plug-In . SVG Version: 6.00 Build 0)  -->
<!DOCTYPE svg PUBLIC "-//W3C//DTD SVG 1.1//EN" "http://www.w3.org/Graphics/SVG/1.1/DTD/svg11.dtd">
<svg version="1.1" id="Capa_1" xmlns="http://www.w3.org/2000/svg" xmlns:xlink="http://www.w3.org/1999/xlink" x="0px" y="0px"
	 width="893px" height="380px" viewBox="0 0 893 380" enable-background="new 0 0 893 380" xml:space="preserve">
<g>

		<image overflow="visible" width="116" height="190" xlink:href="08_2015_alone.png"  transform="matrix(0.9999 0 0 0.9999 342.4258 174.1797)">
	</image>
	<rect x="331.992" y="173.695" fill="#FFFFFF" width="63.991" height="56.382"/>
	<rect x="331.99" y="242.028" fill="#FFFFFF" width="63.991" height="56.381"/>
	<rect x="331.992" y="308.29" fill="#FFFFFF" width="63.991" height="56.381"/>
</g>
<g>

		<image overflow="visible" width="116" height="190" xlink:href="08_2015_alone.png"  transform="matrix(0.9999 0 0 0.9999 16.8687 174.6914)">
	</image>
	<rect x="68.863" y="173.692" fill="#FFFFFF" width="63.991" height="56.381"/>
	<rect x="68.861" y="243.024" fill="#FFFFFF" width="63.991" height="56.382"/>
	<rect x="68.863" y="308.286" fill="#FFFFFF" width="63.991" height="56.382"/>
</g>
<rect class="cubiertos" x="16.869" y="71.759" fill="#F59C00" width="595.13" height="91.15"/>
<rect class="pendientes" x="611.999" y="71.759" opacity="0.4" fill="#F59C00" width="270.861" height="91.15"/>
<text transform="matrix(1 0 0 1 16.8687 35)">
	<tspan text-anchor="end" class="title" x="580" y="0" font-family="Roboto" font-weight="700" font-size="30">Recursos necesarios de acuerdo a la ONU: </tspan>
	<tspan class="title2" x="575.656" y="0" fill="#F59C00" font-family="Roboto" font-weight="700" font-size="30">2.270</tspan>
</text>
<rect y="549.899" fill="#00B0E9" width="590.641" height="421.948"/>

<rect x="1063.612" y="426.258" fill="#BA8046" width="257.248" height="54.666"/>
<rect x="1063.612" y="494.039" fill="#BA8046" width="257.248" height="54.666"/>
<rect x="1063.612" y="561.092" fill="#BA8046" width="257.248" height="54.666"/>
<rect x="1063.612" y="630.372" fill="#BA8046" width="257.248" height="54.666"/>
<rect x="1063.612" y="699.206" fill="#BA8046" width="257.248" height="54.666"/>
<rect x="1063.612" y="769.175" fill="#BA8046" width="257.248" height="54.666"/>
<rect x="54.869" y="523.142" fill="#F59C00" width="859.263" height="38.283"/>
<text class="title3" transform="matrix(1 0 0 1 677.0659 35)" fill="#F59C00" font-family="Roboto" font-weight="700" font-size="14">millones de dólares</text>
<text transform="matrix(1 0 0 1 564.3442 62.1411)" font-family="Roboto" font-size="17">68%</text>
<rect x="-403.455" y="771.572" fill="#36A9E1" width="268.813" height="421.948"/>
<path fill="#BA8046" stroke="#BA8046" stroke-width="7" stroke-miterlimit="10" d="M-217.417,601.617
	c31.556-31.681,63.101-63.426,94.771-94.982"/>
<path fill="#BA8046" stroke="#BA8046" stroke-width="7" stroke-miterlimit="10" d="M-225.739,609.971
	c2.774-2.784,5.548-5.568,8.322-8.354"/>
<path fill="#BA8046" stroke="#BA8046" stroke-width="7" stroke-miterlimit="10" d="M-240.385,624.657
	c4.883-4.893,9.765-9.788,14.646-14.687"/>
<path fill="#BA8046" stroke="#BA8046" stroke-width="7" stroke-miterlimit="10" d="M-272.722,656.985
	c10.788-10.755,21.565-21.534,32.337-32.328"/>
<path fill="#BA8046" stroke="#BA8046" stroke-width="7" stroke-miterlimit="10" d="M-435.531,819.521
	c19.391-20.617,40.391-40.617,60.221-60.222"/>
<line fill="#BA8046" stroke="#BA8046" stroke-width="7" stroke-miterlimit="10" x1="-435.531" y1="847.77" x2="-122.646" y2="534.883"/>
<line fill="#BA8046" stroke="#BA8046" stroke-width="7" stroke-miterlimit="10" x1="-435.531" y1="876.018" x2="-122.646" y2="563.132"/>
<line fill="#BA8046" stroke="#BA8046" stroke-width="7" stroke-miterlimit="10" x1="-435.531" y1="904.268" x2="-122.646" y2="591.381"/>
<line fill="#BA8046" stroke="#BA8046" stroke-width="7" stroke-miterlimit="10" x1="-435.531" y1="932.517" x2="-122.644" y2="619.629"/>
<line fill="#BA8046" stroke="#BA8046" stroke-width="7" stroke-miterlimit="10" x1="-435.531" y1="960.767" x2="-122.645" y2="647.88"/>
<line fill="#BA8046" stroke="#BA8046" stroke-width="7" stroke-miterlimit="10" x1="-435.531" y1="989.015" x2="-122.646" y2="676.129"/>
<line fill="#BA8046" stroke="#BA8046" stroke-width="7" stroke-miterlimit="10" x1="-435.531" y1="1017.263" x2="-122.646" y2="704.376"/>
<line fill="#BA8046" stroke="#BA8046" stroke-width="7" stroke-miterlimit="10" x1="-435.531" y1="1045.511" x2="-122.646" y2="732.624"/>
<line fill="#BA8046" stroke="#BA8046" stroke-width="7" stroke-miterlimit="10" x1="-435.531" y1="1073.759" x2="-122.646" y2="760.873"/>
<line fill="#BA8046" stroke="#BA8046" stroke-width="7" stroke-miterlimit="10" x1="-435.531" y1="1102.009" x2="-122.645" y2="789.121"/>
<line fill="#BA8046" stroke="#BA8046" stroke-width="7" stroke-miterlimit="10" x1="-435.531" y1="1130.257" x2="-122.645" y2="817.369"/>
<line fill="#BA8046" stroke="#BA8046" stroke-width="7" stroke-miterlimit="10" x1="-435.531" y1="1158.507" x2="-122.645" y2="845.621"/>
<line fill="#BA8046" stroke="#BA8046" stroke-width="7" stroke-miterlimit="10" x1="-435.531" y1="1186.755" x2="-122.645" y2="873.867"/>
<line fill="#BA8046" stroke="#BA8046" stroke-width="7" stroke-miterlimit="10" x1="-435.531" y1="1215.003" x2="-122.645" y2="902.117"/>
<line fill="#BA8046" stroke="#BA8046" stroke-width="7" stroke-miterlimit="10" x1="-435.531" y1="1243.251" x2="-122.646" y2="930.364"/>
<line fill="#BA8046" stroke="#BA8046" stroke-width="7" stroke-miterlimit="10" x1="-435.531" y1="1271.499" x2="-122.645" y2="958.612"/>
<line fill="#BA8046" stroke="#BA8046" stroke-width="7" stroke-miterlimit="10" x1="-435.531" y1="1299.747" x2="-122.646" y2="986.862"/>
<line fill="#BA8046" stroke="#BA8046" stroke-width="7" stroke-miterlimit="10" x1="-435.531" y1="1327.997" x2="-122.645" y2="1015.11"/>
<line fill="#BA8046" stroke="#BA8046" stroke-width="7" stroke-miterlimit="10" x1="-435.531" y1="1356.245" x2="-122.643" y2="1043.358"/>
<line fill="#BA8046" stroke="#BA8046" stroke-width="7" stroke-miterlimit="10" x1="-435.531" y1="1384.495" x2="-122.645" y2="1071.61"/>
<line fill="#BA8046" stroke="#BA8046" stroke-width="7" stroke-miterlimit="10" x1="-435.531" y1="1412.743" x2="-122.645" y2="1099.858"/>
<line fill="#BA8046" stroke="#BA8046" stroke-width="7" stroke-miterlimit="10" x1="-435.531" y1="1440.991" x2="-122.645" y2="1128.104"/>
<line fill="#BA8046" stroke="#BA8046" stroke-width="7" stroke-miterlimit="10" x1="-435.531" y1="1469.241" x2="-122.645" y2="1156.353"/>
<line fill="#BA8046" stroke="#BA8046" stroke-width="7" stroke-miterlimit="10" x1="-435.531" y1="1497.489" x2="-122.645" y2="1184.603"/>
<rect x="54.869" y="568.425" fill="#F59C00" width="859.263" height="38.283"/>
<rect x="54.869" y="615.425" fill="#F59C00" width="859.263" height="38.283"/>
<text transform="matrix(1 0 0 1 629.1704 99.1406)">
	<tspan class="label_pendientes" x="0" y="0" fill="#FFFFFF" font-family="Roboto" font-weight="700" font-size="19">Pendientes:</tspan>
	<tspan x="116.787" y="0" font-family="Roboto" font-weight="700" font-size="19"> </tspan>
	<tspan class="value_pendientes"  x="0" y="22.8" fill="#575756" font-family="Roboto" font-weight="700" font-size="19">710.000.000 </tspan>
</text>
<path fill="#010202" d="M611.999,45.124c-6.266,0-11.346,5.08-11.346,11.345c0,6.267,11.346,22.69,11.346,22.69
	s11.345-16.424,11.345-22.69C623.343,50.203,618.263,45.124,611.999,45.124z M611.999,61.006c-2.506,0-4.539-2.032-4.539-4.538
	c0-2.507,2.032-4.538,4.539-4.538c2.506,0,4.539,2.031,4.539,4.538C616.538,58.974,614.504,61.006,611.999,61.006z"/>
<text transform="matrix(1 0 0 1 28.1709 99.1406)">
	<tspan class="label_cubiertos" x="0" y="0" fill="#FFFFFF" font-family="Roboto" font-weight="700" font-size="19">Cubiertos:</tspan>
	<tspan x="193.383" y="0" font-family="Roboto" font-weight="700" font-size="19"> </tspan>
	<tspan class="value_cubiertos" x="0" y="22.8" fill="#575756" font-family="Roboto" font-weight="700" font-size="19">1.560.000.000 </tspan>
</text>
<rect class="r_label1" x="67.861" y="174.762" fill="#EDEDED" width="324.998" height="54.813"/>
<text class="label1" transform="matrix(1 0 0 1 74.8618 208.1504)" fill="#575756" font-family="Roboto" font-size="18">Servicios comunes</text>
<rect class="r_label2" x="67.861" y="242.684" fill="#EDEDED" width="324.998" height="54.813"/>
<text transform="matrix(1 0 0 1 74.8638 268.6807)"><tspan class="label2" x="0" y="0" fill="#575756" font-family="Roboto" font-size="18">Frenar la enfermedad</tspan><tspan class="label2_2" x="0" y="16.8" fill="#575756" font-family="Roboto" font-size="14">-Seguimiento enfermos y entierros seguros</tspan></text>
<rect class="r_label3" x="67.861" y="309.934" fill="#EDEDED" width="324.998" height="54.813"/>
<text transform="matrix(1 0 0 1 74.8638 334.1504)"><tspan class="label3" x="0" y="0" fill="#575756" font-family="Roboto" font-size="18">Atender a las victimas</tspan><tspan class="label3_2" x="0" y="16.801" fill="#575756" font-family="Roboto" font-size="14">-Atención a enfermos y profesionales</tspan></text>
<g>
	<line fill="#F1D597" x1="611.999" y1="79.159" x2="611.999" y2="376.909"/>
	<g>
		<g>
			<g>
				<g>
					<rect x="611.086" y="79.159" fill="#F1D597" width="1.776" height="4.76"/>
					<rect x="611.086" y="86.248" fill="#F1D597" width="1.776" height="4.76"/>
					<rect x="611.086" y="93.336" fill="#F1D597" width="1.776" height="4.76"/>
					<rect x="611.086" y="100.427" fill="#F1D597" width="1.776" height="4.759"/>
					<rect x="611.086" y="107.515" fill="#F1D597" width="1.776" height="4.76"/>
					<rect x="611.086" y="114.606" fill="#F1D597" width="1.776" height="4.76"/>
					<rect x="611.086" y="121.694" fill="#F1D597" width="1.776" height="4.759"/>
				</g>
			</g>
			<g>
				<g>
					<rect x="611.086" y="128.784" fill="#F1D597" width="1.776" height="4.76"/>
					<rect x="611.086" y="135.873" fill="#F1D597" width="1.776" height="4.76"/>
					<rect x="611.086" y="142.961" fill="#F1D597" width="1.776" height="4.76"/>
					<rect x="611.086" y="150.052" fill="#F1D597" width="1.776" height="4.759"/>
					<rect x="611.086" y="157.141" fill="#F1D597" width="1.776" height="4.76"/>
					<rect x="611.086" y="164.231" fill="#F1D597" width="1.776" height="4.76"/>
					<rect x="611.086" y="171.319" fill="#F1D597" width="1.776" height="4.759"/>
				</g>
			</g>
			<g>
				<g>
					<rect x="611.086" y="178.409" fill="#F1D597" width="1.776" height="4.76"/>
					<rect x="611.086" y="185.498" fill="#F1D597" width="1.776" height="4.76"/>
					<rect x="611.086" y="192.587" fill="#F1D597" width="1.776" height="4.76"/>
					<rect x="611.086" y="199.678" fill="#F1D597" width="1.776" height="4.759"/>
					<rect x="611.086" y="206.766" fill="#F1D597" width="1.776" height="4.76"/>
					<rect x="611.086" y="213.856" fill="#F1D597" width="1.776" height="4.76"/>
					<rect x="611.086" y="220.944" fill="#F1D597" width="1.776" height="4.759"/>
				</g>
			</g>
			<g>
				<g>
					<rect x="611.086" y="228.034" fill="#F1D597" width="1.776" height="4.76"/>
					<rect x="611.086" y="235.123" fill="#F1D597" width="1.776" height="4.76"/>
					<rect x="611.086" y="242.212" fill="#F1D597" width="1.776" height="4.76"/>
					<rect x="611.086" y="249.303" fill="#F1D597" width="1.776" height="4.759"/>
					<rect x="611.086" y="256.391" fill="#F1D597" width="1.776" height="4.76"/>
					<rect x="611.086" y="263.481" fill="#F1D597" width="1.776" height="4.76"/>
					<rect x="611.086" y="270.569" fill="#F1D597" width="1.776" height="4.759"/>
				</g>
			</g>
			<g>
				<g>
					<rect x="611.086" y="277.659" fill="#F1D597" width="1.776" height="4.76"/>
					<rect x="611.086" y="284.748" fill="#F1D597" width="1.776" height="4.761"/>
					<rect x="611.086" y="291.837" fill="#F1D597" width="1.776" height="4.76"/>
					<rect x="611.086" y="298.928" fill="#F1D597" width="1.776" height="4.759"/>
					<rect x="611.086" y="306.016" fill="#F1D597" width="1.776" height="4.76"/>
					<rect x="611.086" y="313.106" fill="#F1D597" width="1.776" height="4.76"/>
					<rect x="611.086" y="320.194" fill="#F1D597" width="1.776" height="4.759"/>
				</g>
			</g>
			<g>
				<g>
					<rect x="611.086" y="327.284" fill="#F1D597" width="1.776" height="4.76"/>
					<rect x="611.086" y="334.373" fill="#F1D597" width="1.776" height="4.761"/>
					<rect x="611.086" y="341.462" fill="#F1D597" width="1.776" height="4.76"/>
					<rect x="611.086" y="348.553" fill="#F1D597" width="1.776" height="4.759"/>
					<rect x="611.086" y="355.641" fill="#F1D597" width="1.776" height="4.761"/>
					<rect x="611.086" y="362.731" fill="#F1D597" width="1.776" height="4.76"/>
					<rect x="611.086" y="369.819" fill="#F1D597" width="1.776" height="4.76"/>
				</g>
			</g>
		</g>
	</g>
</g>
<rect class="r_label4" x="457.426" y="174.195" fill="#EDEDED" width="425.434" height="54.812"/>
<text transform="matrix(1 0 0 1 466.9839 196.6543)"><tspan class="label4" x="0" y="0" fill="#575756" font-family="Roboto" font-size="18">Sostener los sistemas de salud</tspan><tspan class="label4_2" x="0" y="16.799" fill="#575756" font-family="Roboto" font-size="14" letter-spacing="-1">-Seguridad alimentaria, servicios básicos y recuperación económica</tspan></text>
<rect class="r_label5" x="457.426" y="243.187" fill="#EDEDED" width="425.434" height="54.813"/>
<text transform="matrix(1 0 0 1 466.9839 268.0059)"><tspan class="label5" x="0" y="0" fill="#575756" font-family="Roboto" font-size="18">Ofrecer estabilidad a los países afectados</tspan><tspan class="label5_2" x="0" y="16.799" fill="#575756" font-family="Roboto" font-size="14">-Materiales de transporte y movilización socials</tspan></text>
<rect class="r_label6" x="457.426" y="308.323" fill="#EDEDED" width="425.434" height="55.848"/>
<text transform="matrix(1 0 0 1 466.9839 331.6543)"><tspan class="label6" x="0" y="0" fill="#575756" font-family="Roboto" font-size="18">Prevenir nuevos contagios</tspan><tspan class="label6_2" x="0" y="16.799" fill="#575756" font-family="Roboto" font-size="14">-Prevención y gestión del riesgo de contagio</tspan></text>
<text transform="matrix(1 0 0 1 20 375)" font-size="10" font-style="italic" font-weight="300" font-family="Roboto" fill="#3C3C3B" class="source">Fuente: Financial Tracking Service de OCHA</text>
</svg>
