<?xml version="1.0" encoding="UTF-8"?>
<!-- Generator: Adobe Illustrator 16.0.0, SVG Export Plug-In . SVG Version: 6.00 Build 0)  -->
<!DOCTYPE svg PUBLIC "-//W3C//DTD SVG 1.1//EN" "http://www.w3.org/Graphics/SVG/1.1/DTD/svg11.dtd">
<svg version="1.1" id="Capa_1" xmlns="http://www.w3.org/2000/svg" xmlns:xlink="http://www.w3.org/1999/xlink" x="0px" y="0px" width="893px" height="400px" viewBox="0 0 893 400" enable-background="new 0 0 893 400" xml:space="preserve">
<text class="title" transform="matrix(1 0 0 1 48.1655 38.6797)" font-family="Lora" font-size="30">Una enfermedad letal pero poco contagiosa</text>
<text transform="matrix(1 0 0 1 512.4976 113.2954)">
	<tspan class="labelV label" x="0" y="0" font-family="Lora" font-size="18">VIRUS:</tspan>
	<tspan class="valueV" x="0" y="21.6" font-family="Lora" font-size="18">Ébola (brote 2014)</tspan>
	<tspan class="labelL label" x="0" y="51.6" font-family="Lora" font-size="18">Letalidad</tspan>
	<tspan class="valueL" x="0" y="73.2" fill="#F59C00" font-family="Lora" font-size="18">70%</tspan>
	<tspan class="labelN1 label" x="0" y="103.2" font-family="Lora" font-size="18">número promedio de personas</tspan>
	<tspan class="labelN2 label" x="0" y="124.8" font-family="Lora" font-size="18">que un enfermo puede infectar</tspan>
	<tspan class="valueN" x="0" y="146.4" fill="#00B0E9" font-family="Lora" font-size="18">1,5-2,5</tspan>
	<tspan class="labelT label" x="0" y="176.4" font-family="Lora" font-size="18">Transmisión</tspan>
	<tspan class="valueT" x="0" y="198" font-family="Lora" font-size="18">Contacto con fluidos corporales</tspan>
</text>
<g>
	<g>
		<g>
			<text transform="matrix(0.75 0 0 1 62.8496 377.2095)" fill="#575756" font-family="Lora" font-size="12">0%</text>
			<text transform="matrix(0.75 0 0 1 143.6411 377.2095)" fill="#575756" font-family="Lora" font-size="12">20%</text>
			<text transform="matrix(0.75 0 0 1 226.7417 377.2095)" fill="#575756" font-family="Lora" font-size="12">40%</text>
			<text transform="matrix(0.75 0 0 1 309.8413 377.2095)" fill="#575756" font-family="Lora" font-size="12">60%</text>
			<text transform="matrix(0.75 0 0 1 392.9414 377.2095)" fill="#575756" font-family="Lora" font-size="12">80%</text>
			<text transform="matrix(0.75 0 0 1 473.7329 377.2095)" fill="#575756" font-family="Lora" font-size="12">100%</text>
		</g>

			<line fill="#F59C00" stroke="#000000" stroke-width="0.866" stroke-miterlimit="10" x1="68.722" y1="361.045" x2="484.221" y2="361.045"/>
		<g>
			<g>

					<line fill="#F59C00" stroke="#000000" stroke-width="0.866" stroke-miterlimit="10" x1="68.722" y1="361.045" x2="68.722" y2="353.545"/>

					<line fill="#F59C00" stroke="#000000" stroke-width="0.866" stroke-miterlimit="10" x1="151.822" y1="361.045" x2="151.822" y2="353.545"/>

					<line fill="#F59C00" stroke="#000000" stroke-width="0.866" stroke-miterlimit="10" x1="234.922" y1="361.045" x2="234.922" y2="353.545"/>

					<line fill="#F59C00" stroke="#000000" stroke-width="0.866" stroke-miterlimit="10" x1="318.022" y1="361.045" x2="318.022" y2="353.545"/>

					<line fill="#F59C00" stroke="#000000" stroke-width="0.866" stroke-miterlimit="10" x1="401.122" y1="361.045" x2="401.122" y2="353.545"/>

					<line fill="#F59C00" stroke="#000000" stroke-width="0.866" stroke-miterlimit="10" x1="484.221" y1="361.045" x2="484.221" y2="353.545"/>
			</g>
			<g>
			</g>
		</g>
	</g>
	<g>

			<line fill="#F59C00" stroke="#000000" stroke-width="0.866" stroke-miterlimit="10" x1="68.722" y1="361.045" x2="68.722" y2="61.045"/>
		<g>
			<g>

					<line fill="#F59C00" stroke="#000000" stroke-width="0.866" stroke-miterlimit="10" x1="68.722" y1="346.045" x2="79.109" y2="346.045"/>

					<line fill="#F59C00" stroke="#000000" stroke-width="0.866" stroke-miterlimit="10" x1="68.722" y1="316.045" x2="79.109" y2="316.045"/>

					<line fill="#F59C00" stroke="#000000" stroke-width="0.866" stroke-miterlimit="10" x1="68.722" y1="286.045" x2="79.109" y2="286.045"/>

					<line fill="#F59C00" stroke="#000000" stroke-width="0.866" stroke-miterlimit="10" x1="68.722" y1="256.045" x2="79.109" y2="256.045"/>

					<line fill="#F59C00" stroke="#000000" stroke-width="0.866" stroke-miterlimit="10" x1="68.722" y1="226.045" x2="79.109" y2="226.045"/>

					<line fill="#F59C00" stroke="#000000" stroke-width="0.866" stroke-miterlimit="10" x1="68.722" y1="196.045" x2="79.109" y2="196.045"/>

					<line fill="#F59C00" stroke="#000000" stroke-width="0.866" stroke-miterlimit="10" x1="68.722" y1="166.045" x2="79.109" y2="166.045"/>

					<line fill="#F59C00" stroke="#000000" stroke-width="0.866" stroke-miterlimit="10" x1="68.722" y1="136.045" x2="79.109" y2="136.045"/>

					<line fill="#F59C00" stroke="#000000" stroke-width="0.866" stroke-miterlimit="10" x1="68.722" y1="106.045" x2="79.109" y2="106.045"/>

					<line fill="#F59C00" stroke="#000000" stroke-width="0.866" stroke-miterlimit="10" x1="68.722" y1="76.045" x2="79.109" y2="76.045"/>
			</g>
			<g>
			</g>
		</g>
	</g>
	<g>
		<g>
			<rect x="526.834" y="65.789" fill="none" width="51.938" height="30"/>
			<g>

				<rect class="ebola" x="68.722" y="65.245" fill="#F59C00" width="290.85" height="21.6"/>
				<rect class="hiv" x="68.722" y="95.245" fill="#F59C00" width="353.175" height="21.6"/>
				<rect class="viruela" x="68.722" y="125.245" fill="#F59C00" width="124.65" height="21.6"/>
				<rect class="mers" x="68.722" y="155.245" fill="#F59C00" width="145.425" height="21.6"/>
				<rect class="sars" x="68.722" y="185.245" fill="#F59C00" width="45.705" height="21.599"/>
				<rect class="influenza" x="68.722" y="215.245" fill="#F59C00" width="10.387" height="21.6"/>
				<rect class="polio" x="68.722" y="245.245" fill="#F59C00" width="20.775" height="21.6"/>

					<rect class="inluenza_e" x="68.722" y="275.245" fill="#F59C00" stroke="#000000" stroke-width="0.433" stroke-miterlimit="10" width="0.021" height="21.6"/>
				<rect class="sarampion" x="68.722" y="305.245" fill="#F59C00" width="0.623" height="21.6"/>

					<rect class="varicela" x="68.722" y="335.245" fill="#F59C00" stroke="#000000" stroke-width="0.433" stroke-miterlimit="10" width="0.004" height="21.6"/>
			</g>
		</g>
	</g>
	<g>
		<g>
		</g>
	</g>
	<g>
		<text class="varicela" transform="matrix(0.75 0 0 1 28.2837 350.7837)"><tspan x="0" y="0" font-family="Lora" font-size="14">Varicela</tspan></text>
		<text class="sarampion" transform="matrix(0.75 0 0 1 14.7393 320.7837)"><tspan x="0" y="0" font-family="Lora" font-size="14">Sarampión</tspan></text>
		<text class="influenza_e" transform="matrix(0.75 0 0 1 21.8687 281.7837)"><tspan class="influenza_e1" x="0" y="0" font-family="Lora" font-size="14">Influenza</tspan><tspan class="influenza_e2" x="-5.18" y="14" font-family="Lora" font-size="14">estacional</tspan></text>
		<text class="polio" transform="matrix(0.75 0 0 1 40.4429 260.7837)"><tspan x="0" y="0" font-family="Lora" font-size="14">Polio</tspan></text>
		<text class="influenza" transform="matrix(0.75 0 0 1 21.8687 230.7837)"><tspan x="0" y="0" font-family="Lora" font-size="14">Influenza</tspan></text>
		<text class="sars" transform="matrix(0.75 0 0 1 39.8022 200.7837)" font-family="Lora" font-size="14"><tspan x="0" y="0" font-family="Lora" font-size="14">SARS</tspan></text>
		<text class="mers" transform="matrix(0.75 0 0 1 37.7969 170.7832)" font-family="Lora" font-size="14"><tspan x="0" y="0" font-family="Lora" font-size="14">MERS</tspan></text>
		<text class="viruela" transform="matrix(0.75 0 0 1 32.064 140.7832)"><tspan x="0" y="0" font-family="Lora" font-size="14">Viruela</tspan></text>
		<text class="hiv" transform="matrix(0.75 0 0 1 47.0156 110.7832)" font-family="Lora" font-size="14"><tspan x="0" y="0" font-family="Lora" font-size="14">HIV</tspan></text>
		<text class="ebola" transform="matrix(0.75 0 0 1 37.7866 80.7832)" font-family="Lora" font-size="14"><tspan x="0" y="0" font-family="Lora" font-size="14">Ébola</tspan></text>
	</g>
</g>
<g>
	<g>
		<path fill="#00B0E9" d="M97.276,76.238l-1.685-4.983c-0.227-0.973-1.101-1.699-2.143-1.699H90.57    c-0.894,0-1.664,0.534-2.008,1.299v0.001c-0.058,0.127-0.104,0.261-0.136,0.399l-1.685,4.983    c-0.143,0.423,0.084,0.883,0.507,1.026c0.424,0.144,0.883-0.083,1.026-0.507l1.555-4.597h0.266l-2.635,7.795h2.435v6.631    c0,0.548,0.445,0.992,0.992,0.992c0.548,0,0.992-0.444,0.992-0.992v-6.631h0.261v6.631c0,0.548,0.444,0.992,0.992,0.992    s0.994-0.444,0.994-0.992v-6.631h2.433l-2.634-7.795h0.266l1.553,4.597c0.144,0.424,0.603,0.651,1.026,0.507    C97.192,77.121,97.42,76.661,97.276,76.238z"/>
		<circle fill="#00B0E9" cx="92.009" cy="66.995" r="2.217"/>
	</g>
</g>
<g>
	<g>
		<circle fill="#00B0E9" cx="80.365" cy="66.91" r="2.069"/>
		<path fill="#00B0E9" d="M84.815,70.894c-0.08-0.898-0.826-1.604-1.744-1.604h-1.079h-1.079h-1.13h-1.08H78.36h-0.702    c-0.918,0-1.664,0.706-1.744,1.604h-0.015v5.863c0,0.505,0.409,0.914,0.913,0.914c0.505,0,0.915-0.409,0.915-0.914v-4.33    c0.051,0.012,0.105,0.019,0.161,0.019h0.151c-0.011,0.062-0.019,0.125-0.019,0.189v13.797c0,0.609,0.494,1.104,1.104,1.104    c0.609,0,1.104-0.494,1.104-1.104v-6.346h0.274v6.346c0,0.609,0.495,1.104,1.104,1.104s1.104-0.494,1.104-1.104V72.635    c0-0.064-0.009-0.127-0.02-0.189h0.313v4.277c0,0.504,0.409,0.914,0.914,0.914s0.913-0.409,0.913-0.914v-5.829H84.815z"/>
	</g>
</g>
<g>
	<g>
		<g>
			<g>
				<path fill="#00B0E9" d="M97.367,106.376l-1.685-4.983c-0.227-0.973-1.101-1.699-2.143-1.699h-2.878      c-0.894,0-1.664,0.534-2.008,1.299v0.001c-0.058,0.127-0.104,0.261-0.136,0.399l-1.685,4.983      c-0.143,0.423,0.084,0.883,0.507,1.026c0.424,0.144,0.883-0.083,1.026-0.507l1.555-4.597h0.266l-2.635,7.795h2.435v6.631      c0,0.548,0.445,0.992,0.992,0.992c0.548,0,0.992-0.444,0.992-0.992v-6.631h0.261v6.631c0,0.548,0.444,0.992,0.992,0.992      s0.994-0.444,0.994-0.992v-6.631h2.433l-2.634-7.795h0.266l1.553,4.597c0.144,0.424,0.603,0.651,1.026,0.507      C97.283,107.259,97.51,106.799,97.367,106.376z"/>
				<circle fill="#00B0E9" cx="92.1" cy="97.133" r="2.217"/>
			</g>
		</g>
		<g>
			<g>
				<circle fill="#00B0E9" cx="80.456" cy="97.049" r="2.069"/>
				<path fill="#00B0E9" d="M84.906,101.032c-0.08-0.898-0.826-1.604-1.744-1.604h-1.079h-1.079h-1.13h-1.08h-0.343h-0.702      c-0.918,0-1.664,0.706-1.744,1.604h-0.015v5.863c0,0.505,0.409,0.914,0.913,0.914c0.505,0,0.915-0.409,0.915-0.914v-4.33      c0.051,0.012,0.105,0.019,0.161,0.019h0.151c-0.011,0.062-0.019,0.125-0.019,0.189v13.797c0,0.609,0.494,1.104,1.104,1.104      c0.609,0,1.104-0.494,1.104-1.104v-6.346h0.274v6.346c0,0.609,0.495,1.104,1.104,1.104s1.104-0.494,1.104-1.104v-13.797      c0-0.064-0.009-0.127-0.02-0.189h0.313v4.277c0,0.504,0.409,0.914,0.914,0.914s0.913-0.409,0.913-0.914v-5.829H84.906z"/>
			</g>
		</g>
	</g>
	<g>
		<g>
			<g>
				<path fill="#00B0E9" d="M121.276,106.376l-1.685-4.983c-0.227-0.973-1.101-1.699-2.143-1.699h-2.878      c-0.894,0-1.664,0.534-2.008,1.299v0.001c-0.058,0.127-0.104,0.261-0.136,0.399l-1.685,4.983      c-0.143,0.423,0.084,0.883,0.507,1.026c0.424,0.144,0.883-0.083,1.026-0.507l1.555-4.597h0.266l-2.635,7.795h2.435v6.631      c0,0.548,0.445,0.992,0.992,0.992c0.548,0,0.992-0.444,0.992-0.992v-6.631h0.261v6.631c0,0.548,0.444,0.992,0.992,0.992      s0.994-0.444,0.994-0.992v-6.631h2.433l-2.634-7.795h0.266l1.553,4.597c0.144,0.424,0.603,0.651,1.026,0.507      C121.192,107.259,121.42,106.799,121.276,106.376z"/>
				<circle fill="#00B0E9" cx="116.009" cy="97.133" r="2.217"/>
			</g>
		</g>
		<g>
			<g>
				<circle fill="#00B0E9" cx="104.365" cy="97.049" r="2.069"/>
				<path fill="#00B0E9" d="M108.815,101.032c-0.08-0.898-0.826-1.604-1.744-1.604h-1.079h-1.079h-1.13h-1.08h-0.343h-0.702      c-0.918,0-1.664,0.706-1.744,1.604h-0.015v5.863c0,0.505,0.409,0.914,0.913,0.914c0.505,0,0.915-0.409,0.915-0.914v-4.33      c0.051,0.012,0.105,0.019,0.161,0.019h0.151c-0.011,0.062-0.019,0.125-0.019,0.189v13.797c0,0.609,0.494,1.104,1.104,1.104      c0.609,0,1.104-0.494,1.104-1.104v-6.346h0.274v6.346c0,0.609,0.495,1.104,1.104,1.104s1.104-0.494,1.104-1.104v-13.797      c0-0.064-0.009-0.127-0.02-0.189h0.313v4.277c0,0.504,0.409,0.914,0.914,0.914s0.913-0.409,0.913-0.914v-5.829H108.815z"/>
			</g>
		</g>
	</g>
	<g>
		<g>
			<g>
				<path fill="#00B0E9" d="M97.611,136.126l-1.685-4.983c-0.227-0.973-1.101-1.699-2.143-1.699h-2.878      c-0.894,0-1.664,0.534-2.008,1.299v0.001c-0.058,0.127-0.104,0.261-0.136,0.399l-1.685,4.983      c-0.143,0.423,0.084,0.883,0.507,1.026c0.424,0.144,0.883-0.083,1.026-0.507l1.555-4.597h0.266l-2.635,7.795h2.435v6.631      c0,0.548,0.445,0.992,0.992,0.992c0.548,0,0.992-0.444,0.992-0.992v-6.631h0.261v6.631c0,0.548,0.444,0.992,0.992,0.992      s0.994-0.444,0.994-0.992v-6.631h2.433l-2.634-7.795h0.266l1.553,4.597c0.144,0.424,0.603,0.651,1.026,0.507      C97.527,137.009,97.755,136.549,97.611,136.126z"/>
				<circle fill="#00B0E9" cx="92.344" cy="126.883" r="2.217"/>
			</g>
		</g>
		<g>
			<g>
				<circle fill="#00B0E9" cx="80.7" cy="126.799" r="2.069"/>
				<path fill="#00B0E9" d="M85.15,130.782c-0.08-0.898-0.826-1.604-1.744-1.604h-1.079h-1.079h-1.13h-1.08h-0.343h-0.702      c-0.918,0-1.664,0.706-1.744,1.604h-0.015v5.863c0,0.505,0.409,0.914,0.913,0.914c0.505,0,0.915-0.409,0.915-0.914v-4.33      c0.051,0.012,0.105,0.019,0.161,0.019h0.151c-0.011,0.062-0.019,0.125-0.019,0.189v13.797c0,0.609,0.494,1.104,1.104,1.104      c0.609,0,1.104-0.494,1.104-1.104v-6.346h0.274v6.346c0,0.609,0.495,1.104,1.104,1.104s1.104-0.494,1.104-1.104v-13.797      c0-0.064-0.009-0.127-0.02-0.189h0.313v4.277c0,0.504,0.409,0.914,0.914,0.914s0.913-0.409,0.913-0.914v-5.829H85.15z"/>
			</g>
		</g>
	</g>
	<g>
		<g>
			<g>
				<path fill="#00B0E9" d="M121.521,136.126l-1.685-4.983c-0.227-0.973-1.101-1.699-2.143-1.699h-2.878      c-0.894,0-1.664,0.534-2.008,1.299v0.001c-0.058,0.127-0.104,0.261-0.136,0.399l-1.685,4.983      c-0.143,0.423,0.084,0.883,0.507,1.026c0.424,0.144,0.883-0.083,1.026-0.507l1.555-4.597h0.266l-2.635,7.795h2.435v6.631      c0,0.548,0.445,0.992,0.992,0.992c0.548,0,0.992-0.444,0.992-0.992v-6.631h0.261v6.631c0,0.548,0.444,0.992,0.992,0.992      s0.994-0.444,0.994-0.992v-6.631h2.433l-2.634-7.795h0.266l1.553,4.597c0.144,0.424,0.603,0.651,1.026,0.507      C121.437,137.009,121.665,136.549,121.521,136.126z"/>
				<circle fill="#00B0E9" cx="116.254" cy="126.883" r="2.217"/>
			</g>
		</g>
		<g>
			<g>
				<circle fill="#00B0E9" cx="104.61" cy="126.799" r="2.069"/>
				<path fill="#00B0E9" d="M109.06,130.782c-0.08-0.898-0.826-1.604-1.744-1.604h-1.079h-1.079h-1.13h-1.08h-0.343h-0.702      c-0.918,0-1.664,0.706-1.744,1.604h-0.015v5.863c0,0.505,0.409,0.914,0.913,0.914c0.505,0,0.915-0.409,0.915-0.914v-4.33      c0.051,0.012,0.105,0.019,0.161,0.019h0.151c-0.011,0.062-0.019,0.125-0.019,0.189v13.797c0,0.609,0.494,1.104,1.104,1.104      c0.609,0,1.104-0.494,1.104-1.104v-6.346h0.274v6.346c0,0.609,0.495,1.104,1.104,1.104s1.104-0.494,1.104-1.104v-13.797      c0-0.064-0.009-0.127-0.02-0.189h0.313v4.277c0,0.504,0.409,0.914,0.914,0.914s0.913-0.409,0.913-0.914v-5.829H109.06z"/>
			</g>
		</g>
	</g>
	<g>
		<g>
			<circle fill="#00B0E9" cx="129.12" cy="126.735" r="2.069"/>
			<path fill="#00B0E9" d="M133.57,130.719c-0.08-0.898-0.826-1.604-1.744-1.604h-1.079h-1.079h-1.13h-1.08h-0.343h-0.702     c-0.918,0-1.664,0.706-1.744,1.604h-0.015v5.863c0,0.505,0.409,0.914,0.913,0.914c0.505,0,0.915-0.409,0.915-0.914v-4.33     c0.051,0.012,0.105,0.019,0.161,0.019h0.151c-0.011,0.062-0.019,0.125-0.019,0.189v13.797c0,0.609,0.494,1.104,1.104,1.104     c0.609,0,1.104-0.494,1.104-1.104v-6.346h0.274v6.346c0,0.609,0.495,1.104,1.104,1.104s1.104-0.494,1.104-1.104V132.46     c0-0.064-0.009-0.127-0.02-0.189h0.313v4.277c0,0.504,0.409,0.914,0.914,0.914s0.913-0.409,0.913-0.914v-5.829H133.57z"/>
		</g>
	</g>
	<g>
		<g>
			<circle fill="#00B0E9" cx="80.365" cy="157.235" r="2.069"/>
			<path fill="#00B0E9" d="M84.815,161.219c-0.08-0.898-0.826-1.604-1.744-1.604h-1.079h-1.079h-1.13h-1.08H78.36h-0.702     c-0.918,0-1.664,0.706-1.744,1.604h-0.015v5.863c0,0.505,0.409,0.914,0.913,0.914c0.505,0,0.915-0.409,0.915-0.914v-4.33     c0.051,0.012,0.105,0.019,0.161,0.019h0.151c-0.011,0.062-0.019,0.125-0.019,0.189v13.797c0,0.609,0.494,1.104,1.104,1.104     c0.609,0,1.104-0.494,1.104-1.104v-6.346h0.274v6.346c0,0.609,0.495,1.104,1.104,1.104s1.104-0.494,1.104-1.104V162.96     c0-0.064-0.009-0.127-0.02-0.189h0.313v4.277c0,0.504,0.409,0.914,0.914,0.914s0.913-0.409,0.913-0.914v-5.829H84.815z"/>
		</g>
	</g>
	<g>
		<g>
			<g>
				<path fill="#00B0E9" d="M98.367,196.625l-1.685-4.982c-0.227-0.973-1.101-1.699-2.143-1.699h-2.878      c-0.894,0-1.664,0.534-2.008,1.299v0.001c-0.058,0.127-0.104,0.261-0.136,0.399l-1.685,4.982      c-0.143,0.424,0.084,0.884,0.507,1.027c0.424,0.143,0.883-0.084,1.026-0.508l1.555-4.597h0.266l-2.635,7.795h2.435v6.632      c0,0.547,0.445,0.991,0.992,0.991c0.548,0,0.992-0.444,0.992-0.991v-6.632h0.261v6.632c0,0.547,0.444,0.991,0.992,0.991      s0.994-0.444,0.994-0.991v-6.632h2.433l-2.634-7.795h0.266l1.553,4.597c0.144,0.424,0.603,0.65,1.026,0.508      C98.283,197.509,98.51,197.049,98.367,196.625z"/>
				<circle fill="#00B0E9" cx="93.1" cy="187.383" r="2.217"/>
			</g>
		</g>
		<g>
			<g>
				<circle fill="#00B0E9" cx="81.456" cy="187.299" r="2.069"/>
				<path fill="#00B0E9" d="M85.906,191.282c-0.08-0.898-0.826-1.604-1.744-1.604h-1.079h-1.079h-1.13h-1.08h-0.343h-0.702      c-0.918,0-1.664,0.706-1.744,1.604h-0.015v5.863c0,0.506,0.409,0.914,0.913,0.914c0.505,0,0.915-0.408,0.915-0.914v-4.33      c0.051,0.012,0.105,0.019,0.161,0.019h0.151c-0.011,0.062-0.019,0.125-0.019,0.189v13.797c0,0.609,0.494,1.104,1.104,1.104      c0.609,0,1.104-0.494,1.104-1.104v-6.346h0.274v6.346c0,0.609,0.495,1.104,1.104,1.104s1.104-0.494,1.104-1.104v-13.797      c0-0.064-0.009-0.127-0.02-0.189h0.313v4.277c0,0.504,0.409,0.913,0.914,0.913s0.913-0.409,0.913-0.913v-5.83H85.906z"/>
			</g>
		</g>
	</g>
	<g>
		<g>
			<g>
				<path fill="#00B0E9" d="M122.276,196.625l-1.685-4.982c-0.227-0.973-1.101-1.699-2.143-1.699h-2.878      c-0.894,0-1.664,0.534-2.008,1.299v0.001c-0.058,0.127-0.104,0.261-0.136,0.399l-1.685,4.982      c-0.143,0.424,0.084,0.884,0.507,1.027c0.424,0.143,0.883-0.084,1.026-0.508l1.555-4.597h0.266l-2.635,7.795h2.435v6.632      c0,0.547,0.445,0.991,0.992,0.991c0.548,0,0.992-0.444,0.992-0.991v-6.632h0.261v6.632c0,0.547,0.444,0.991,0.992,0.991      s0.994-0.444,0.994-0.991v-6.632h2.433l-2.634-7.795h0.266l1.553,4.597c0.144,0.424,0.603,0.65,1.026,0.508      C122.192,197.509,122.42,197.049,122.276,196.625z"/>
				<circle fill="#00B0E9" cx="117.009" cy="187.383" r="2.217"/>
			</g>
		</g>
		<g>
			<g>
				<circle fill="#00B0E9" cx="105.365" cy="187.299" r="2.069"/>
				<path fill="#00B0E9" d="M109.815,191.282c-0.08-0.898-0.826-1.604-1.744-1.604h-1.079h-1.079h-1.13h-1.08h-0.343h-0.702      c-0.918,0-1.664,0.706-1.744,1.604h-0.015v5.863c0,0.506,0.409,0.914,0.913,0.914c0.505,0,0.915-0.408,0.915-0.914v-4.33      c0.051,0.012,0.105,0.019,0.161,0.019h0.151c-0.011,0.062-0.019,0.125-0.019,0.189v13.797c0,0.609,0.494,1.104,1.104,1.104      c0.609,0,1.104-0.494,1.104-1.104v-6.346h0.274v6.346c0,0.609,0.495,1.104,1.104,1.104s1.104-0.494,1.104-1.104v-13.797      c0-0.064-0.009-0.127-0.02-0.189h0.313v4.277c0,0.504,0.409,0.913,0.914,0.913s0.913-0.409,0.913-0.913v-5.83H109.815z"/>
			</g>
		</g>
	</g>
	<g>
		<g>
			<g>
				<path fill="#00B0E9" d="M98.367,226.625l-1.685-4.982c-0.227-0.973-1.101-1.699-2.143-1.699h-2.878      c-0.894,0-1.664,0.533-2.008,1.299v0.001c-0.058,0.127-0.104,0.261-0.136,0.399l-1.685,4.982      c-0.143,0.424,0.084,0.884,0.507,1.027c0.424,0.143,0.883-0.084,1.026-0.508l1.555-4.597h0.266l-2.635,7.795h2.435v6.632      c0,0.547,0.445,0.991,0.992,0.991c0.548,0,0.992-0.444,0.992-0.991v-6.632h0.261v6.632c0,0.547,0.444,0.991,0.992,0.991      s0.994-0.444,0.994-0.991v-6.632h2.433l-2.634-7.795h0.266l1.553,4.597c0.144,0.424,0.603,0.65,1.026,0.508      C98.283,227.509,98.51,227.049,98.367,226.625z"/>
				<circle fill="#00B0E9" cx="93.1" cy="217.383" r="2.217"/>
			</g>
		</g>
		<g>
			<g>
				<circle fill="#00B0E9" cx="81.456" cy="217.298" r="2.069"/>
				<path fill="#00B0E9" d="M85.906,221.282c-0.08-0.897-0.826-1.604-1.744-1.604h-1.079h-1.079h-1.13h-1.08h-0.343h-0.702      c-0.918,0-1.664,0.706-1.744,1.604h-0.015v5.863c0,0.506,0.409,0.914,0.913,0.914c0.505,0,0.915-0.408,0.915-0.914v-4.33      c0.051,0.012,0.105,0.02,0.161,0.02h0.151c-0.011,0.063-0.019,0.125-0.019,0.189v13.797c0,0.609,0.494,1.104,1.104,1.104      c0.609,0,1.104-0.494,1.104-1.104v-6.346h0.274v6.346c0,0.609,0.495,1.104,1.104,1.104s1.104-0.494,1.104-1.104v-13.797      c0-0.064-0.009-0.127-0.02-0.189h0.313v4.277c0,0.504,0.409,0.913,0.914,0.913s0.913-0.409,0.913-0.913v-5.83H85.906z"/>
			</g>
		</g>
	</g>
	<g>
		<g>
			<circle fill="#00B0E9" cx="105.365" cy="217.235" r="2.069"/>
			<path fill="#00B0E9" d="M109.815,221.219c-0.08-0.898-0.826-1.604-1.744-1.604h-1.079h-1.079h-1.13h-1.08h-0.343h-0.702     c-0.918,0-1.664,0.705-1.744,1.604h-0.015v5.863c0,0.504,0.409,0.914,0.913,0.914c0.505,0,0.915-0.41,0.915-0.914v-4.33     c0.051,0.012,0.105,0.019,0.161,0.019h0.151c-0.011,0.062-0.019,0.124-0.019,0.188v13.797c0,0.609,0.494,1.104,1.104,1.104     c0.609,0,1.104-0.494,1.104-1.104v-6.346h0.274v6.346c0,0.609,0.495,1.104,1.104,1.104s1.104-0.494,1.104-1.104v-13.797     c0-0.064-0.009-0.127-0.02-0.188h0.313v4.276c0,0.505,0.409,0.914,0.914,0.914s0.913-0.409,0.913-0.914v-5.828H109.815z"/>
		</g>
	</g>
	<g>
		<g>
			<g>
				<path fill="#00B0E9" d="M98.611,256.125l-1.685-4.982c-0.227-0.973-1.101-1.699-2.143-1.699h-2.878      c-0.894,0-1.664,0.533-2.008,1.299v0.001c-0.058,0.127-0.104,0.261-0.136,0.399l-1.685,4.982      c-0.143,0.424,0.084,0.884,0.507,1.027c0.424,0.143,0.883-0.084,1.026-0.508l1.555-4.597h0.266l-2.635,7.795h2.435v6.632      c0,0.547,0.445,0.991,0.992,0.991c0.548,0,0.992-0.444,0.992-0.991v-6.632h0.261v6.632c0,0.547,0.444,0.991,0.992,0.991      s0.994-0.444,0.994-0.991v-6.632h2.433l-2.634-7.795h0.266l1.553,4.597c0.144,0.424,0.603,0.65,1.026,0.508      C98.527,257.009,98.755,256.549,98.611,256.125z"/>
				<circle fill="#00B0E9" cx="93.344" cy="246.883" r="2.217"/>
			</g>
		</g>
		<g>
			<g>
				<circle fill="#00B0E9" cx="81.7" cy="246.798" r="2.069"/>
				<path fill="#00B0E9" d="M86.15,250.782c-0.08-0.897-0.826-1.604-1.744-1.604h-1.079h-1.079h-1.13h-1.08h-0.343h-0.702      c-0.918,0-1.664,0.706-1.744,1.604h-0.015v5.863c0,0.506,0.409,0.914,0.913,0.914c0.505,0,0.915-0.408,0.915-0.914v-4.33      c0.051,0.012,0.105,0.02,0.161,0.02h0.151c-0.011,0.063-0.019,0.125-0.019,0.189v13.797c0,0.609,0.494,1.104,1.104,1.104      c0.609,0,1.104-0.494,1.104-1.104v-6.346h0.274v6.346c0,0.609,0.495,1.104,1.104,1.104s1.104-0.494,1.104-1.104v-13.797      c0-0.064-0.009-0.127-0.02-0.189h0.313v4.277c0,0.504,0.409,0.913,0.914,0.913s0.913-0.409,0.913-0.913v-5.83H86.15z"/>
			</g>
		</g>
	</g>
	<g>
		<g>
			<g>
				<path fill="#00B0E9" d="M122.521,256.125l-1.685-4.982c-0.227-0.973-1.101-1.699-2.143-1.699h-2.878      c-0.894,0-1.664,0.533-2.008,1.299v0.001c-0.058,0.127-0.104,0.261-0.136,0.399l-1.685,4.982      c-0.143,0.424,0.084,0.884,0.507,1.027c0.424,0.143,0.883-0.084,1.026-0.508l1.555-4.597h0.266l-2.635,7.795h2.435v6.632      c0,0.547,0.445,0.991,0.992,0.991c0.548,0,0.992-0.444,0.992-0.991v-6.632h0.261v6.632c0,0.547,0.444,0.991,0.992,0.991      s0.994-0.444,0.994-0.991v-6.632h2.433l-2.634-7.795h0.266l1.553,4.597c0.144,0.424,0.603,0.65,1.026,0.508      C122.437,257.009,122.665,256.549,122.521,256.125z"/>
				<circle fill="#00B0E9" cx="117.254" cy="246.883" r="2.217"/>
			</g>
		</g>
		<g>
			<g>
				<circle fill="#00B0E9" cx="105.61" cy="246.798" r="2.069"/>
				<path fill="#00B0E9" d="M110.06,250.782c-0.08-0.897-0.826-1.604-1.744-1.604h-1.079h-1.079h-1.13h-1.08h-0.343h-0.702      c-0.918,0-1.664,0.706-1.744,1.604h-0.015v5.863c0,0.506,0.409,0.914,0.913,0.914c0.505,0,0.915-0.408,0.915-0.914v-4.33      c0.051,0.012,0.105,0.02,0.161,0.02h0.151c-0.011,0.063-0.019,0.125-0.019,0.189v13.797c0,0.609,0.494,1.104,1.104,1.104      c0.609,0,1.104-0.494,1.104-1.104v-6.346h0.274v6.346c0,0.609,0.495,1.104,1.104,1.104s1.104-0.494,1.104-1.104v-13.797      c0-0.064-0.009-0.127-0.02-0.189h0.313v4.277c0,0.504,0.409,0.913,0.914,0.913s0.913-0.409,0.913-0.913v-5.83H110.06z"/>
			</g>
		</g>
	</g>
	<g>
		<g>
			<g>
				<path fill="#00B0E9" d="M146.031,256.125l-1.685-4.982c-0.227-0.973-1.101-1.699-2.143-1.699h-2.878      c-0.894,0-1.664,0.533-2.008,1.299v0.001c-0.058,0.127-0.104,0.261-0.136,0.399l-1.685,4.982      c-0.143,0.424,0.084,0.884,0.507,1.027c0.424,0.143,0.883-0.084,1.026-0.508l1.555-4.597h0.266l-2.635,7.795h2.435v6.632      c0,0.547,0.445,0.991,0.992,0.991c0.548,0,0.992-0.444,0.992-0.991v-6.632h0.261v6.632c0,0.547,0.444,0.991,0.992,0.991      s0.994-0.444,0.994-0.991v-6.632h2.433l-2.634-7.795h0.266l1.553,4.597c0.144,0.424,0.603,0.65,1.026,0.508      C145.947,257.009,146.174,256.549,146.031,256.125z"/>
				<circle fill="#00B0E9" cx="140.764" cy="246.883" r="2.217"/>
			</g>
		</g>
		<g>
			<g>
				<circle fill="#00B0E9" cx="129.12" cy="246.798" r="2.069"/>
				<path fill="#00B0E9" d="M133.57,250.782c-0.08-0.897-0.826-1.604-1.744-1.604h-1.079h-1.079h-1.13h-1.08h-0.343h-0.702      c-0.918,0-1.664,0.706-1.744,1.604h-0.015v5.863c0,0.506,0.409,0.914,0.913,0.914c0.505,0,0.915-0.408,0.915-0.914v-4.33      c0.051,0.012,0.105,0.02,0.161,0.02h0.151c-0.011,0.063-0.019,0.125-0.019,0.189v13.797c0,0.609,0.494,1.104,1.104,1.104      c0.609,0,1.104-0.494,1.104-1.104v-6.346h0.274v6.346c0,0.609,0.495,1.104,1.104,1.104s1.104-0.494,1.104-1.104v-13.797      c0-0.064-0.009-0.127-0.02-0.189h0.313v4.277c0,0.504,0.409,0.913,0.914,0.913s0.913-0.409,0.913-0.913v-5.83H133.57z"/>
			</g>
		</g>
	</g>
	<g>
		<g>
			<g>
				<path fill="#00B0E9" d="M98.702,286.625l-1.685-4.982c-0.227-0.973-1.101-1.699-2.143-1.699h-2.878      c-0.894,0-1.664,0.533-2.008,1.299v0.001c-0.058,0.127-0.104,0.261-0.136,0.399l-1.685,4.982      c-0.143,0.424,0.084,0.884,0.507,1.027c0.424,0.143,0.883-0.084,1.026-0.508l1.555-4.597h0.266l-2.635,7.795h2.435v6.632      c0,0.547,0.445,0.991,0.992,0.991c0.548,0,0.992-0.444,0.992-0.991v-6.632h0.261v6.632c0,0.547,0.444,0.991,0.992,0.991      s0.994-0.444,0.994-0.991v-6.632h2.433l-2.634-7.795h0.266l1.553,4.597c0.144,0.424,0.603,0.65,1.026,0.508      C98.618,287.509,98.845,287.049,98.702,286.625z"/>
				<circle fill="#00B0E9" cx="93.435" cy="277.383" r="2.217"/>
			</g>
		</g>
		<g>
			<g>
				<circle fill="#00B0E9" cx="81.791" cy="277.298" r="2.069"/>
				<path fill="#00B0E9" d="M86.241,281.282c-0.08-0.897-0.826-1.604-1.744-1.604h-1.079h-1.079h-1.13h-1.08h-0.343h-0.702      c-0.918,0-1.664,0.706-1.744,1.604h-0.015v5.863c0,0.506,0.409,0.914,0.913,0.914c0.505,0,0.915-0.408,0.915-0.914v-4.33      c0.051,0.012,0.105,0.02,0.161,0.02h0.151c-0.011,0.063-0.019,0.125-0.019,0.189v13.797c0,0.609,0.494,1.104,1.104,1.104      c0.609,0,1.104-0.494,1.104-1.104v-6.346h0.274v6.346c0,0.609,0.495,1.104,1.104,1.104s1.104-0.494,1.104-1.104v-13.797      c0-0.064-0.009-0.127-0.02-0.189h0.313v4.277c0,0.504,0.409,0.913,0.914,0.913s0.913-0.409,0.913-0.913v-5.83H86.241z"/>
			</g>
		</g>
	</g>
	<g>
		<g>
			<g>
				<path fill="#00B0E9" d="M171.101,315.938l-1.685-4.982c-0.227-0.973-1.101-1.699-2.143-1.699h-2.878      c-0.894,0-1.664,0.533-2.008,1.299v0.001c-0.058,0.127-0.104,0.261-0.136,0.399l-1.685,4.982      c-0.143,0.424,0.084,0.884,0.507,1.027c0.424,0.143,0.883-0.084,1.026-0.508l1.555-4.597h0.266l-2.635,7.795h2.435v6.632      c0,0.547,0.445,0.991,0.992,0.991c0.548,0,0.992-0.444,0.992-0.991v-6.632h0.261v6.632c0,0.547,0.444,0.991,0.992,0.991      s0.994-0.444,0.994-0.991v-6.632h2.433l-2.634-7.795h0.266l1.553,4.597c0.144,0.424,0.603,0.65,1.026,0.508      C171.017,316.822,171.245,316.362,171.101,315.938z"/>
				<circle fill="#00B0E9" cx="165.834" cy="306.696" r="2.217"/>
			</g>
		</g>
		<g>
			<g>
				<circle fill="#00B0E9" cx="154.19" cy="306.611" r="2.069"/>
				<path fill="#00B0E9" d="M158.64,310.594c-0.08-0.897-0.826-1.604-1.744-1.604h-1.079h-1.079h-1.13h-1.08h-0.343h-0.702      c-0.918,0-1.664,0.706-1.744,1.604h-0.015v5.863c0,0.506,0.409,0.914,0.913,0.914c0.505,0,0.915-0.408,0.915-0.914v-4.33      c0.051,0.012,0.105,0.02,0.161,0.02h0.151c-0.011,0.063-0.019,0.125-0.019,0.189v13.797c0,0.609,0.494,1.104,1.104,1.104      c0.609,0,1.104-0.494,1.104-1.104v-6.346h0.274v6.346c0,0.609,0.495,1.104,1.104,1.104s1.104-0.494,1.104-1.104v-13.797      c0-0.064-0.009-0.127-0.02-0.189h0.313v4.277c0,0.504,0.409,0.913,0.914,0.913s0.913-0.409,0.913-0.913v-5.83H158.64z"/>
			</g>
		</g>
	</g>
	<g>
		<g>
			<g>
				<path fill="#00B0E9" d="M195.011,315.938l-1.685-4.982c-0.227-0.973-1.101-1.699-2.143-1.699h-2.878      c-0.894,0-1.664,0.533-2.008,1.299v0.001c-0.058,0.127-0.104,0.261-0.136,0.399l-1.685,4.982      c-0.143,0.424,0.084,0.884,0.507,1.027c0.424,0.143,0.883-0.084,1.026-0.508l1.555-4.597h0.266l-2.635,7.795h2.435v6.632      c0,0.547,0.445,0.991,0.992,0.991c0.548,0,0.992-0.444,0.992-0.991v-6.632h0.261v6.632c0,0.547,0.444,0.991,0.992,0.991      s0.994-0.444,0.994-0.991v-6.632h2.433l-2.634-7.795h0.266l1.553,4.597c0.144,0.424,0.603,0.65,1.026,0.508      C194.927,316.822,195.154,316.362,195.011,315.938z"/>
				<circle fill="#00B0E9" cx="189.744" cy="306.696" r="2.217"/>
			</g>
		</g>
		<g>
			<g>
				<circle fill="#00B0E9" cx="178.1" cy="306.611" r="2.069"/>
				<path fill="#00B0E9" d="M182.55,310.594c-0.08-0.897-0.826-1.604-1.744-1.604h-1.079h-1.079h-1.13h-1.08h-0.343h-0.702      c-0.918,0-1.664,0.706-1.744,1.604h-0.015v5.863c0,0.506,0.409,0.914,0.913,0.914c0.505,0,0.915-0.408,0.915-0.914v-4.33      c0.051,0.012,0.105,0.02,0.161,0.02h0.151c-0.011,0.063-0.019,0.125-0.019,0.189v13.797c0,0.609,0.494,1.104,1.104,1.104      c0.609,0,1.104-0.494,1.104-1.104v-6.346h0.274v6.346c0,0.609,0.495,1.104,1.104,1.104s1.104-0.494,1.104-1.104v-13.797      c0-0.064-0.009-0.127-0.02-0.189h0.313v4.277c0,0.504,0.409,0.913,0.914,0.913s0.913-0.409,0.913-0.913v-5.83H182.55z"/>
			</g>
		</g>
	</g>
	<g>
		<g>
			<g>
				<path fill="#00B0E9" d="M218.521,315.938l-1.685-4.982c-0.227-0.973-1.101-1.699-2.143-1.699h-2.878      c-0.894,0-1.664,0.533-2.008,1.299v0.001c-0.058,0.127-0.104,0.261-0.136,0.399l-1.685,4.982      c-0.143,0.424,0.084,0.884,0.507,1.027c0.424,0.143,0.883-0.084,1.026-0.508l1.555-4.597h0.266l-2.635,7.795h2.435v6.632      c0,0.547,0.445,0.991,0.992,0.991c0.548,0,0.992-0.444,0.992-0.991v-6.632h0.261v6.632c0,0.547,0.444,0.991,0.992,0.991      s0.994-0.444,0.994-0.991v-6.632h2.433l-2.634-7.795h0.266l1.553,4.597c0.144,0.424,0.603,0.65,1.026,0.508      C218.437,316.822,218.664,316.362,218.521,315.938z"/>
				<circle fill="#00B0E9" cx="213.253" cy="306.696" r="2.217"/>
			</g>
		</g>
		<g>
			<g>
				<circle fill="#00B0E9" cx="201.609" cy="306.611" r="2.069"/>
				<path fill="#00B0E9" d="M206.06,310.594c-0.08-0.897-0.826-1.604-1.744-1.604h-1.079h-1.079h-1.13h-1.08h-0.343h-0.702      c-0.918,0-1.664,0.706-1.744,1.604h-0.015v5.863c0,0.506,0.409,0.914,0.913,0.914c0.505,0,0.915-0.408,0.915-0.914v-4.33      c0.051,0.012,0.105,0.02,0.161,0.02h0.151c-0.011,0.063-0.019,0.125-0.019,0.189v13.797c0,0.609,0.494,1.104,1.104,1.104      c0.609,0,1.104-0.494,1.104-1.104v-6.346h0.274v6.346c0,0.609,0.495,1.104,1.104,1.104s1.104-0.494,1.104-1.104v-13.797      c0-0.064-0.009-0.127-0.02-0.189h0.313v4.277c0,0.504,0.409,0.913,0.914,0.913s0.913-0.409,0.913-0.913v-5.83H206.06z"/>
			</g>
		</g>
	</g>
	<g>
		<g>
			<g>
				<path fill="#00B0E9" d="M98.902,315.875l-1.685-4.982c-0.227-0.973-1.101-1.699-2.143-1.699h-2.878      c-0.894,0-1.664,0.533-2.008,1.299v0.001c-0.058,0.127-0.104,0.261-0.136,0.399l-1.685,4.982      c-0.143,0.424,0.084,0.884,0.507,1.027c0.424,0.143,0.883-0.084,1.026-0.508l1.555-4.597h0.266l-2.635,7.795h2.435v6.632      c0,0.547,0.445,0.991,0.992,0.991c0.548,0,0.992-0.444,0.992-0.991v-6.632h0.261v6.632c0,0.547,0.444,0.991,0.992,0.991      s0.994-0.444,0.994-0.991v-6.632h2.433l-2.634-7.795h0.266l1.553,4.597c0.144,0.424,0.603,0.65,1.026,0.508      C98.818,316.759,99.045,316.299,98.902,315.875z"/>
				<circle fill="#00B0E9" cx="93.635" cy="306.633" r="2.217"/>
			</g>
		</g>
		<g>
			<g>
				<circle fill="#00B0E9" cx="81.991" cy="306.548" r="2.069"/>
				<path fill="#00B0E9" d="M86.441,310.532c-0.08-0.897-0.826-1.604-1.744-1.604h-1.079h-1.079h-1.13h-1.08h-0.343h-0.702      c-0.918,0-1.664,0.706-1.744,1.604h-0.015v5.863c0,0.506,0.409,0.914,0.913,0.914c0.505,0,0.915-0.408,0.915-0.914v-4.33      c0.051,0.012,0.105,0.02,0.161,0.02h0.151c-0.011,0.063-0.019,0.125-0.019,0.189v13.797c0,0.609,0.494,1.104,1.104,1.104      c0.609,0,1.104-0.494,1.104-1.104v-6.346h0.274v6.346c0,0.609,0.495,1.104,1.104,1.104s1.104-0.494,1.104-1.104v-13.797      c0-0.064-0.009-0.127-0.02-0.189h0.313v4.277c0,0.504,0.409,0.913,0.914,0.913s0.913-0.409,0.913-0.913v-5.83H86.441z"/>
			</g>
		</g>
	</g>
	<g>
		<g>
			<g>
				<path fill="#00B0E9" d="M122.812,315.875l-1.685-4.982c-0.227-0.973-1.101-1.699-2.143-1.699h-2.878      c-0.894,0-1.664,0.533-2.008,1.299v0.001c-0.058,0.127-0.104,0.261-0.136,0.399l-1.685,4.982      c-0.143,0.424,0.084,0.884,0.507,1.027c0.424,0.143,0.883-0.084,1.026-0.508l1.555-4.597h0.266l-2.635,7.795h2.435v6.632      c0,0.547,0.445,0.991,0.992,0.991c0.548,0,0.992-0.444,0.992-0.991v-6.632h0.261v6.632c0,0.547,0.444,0.991,0.992,0.991      s0.994-0.444,0.994-0.991v-6.632h2.433l-2.634-7.795h0.266l1.553,4.597c0.144,0.424,0.603,0.65,1.026,0.508      C122.728,316.759,122.955,316.299,122.812,315.875z"/>
				<circle fill="#00B0E9" cx="117.544" cy="306.633" r="2.217"/>
			</g>
		</g>
		<g>
			<g>
				<circle fill="#00B0E9" cx="105.9" cy="306.548" r="2.069"/>
				<path fill="#00B0E9" d="M110.351,310.532c-0.08-0.897-0.826-1.604-1.744-1.604h-1.079h-1.079h-1.13h-1.08h-0.343h-0.702      c-0.918,0-1.664,0.706-1.744,1.604h-0.015v5.863c0,0.506,0.409,0.914,0.913,0.914c0.505,0,0.915-0.408,0.915-0.914v-4.33      c0.051,0.012,0.105,0.02,0.161,0.02h0.151c-0.011,0.063-0.019,0.125-0.019,0.189v13.797c0,0.609,0.494,1.104,1.104,1.104      c0.609,0,1.104-0.494,1.104-1.104v-6.346h0.274v6.346c0,0.609,0.495,1.104,1.104,1.104s1.104-0.494,1.104-1.104v-13.797      c0-0.064-0.009-0.127-0.02-0.189h0.313v4.277c0,0.504,0.409,0.913,0.914,0.913s0.913-0.409,0.913-0.913v-5.83H110.351z"/>
			</g>
		</g>
	</g>
	<g>
		<g>
			<g>
				<path fill="#00B0E9" d="M146.321,315.875l-1.685-4.982c-0.227-0.973-1.101-1.699-2.143-1.699h-2.878      c-0.894,0-1.664,0.533-2.008,1.299v0.001c-0.058,0.127-0.104,0.261-0.136,0.399l-1.685,4.982      c-0.143,0.424,0.084,0.884,0.507,1.027c0.424,0.143,0.883-0.084,1.026-0.508l1.555-4.597h0.266l-2.635,7.795h2.435v6.632      c0,0.547,0.445,0.991,0.992,0.991c0.548,0,0.992-0.444,0.992-0.991v-6.632h0.261v6.632c0,0.547,0.444,0.991,0.992,0.991      s0.994-0.444,0.994-0.991v-6.632h2.433l-2.634-7.795h0.266l1.553,4.597c0.144,0.424,0.603,0.65,1.026,0.508      C146.237,316.759,146.465,316.299,146.321,315.875z"/>
				<circle fill="#00B0E9" cx="141.054" cy="306.633" r="2.217"/>
			</g>
		</g>
		<g>
			<g>
				<circle fill="#00B0E9" cx="129.41" cy="306.548" r="2.069"/>
				<path fill="#00B0E9" d="M133.86,310.532c-0.08-0.897-0.826-1.604-1.744-1.604h-1.079h-1.079h-1.13h-1.08h-0.343h-0.702      c-0.918,0-1.664,0.706-1.744,1.604h-0.015v5.863c0,0.506,0.409,0.914,0.913,0.914c0.505,0,0.915-0.408,0.915-0.914v-4.33      c0.051,0.012,0.105,0.02,0.161,0.02h0.151c-0.011,0.063-0.019,0.125-0.019,0.189v13.797c0,0.609,0.494,1.104,1.104,1.104      c0.609,0,1.104-0.494,1.104-1.104v-6.346h0.274v6.346c0,0.609,0.495,1.104,1.104,1.104s1.104-0.494,1.104-1.104v-13.797      c0-0.064-0.009-0.127-0.02-0.189h0.313v4.277c0,0.504,0.409,0.913,0.914,0.913s0.913-0.409,0.913-0.913v-5.83H133.86z"/>
			</g>
		</g>
	</g>
	<g>
		<g>
			<g>
				<path fill="#00B0E9" d="M242.117,315.875l-1.685-4.982c-0.227-0.973-1.101-1.699-2.143-1.699h-2.878      c-0.894,0-1.664,0.533-2.008,1.299v0.001c-0.058,0.127-0.104,0.261-0.136,0.399l-1.685,4.982      c-0.143,0.424,0.084,0.884,0.507,1.027c0.424,0.143,0.883-0.084,1.026-0.508l1.555-4.597h0.266l-2.635,7.795h2.435v6.632      c0,0.547,0.445,0.991,0.992,0.991c0.548,0,0.992-0.444,0.992-0.991v-6.632h0.261v6.632c0,0.547,0.444,0.991,0.992,0.991      s0.994-0.444,0.994-0.991v-6.632h2.433l-2.634-7.795h0.266l1.553,4.597c0.144,0.424,0.603,0.65,1.026,0.508      C242.033,316.759,242.26,316.299,242.117,315.875z"/>
				<circle fill="#00B0E9" cx="236.85" cy="306.633" r="2.217"/>
			</g>
		</g>
		<g>
			<g>
				<circle fill="#00B0E9" cx="225.206" cy="306.548" r="2.069"/>
				<path fill="#00B0E9" d="M229.656,310.532c-0.08-0.897-0.826-1.604-1.744-1.604h-1.079h-1.079h-1.13h-1.08h-0.343h-0.702      c-0.918,0-1.664,0.706-1.744,1.604h-0.015v5.863c0,0.506,0.409,0.914,0.913,0.914c0.505,0,0.915-0.408,0.915-0.914v-4.33      c0.051,0.012,0.105,0.02,0.161,0.02h0.151c-0.011,0.063-0.019,0.125-0.019,0.189v13.797c0,0.609,0.494,1.104,1.104,1.104      c0.609,0,1.104-0.494,1.104-1.104v-6.346h0.274v6.346c0,0.609,0.495,1.104,1.104,1.104s1.104-0.494,1.104-1.104v-13.797      c0-0.064-0.009-0.127-0.02-0.189h0.313v4.277c0,0.504,0.409,0.913,0.914,0.913s0.913-0.409,0.913-0.913v-5.83H229.656z"/>
			</g>
		</g>
	</g>
	<g>
		<g>
			<circle fill="#00B0E9" cx="249.115" cy="306.485" r="2.069"/>
			<path fill="#00B0E9" d="M253.565,310.469c-0.08-0.898-0.826-1.604-1.744-1.604h-1.079h-1.079h-1.13h-1.08h-0.343h-0.702     c-0.918,0-1.664,0.705-1.744,1.604h-0.015v5.863c0,0.504,0.409,0.914,0.913,0.914c0.505,0,0.915-0.41,0.915-0.914v-4.33     c0.051,0.012,0.105,0.019,0.161,0.019h0.151c-0.011,0.062-0.019,0.124-0.019,0.188v13.797c0,0.609,0.494,1.104,1.104,1.104     c0.609,0,1.104-0.494,1.104-1.104v-6.346h0.274v6.346c0,0.609,0.495,1.104,1.104,1.104s1.104-0.494,1.104-1.104v-13.797     c0-0.064-0.009-0.127-0.02-0.188h0.313v4.276c0,0.505,0.409,0.914,0.914,0.914s0.913-0.409,0.913-0.914v-5.828H253.565z"/>
		</g>
	</g>
	<g>
		<g>
			<g>
				<path fill="#00B0E9" d="M98.591,346.125l-1.685-4.982c-0.227-0.973-1.101-1.699-2.143-1.699h-2.878      c-0.894,0-1.664,0.533-2.008,1.299v0.001c-0.058,0.127-0.104,0.261-0.136,0.399l-1.685,4.982      c-0.143,0.424,0.084,0.884,0.507,1.027c0.424,0.143,0.883-0.084,1.026-0.508l1.555-4.597h0.266l-2.635,7.795h2.435v6.632      c0,0.547,0.445,0.991,0.992,0.991c0.548,0,0.992-0.444,0.992-0.991v-6.632h0.261v6.632c0,0.547,0.444,0.991,0.992,0.991      s0.994-0.444,0.994-0.991v-6.632h2.433l-2.634-7.795h0.266l1.553,4.597c0.144,0.424,0.603,0.65,1.026,0.508      C98.507,347.009,98.735,346.549,98.591,346.125z"/>
				<circle fill="#00B0E9" cx="93.324" cy="336.883" r="2.217"/>
			</g>
		</g>
		<g>
			<g>
				<circle fill="#00B0E9" cx="81.68" cy="336.798" r="2.069"/>
				<path fill="#00B0E9" d="M86.13,340.782c-0.08-0.897-0.826-1.604-1.744-1.604h-1.079h-1.079h-1.13h-1.08h-0.343h-0.702      c-0.918,0-1.664,0.706-1.744,1.604h-0.015v5.863c0,0.506,0.409,0.914,0.913,0.914c0.505,0,0.915-0.408,0.915-0.914v-4.33      c0.051,0.012,0.105,0.02,0.161,0.02h0.151c-0.011,0.063-0.019,0.125-0.019,0.189v13.797c0,0.609,0.494,1.104,1.104,1.104      c0.609,0,1.104-0.494,1.104-1.104v-6.346h0.274v6.346c0,0.609,0.495,1.104,1.104,1.104s1.104-0.494,1.104-1.104v-13.797      c0-0.064-0.009-0.127-0.02-0.189h0.313v4.277c0,0.504,0.409,0.913,0.914,0.913s0.913-0.409,0.913-0.913v-5.83H86.13z"/>
			</g>
		</g>
	</g>
	<g>
		<g>
			<circle fill="#00B0E9" cx="105.59" cy="336.735" r="2.069"/>
			<path fill="#00B0E9" d="M110.04,340.719c-0.08-0.898-0.826-1.604-1.744-1.604h-1.079h-1.079h-1.13h-1.08h-0.343h-0.702     c-0.918,0-1.664,0.705-1.744,1.604h-0.015v5.863c0,0.504,0.409,0.914,0.913,0.914c0.505,0,0.915-0.41,0.915-0.914v-4.33     c0.051,0.012,0.105,0.019,0.161,0.019h0.151c-0.011,0.062-0.019,0.124-0.019,0.188v13.797c0,0.609,0.494,1.104,1.104,1.104     c0.609,0,1.104-0.494,1.104-1.104v-6.346h0.274v6.346c0,0.609,0.495,1.104,1.104,1.104s1.104-0.494,1.104-1.104v-13.797     c0-0.064-0.009-0.127-0.02-0.188h0.313v4.276c0,0.505,0.409,0.914,0.914,0.914s0.913-0.409,0.913-0.914v-5.828H110.04z"/>
		</g>
	</g>
	<g>
		<g>
			<g>
				<path fill="#00B0E9" d="M134.457,346.125l-1.685-4.982c-0.227-0.973-1.101-1.699-2.143-1.699h-2.878      c-0.894,0-1.664,0.533-2.008,1.299v0.001c-0.058,0.127-0.104,0.261-0.136,0.399l-1.685,4.982      c-0.143,0.424,0.084,0.884,0.507,1.027c0.424,0.143,0.883-0.084,1.026-0.508l1.555-4.597h0.266l-2.635,7.795h2.435v6.632      c0,0.547,0.445,0.991,0.992,0.991c0.548,0,0.992-0.444,0.992-0.991v-6.632h0.261v6.632c0,0.547,0.444,0.991,0.992,0.991      s0.994-0.444,0.994-0.991v-6.632h2.433l-2.634-7.795h0.266l1.553,4.597c0.144,0.424,0.603,0.65,1.026,0.508      C134.373,347.009,134.601,346.549,134.457,346.125z"/>
				<circle fill="#00B0E9" cx="129.19" cy="336.883" r="2.217"/>
			</g>
		</g>
		<g>
			<g>
				<circle fill="#00B0E9" cx="117.546" cy="336.798" r="2.069"/>
				<path fill="#00B0E9" d="M121.996,340.782c-0.08-0.897-0.826-1.604-1.744-1.604h-1.079h-1.079h-1.13h-1.08h-0.343h-0.702      c-0.918,0-1.664,0.706-1.744,1.604h-0.015v5.863c0,0.506,0.409,0.914,0.913,0.914c0.505,0,0.915-0.408,0.915-0.914v-4.33      c0.051,0.012,0.105,0.02,0.161,0.02h0.151c-0.011,0.063-0.019,0.125-0.019,0.189v13.797c0,0.609,0.494,1.104,1.104,1.104      c0.609,0,1.104-0.494,1.104-1.104v-6.346h0.274v6.346c0,0.609,0.495,1.104,1.104,1.104s1.104-0.494,1.104-1.104v-13.797      c0-0.064-0.009-0.127-0.02-0.189h0.313v4.277c0,0.504,0.409,0.913,0.914,0.913s0.913-0.409,0.913-0.913v-5.83H121.996z"/>
			</g>
		</g>
	</g>
	<g>
		<g>
			<g>
				<path fill="#00B0E9" d="M158.367,346.125l-1.685-4.982c-0.227-0.973-1.101-1.699-2.143-1.699h-2.878      c-0.894,0-1.664,0.533-2.008,1.299v0.001c-0.058,0.127-0.104,0.261-0.136,0.399l-1.685,4.982      c-0.143,0.424,0.084,0.884,0.507,1.027c0.424,0.143,0.883-0.084,1.026-0.508l1.555-4.597h0.266l-2.635,7.795h2.435v6.632      c0,0.547,0.445,0.991,0.992,0.991c0.548,0,0.992-0.444,0.992-0.991v-6.632h0.261v6.632c0,0.547,0.444,0.991,0.992,0.991      s0.994-0.444,0.994-0.991v-6.632h2.433l-2.634-7.795h0.266l1.553,4.597c0.144,0.424,0.603,0.65,1.026,0.508      C158.283,347.009,158.51,346.549,158.367,346.125z"/>
				<circle fill="#00B0E9" cx="153.1" cy="336.883" r="2.217"/>
			</g>
		</g>
		<g>
			<g>
				<circle fill="#00B0E9" cx="141.456" cy="336.798" r="2.069"/>
				<path fill="#00B0E9" d="M145.906,340.782c-0.08-0.897-0.826-1.604-1.744-1.604h-1.079h-1.079h-1.13h-1.08h-0.343h-0.702      c-0.918,0-1.664,0.706-1.744,1.604h-0.015v5.863c0,0.506,0.409,0.914,0.913,0.914c0.505,0,0.915-0.408,0.915-0.914v-4.33      c0.051,0.012,0.105,0.02,0.161,0.02h0.151c-0.011,0.063-0.019,0.125-0.019,0.189v13.797c0,0.609,0.494,1.104,1.104,1.104      c0.609,0,1.104-0.494,1.104-1.104v-6.346h0.274v6.346c0,0.609,0.495,1.104,1.104,1.104s1.104-0.494,1.104-1.104v-13.797      c0-0.064-0.009-0.127-0.02-0.189h0.313v4.277c0,0.504,0.409,0.913,0.914,0.913s0.913-0.409,0.913-0.913v-5.83H145.906z"/>
			</g>
		</g>
	</g>
</g>
<rect x="-183.14" y="-169.095" fill="#F59C00" width="33" height="33"/>
</svg>
