<?xml version="1.0" encoding="UTF-8" standalone="no"?>
<!-- Generator: Adobe Illustrator 16.0.0, SVG Export Plug-In . SVG Version: 6.00 Build 0)  -->

<svg
   xmlns:dc="http://purl.org/dc/elements/1.1/"
   xmlns:cc="http://creativecommons.org/ns#"
   xmlns:rdf="http://www.w3.org/1999/02/22-rdf-syntax-ns#"
   xmlns:svg="http://www.w3.org/2000/svg"
   xmlns="http://www.w3.org/2000/svg"
   xmlns:sodipodi="http://sodipodi.sourceforge.net/DTD/sodipodi-0.dtd"
   xmlns:inkscape="http://www.inkscape.org/namespaces/inkscape"
   version="1.1"
   id="Capa_1"
   x="0px"
   y="0px"
   width="893px"
   height="400px"
   viewBox="0 0 893 400"
   enable-background="new 0 0 893 400"
   xml:space="preserve"
   inkscape:version="0.91 r13725"
   sodipodi:docname="1b_copia.svg"><metadata
     id="metadata611"><rdf:RDF><cc:Work
         rdf:about=""><dc:format>image/svg+xml</dc:format><dc:type
           rdf:resource="http://purl.org/dc/dcmitype/StillImage" /></cc:Work></rdf:RDF></metadata><defs
     id="defs609" /><sodipodi:namedview
     pagecolor="#ffffff"
     bordercolor="#666666"
     borderopacity="1"
     objecttolerance="10"
     gridtolerance="10"
     guidetolerance="10"
     inkscape:pageopacity="0"
     inkscape:pageshadow="2"
     inkscape:window-width="1360"
     inkscape:window-height="739"
     id="namedview607"
     showgrid="false"
     inkscape:zoom="1.8589026"
     inkscape:cx="169.6021"
     inkscape:cy="111.17959"
     inkscape:window-x="1400"
     inkscape:window-y="282"
     inkscape:window-maximized="1"
     inkscape:current-layer="g185" /><text
     class="title"
     transform="matrix(1 0 0 1 48.1655 38.6797)"
     font-family="Roboto"
     font-size="30"
     id="text3">Una enfermedad letal pero poco contagiosa</text>
<text
     transform="matrix(1 0 0 1 512.4976 113.2954)"
     id="text5"><tspan
       class="labelV label"
       x="0"
       y="0"
       font-family="Roboto"
       font-size="18"
       id="tspan7">VIRUS:</tspan><tspan
       class="valueV"
       x="0"
       y="21.6"
       font-family="Roboto"
       font-size="18"
       id="tspan9">Ébola (brote 2014)</tspan><tspan
       class="labelL label"
       x="0"
       y="51.6"
       font-family="Roboto"
       font-size="18"
       id="tspan11">Letalidad</tspan><tspan
       class="valueL"
       x="0"
       y="73.2"
       fill="#F59C00"
       font-family="Roboto"
       font-size="18"
       id="tspan13">70%</tspan><tspan
       class="labelN1 label"
       x="0"
       y="103.2"
       font-family="Roboto"
       font-size="18"
       id="tspan15">número promedio de personas</tspan><tspan
       class="labelN2 label"
       x="0"
       y="124.8"
       font-family="Roboto"
       font-size="18"
       id="tspan17">que un enfermo puede infectar</tspan><tspan
       class="valueN"
       x="0"
       y="146.4"
       fill="#00B0E9"
       font-family="Roboto"
       font-size="18"
       id="tspan19">1,5-2,5</tspan><tspan
       class="labelT label"
       x="0"
       y="176.4"
       font-family="Roboto"
       font-size="18"
       id="tspan21">Transmisión</tspan><tspan
       class="valueT"
       x="0"
       y="198"
       font-family="Roboto"
       font-size="18"
       id="tspan23">Contacto con fluidos corporales</tspan></text>
<g
     id="g25"><g
       id="g27"><g
         id="g29"><text
           transform="matrix(0.75 0 0 1 62.8496 377.2095)"
           fill="#575756"
           font-family="Roboto"
           font-size="12"
           id="text31">0%</text>
<text
           transform="matrix(0.75 0 0 1 143.6411 377.2095)"
           fill="#575756"
           font-family="Roboto"
           font-size="12"
           id="text33">20%</text>
<text
           transform="matrix(0.75 0 0 1 226.7417 377.2095)"
           fill="#575756"
           font-family="Roboto"
           font-size="12"
           id="text35">40%</text>
<text
           transform="matrix(0.75 0 0 1 309.8413 377.2095)"
           fill="#575756"
           font-family="Roboto"
           font-size="12"
           id="text37">60%</text>
<text
           transform="matrix(0.75 0 0 1 392.9414 377.2095)"
           fill="#575756"
           font-family="Roboto"
           font-size="12"
           id="text39">80%</text>
<text
           transform="matrix(0.75 0 0 1 473.7329 377.2095)"
           fill="#575756"
           font-family="Roboto"
           font-size="12"
           id="text41">100%</text>
</g><line
         fill="#F59C00"
         stroke="#000000"
         stroke-width="0.866"
         stroke-miterlimit="10"
         x1="68.722"
         y1="361.045"
         x2="484.221"
         y2="361.045"
         id="line43" /><g
         id="g45"><g
           id="g47"><line
             fill="#F59C00"
             stroke="#000000"
             stroke-width="0.866"
             stroke-miterlimit="10"
             x1="68.722"
             y1="361.045"
             x2="68.722"
             y2="353.545"
             id="line49" /><line
             fill="#F59C00"
             stroke="#000000"
             stroke-width="0.866"
             stroke-miterlimit="10"
             x1="151.822"
             y1="361.045"
             x2="151.822"
             y2="353.545"
             id="line51" /><line
             fill="#F59C00"
             stroke="#000000"
             stroke-width="0.866"
             stroke-miterlimit="10"
             x1="234.922"
             y1="361.045"
             x2="234.922"
             y2="353.545"
             id="line53" /><line
             fill="#F59C00"
             stroke="#000000"
             stroke-width="0.866"
             stroke-miterlimit="10"
             x1="318.022"
             y1="361.045"
             x2="318.022"
             y2="353.545"
             id="line55" /><line
             fill="#F59C00"
             stroke="#000000"
             stroke-width="0.866"
             stroke-miterlimit="10"
             x1="401.122"
             y1="361.045"
             x2="401.122"
             y2="353.545"
             id="line57" /><line
             fill="#F59C00"
             stroke="#000000"
             stroke-width="0.866"
             stroke-miterlimit="10"
             x1="484.221"
             y1="361.045"
             x2="484.221"
             y2="353.545"
             id="line59" /></g><g
           id="g61" /></g></g><g
       id="g63"><line
         fill="#F59C00"
         stroke="#000000"
         stroke-width="0.866"
         stroke-miterlimit="10"
         x1="68.722"
         y1="361.045"
         x2="68.722"
         y2="61.045"
         id="line65" /><g
         id="g67"><g
           id="g69"><line
             fill="#F59C00"
             stroke="#000000"
             stroke-width="0.866"
             stroke-miterlimit="10"
             x1="68.722"
             y1="346.045"
             x2="79.109"
             y2="346.045"
             id="line71" /><line
             fill="#F59C00"
             stroke="#000000"
             stroke-width="0.866"
             stroke-miterlimit="10"
             x1="68.722"
             y1="316.045"
             x2="79.109"
             y2="316.045"
             id="line73" /><line
             fill="#F59C00"
             stroke="#000000"
             stroke-width="0.866"
             stroke-miterlimit="10"
             x1="68.722"
             y1="286.045"
             x2="79.109"
             y2="286.045"
             id="line75" /><line
             fill="#F59C00"
             stroke="#000000"
             stroke-width="0.866"
             stroke-miterlimit="10"
             x1="68.722"
             y1="256.045"
             x2="79.109"
             y2="256.045"
             id="line77" /><line
             fill="#F59C00"
             stroke="#000000"
             stroke-width="0.866"
             stroke-miterlimit="10"
             x1="68.722"
             y1="226.045"
             x2="79.109"
             y2="226.045"
             id="line79" /><line
             fill="#F59C00"
             stroke="#000000"
             stroke-width="0.866"
             stroke-miterlimit="10"
             x1="68.722"
             y1="196.045"
             x2="79.109"
             y2="196.045"
             id="line81" /><line
             fill="#F59C00"
             stroke="#000000"
             stroke-width="0.866"
             stroke-miterlimit="10"
             x1="68.722"
             y1="166.045"
             x2="79.109"
             y2="166.045"
             id="line83" /><line
             fill="#F59C00"
             stroke="#000000"
             stroke-width="0.866"
             stroke-miterlimit="10"
             x1="68.722"
             y1="136.045"
             x2="79.109"
             y2="136.045"
             id="line85" /><line
             fill="#F59C00"
             stroke="#000000"
             stroke-width="0.866"
             stroke-miterlimit="10"
             x1="68.722"
             y1="106.045"
             x2="79.109"
             y2="106.045"
             id="line87" /><line
             fill="#F59C00"
             stroke="#000000"
             stroke-width="0.866"
             stroke-miterlimit="10"
             x1="68.722"
             y1="76.045"
             x2="79.109"
             y2="76.045"
             id="line89" /></g><g
           id="g91" /></g></g><g
       id="g93"><g
         id="g95"><rect
           x="526.834"
           y="65.789"
           fill="none"
           width="51.938"
           height="30"
           id="rect97" /><g
           id="g99"><rect
             class="ebola"
             x="68.722"
             y="65.245"
             fill="#F59C00"
             width="290.85"
             height="21.6"
             id="rect101" /><rect
             class="hiv"
             x="68.722"
             y="95.245"
             fill="#F59C00"
             width="353.175"
             height="21.6"
             id="rect103" /><rect
             class="viruela"
             x="68.722"
             y="125.245"
             fill="#F59C00"
             width="124.65"
             height="21.6"
             id="rect105" /><rect
             class="mers"
             x="68.722"
             y="155.245"
             fill="#F59C00"
             width="145.425"
             height="21.6"
             id="rect107" /><rect
             class="sars"
             x="68.722"
             y="185.245"
             fill="#F59C00"
             width="45.705"
             height="21.599"
             id="rect109" /><rect
             class="influenza"
             x="68.722"
             y="215.245"
             fill="#F59C00"
             width="10.387"
             height="21.6"
             id="rect111" /><rect
             class="polio"
             x="68.722"
             y="245.245"
             fill="#F59C00"
             width="20.775"
             height="21.6"
             id="rect113" /><rect
             class="inluenza_e"
             x="68.722"
             y="275.245"
             fill="#F59C00"
             stroke="#000000"
             stroke-width="0.433"
             stroke-miterlimit="10"
             width="0.021"
             height="21.6"
             id="rect115" /><rect
             class="sarampion"
             x="68.722"
             y="305.245"
             fill="#F59C00"
             width="0.623"
             height="21.6"
             id="rect117" /><rect
             class="varicela"
             x="68.722"
             y="335.245"
             fill="#F59C00"
             stroke="#000000"
             stroke-width="0.433"
             stroke-miterlimit="10"
             width="0.004"
             height="21.6"
             id="rect119" /></g></g></g><g
       id="g121"><g
         id="g123" /></g><g
       id="g125"><text
         class="varicela"
         transform="matrix(0.75 0 0 1 65 350.7837)"
         id="text127" text-anchor="end"><tspan
           x="0"
           y="0"
           font-family="Roboto"
           font-size="14"
           id="tspan129">Varicela</tspan></text>
<text
         class="sarampion"
         transform="matrix(0.75 0 0 1 65 320.7837)"
         text-anchor="end"
         id="text131"><tspan
           x="0"
           y="0"
           font-family="Roboto"
           font-size="14"
           id="tspan133">Sarampión</tspan></text>
<text
         class="influenza_e"
         transform="matrix(0.75 0 0 1 65 281.7837)"
         text-anchor="end"
         id="text135"><tspan
           class="influenza_e1"
           x="0"
           y="0"
           font-family="Roboto"
           font-size="14"
           id="tspan137">Influenza</tspan><tspan
           class="influenza_e2"
           x="0"
           y="14"
           font-family="Roboto"
           font-size="14"
           id="tspan139">estacional</tspan></text>
<text
         class="polio"
         transform="matrix(0.75 0 0 1 65 260.7837)"
         text-anchor="end"
         id="text141"><tspan
           x="0"
           y="0"
           font-family="Roboto"
           font-size="14"
           id="tspan143">Polio</tspan></text>
<text
         class="influenza"
         transform="matrix(0.75 0 0 1 65 230.7837)"
         text-anchor="end"
         id="text145"><tspan
           x="0"
           y="0"
           font-family="Roboto"
           font-size="14"
           id="tspan147">Influenza</tspan></text>
<text
         class="sars"
         transform="matrix(0.75 0 0 1 65 200.7837)"
         text-anchor="end"
         font-family="Roboto"
         font-size="14"
         id="text149"><tspan
           x="0"
           y="0"
           font-family="Roboto"
           font-size="14"
           id="tspan151">SARS</tspan></text>
<text
         class="mers"
         transform="matrix(0.75 0 0 1 65 170.7832)"
         text-anchor="end"
         font-family="Roboto"
         font-size="14"
         id="text153"><tspan
           x="0"
           y="0"
           font-family="Roboto"
           font-size="14"
           id="tspan155">MERS</tspan></text>
<text
         class="viruela"
         transform="matrix(0.75 0 0 1 65 140.7832)"
         text-anchor="end"
         id="text157"><tspan
           x="0"
           y="0"
           font-family="Roboto"
           font-size="14"
           id="tspan159">Viruela</tspan></text>
<text
         class="hiv"
         transform="matrix(0.75 0 0 1 65 110.7832)"
         text-anchor="end"
         font-family="Roboto"
         font-size="14"
         id="text161"><tspan
           x="0"
           y="0"
           font-family="Roboto"
           font-size="14"
           id="tspan163">HIV</tspan></text>
<text
         class="ebola"
         transform="matrix(0.75 0 0 1 65 80.7832)"
         text-anchor="end"
         font-family="Roboto"
         font-size="14"
         id="text165"><tspan
           x="0"
           y="0"
           font-family="Roboto"
           font-size="14"
           id="tspan167">Ébola</tspan></text>
</g></g><g
     id="g3939"
     class="ebola"><g
       id="g169"><g
         id="g171"><path
           id="path173"
           d="M 97.276,76.238 95.591,71.255 C 95.364,70.282 94.49,69.556 93.448,69.556 l -2.878,0 c -0.894,0 -1.664,0.534 -2.008,1.299 l 0,10e-4 c -0.058,0.127 -0.104,0.261 -0.136,0.399 l -1.685,4.983 c -0.143,0.423 0.084,0.883 0.507,1.026 0.424,0.144 0.883,-0.083 1.026,-0.507 l 1.555,-4.597 0.266,0 -2.635,7.795 2.435,0 0,6.631 c 0,0.548 0.445,0.992 0.992,0.992 0.548,0 0.992,-0.444 0.992,-0.992 l 0,-6.631 0.261,0 0,6.631 c 0,0.548 0.444,0.992 0.992,0.992 0.548,0 0.994,-0.444 0.994,-0.992 l 0,-6.631 2.433,0 -2.634,-7.795 0.266,0 1.553,4.597 c 0.144,0.424 0.603,0.651 1.026,0.507 0.422,-0.143 0.65,-0.603 0.506,-1.026 z"
           inkscape:connector-curvature="0"
           style="fill:#00b0e9" /><circle
           id="circle175"
           r="2.217"
           cy="66.995003"
           cx="92.009003"
           style="fill:#00b0e9" /></g></g><g
       id="g177"><g
         id="g179"><circle
           id="circle181"
           r="2.069"
           cy="66.910004"
           cx="80.364998"
           style="fill:#00b0e9" /><path
           id="path183"
           d="M 84.815,70.894 C 84.735,69.996 83.989,69.29 83.071,69.29 l -1.079,0 -1.079,0 -1.13,0 -1.08,0 -0.343,0 -0.702,0 c -0.918,0 -1.664,0.706 -1.744,1.604 l -0.015,0 0,5.863 c 0,0.505 0.409,0.914 0.913,0.914 0.505,0 0.915,-0.409 0.915,-0.914 l 0,-4.33 c 0.051,0.012 0.105,0.019 0.161,0.019 l 0.151,0 c -0.011,0.062 -0.019,0.125 -0.019,0.189 l 0,13.797 c 0,0.609 0.494,1.104 1.104,1.104 0.609,0 1.104,-0.494 1.104,-1.104 l 0,-6.346 0.274,0 0,6.346 c 0,0.609 0.495,1.104 1.104,1.104 0.609,0 1.104,-0.494 1.104,-1.104 l 0,-13.797 c 0,-0.064 -0.009,-0.127 -0.02,-0.189 l 0.313,0 0,4.277 c 0,0.504 0.409,0.914 0.914,0.914 0.505,0 0.913,-0.409 0.913,-0.914 l 0,-5.829 -0.015,0 z"
           inkscape:connector-curvature="0"
           style="fill:#00b0e9" /></g></g></g><g
     id="g185"><g
       id="g3949"
       class="hiv"><g
         id="g187"><g
           id="g189"><g
             id="g191"><path
               id="path193"
               d="m 97.367,106.376 -1.685,-4.983 c -0.227,-0.973 -1.101,-1.699 -2.143,-1.699 l -2.878,0 c -0.894,0 -1.664,0.534 -2.008,1.299 l 0,0.001 c -0.058,0.127 -0.104,0.261 -0.136,0.399 l -1.685,4.983 c -0.143,0.423 0.084,0.883 0.507,1.026 0.424,0.144 0.883,-0.083 1.026,-0.507 l 1.555,-4.597 0.266,0 -2.635,7.795 2.435,0 0,6.631 c 0,0.548 0.445,0.992 0.992,0.992 0.548,0 0.992,-0.444 0.992,-0.992 l 0,-6.631 0.261,0 0,6.631 c 0,0.548 0.444,0.992 0.992,0.992 0.548,0 0.994,-0.444 0.994,-0.992 l 0,-6.631 2.433,0 -2.634,-7.795 0.266,0 1.553,4.597 c 0.144,0.424 0.603,0.651 1.026,0.507 0.422,-0.143 0.649,-0.603 0.506,-1.026 z"
               inkscape:connector-curvature="0"
               style="fill:#00b0e9" /><circle
               id="circle195"
               r="2.217"
               cy="97.133003"
               cx="92.099998"
               style="fill:#00b0e9" /></g></g><g
           id="g197"><g
             id="g199"><circle
               id="circle201"
               r="2.069"
               cy="97.049004"
               cx="80.456001"
               style="fill:#00b0e9" /><path
               id="path203"
               d="m 84.906,101.032 c -0.08,-0.898 -0.826,-1.604 -1.744,-1.604 l -1.079,0 -1.079,0 -1.13,0 -1.08,0 -0.343,0 -0.702,0 c -0.918,0 -1.664,0.706 -1.744,1.604 l -0.015,0 0,5.863 c 0,0.505 0.409,0.914 0.913,0.914 0.505,0 0.915,-0.409 0.915,-0.914 l 0,-4.33 c 0.051,0.012 0.105,0.019 0.161,0.019 l 0.151,0 c -0.011,0.062 -0.019,0.125 -0.019,0.189 l 0,13.797 c 0,0.609 0.494,1.104 1.104,1.104 0.609,0 1.104,-0.494 1.104,-1.104 l 0,-6.346 0.274,0 0,6.346 c 0,0.609 0.495,1.104 1.104,1.104 0.609,0 1.104,-0.494 1.104,-1.104 l 0,-13.797 c 0,-0.064 -0.009,-0.127 -0.02,-0.189 l 0.313,0 0,4.277 c 0,0.504 0.409,0.914 0.914,0.914 0.505,0 0.913,-0.409 0.913,-0.914 l 0,-5.829 -0.015,0 z"
               inkscape:connector-curvature="0"
               style="fill:#00b0e9" /></g></g></g><g
         id="g205"><g
           id="g207"><g
             id="g209"><path
               id="path211"
               d="m 121.276,106.376 -1.685,-4.983 c -0.227,-0.973 -1.101,-1.699 -2.143,-1.699 l -2.878,0 c -0.894,0 -1.664,0.534 -2.008,1.299 l 0,0.001 c -0.058,0.127 -0.104,0.261 -0.136,0.399 l -1.685,4.983 c -0.143,0.423 0.084,0.883 0.507,1.026 0.424,0.144 0.883,-0.083 1.026,-0.507 l 1.555,-4.597 0.266,0 -2.635,7.795 2.435,0 0,6.631 c 0,0.548 0.445,0.992 0.992,0.992 0.548,0 0.992,-0.444 0.992,-0.992 l 0,-6.631 0.261,0 0,6.631 c 0,0.548 0.444,0.992 0.992,0.992 0.548,0 0.994,-0.444 0.994,-0.992 l 0,-6.631 2.433,0 -2.634,-7.795 0.266,0 1.553,4.597 c 0.144,0.424 0.603,0.651 1.026,0.507 0.422,-0.143 0.65,-0.603 0.506,-1.026 z"
               inkscape:connector-curvature="0"
               style="fill:#00b0e9" /><circle
               id="circle213"
               r="2.217"
               cy="97.133003"
               cx="116.009"
               style="fill:#00b0e9" /></g></g><g
           id="g215"><g
             id="g217"><circle
               id="circle219"
               r="2.069"
               cy="97.049004"
               cx="104.365"
               style="fill:#00b0e9" /><path
               id="path221"
               d="m 108.815,101.032 c -0.08,-0.898 -0.826,-1.604 -1.744,-1.604 l -1.079,0 -1.079,0 -1.13,0 -1.08,0 -0.343,0 -0.702,0 c -0.918,0 -1.664,0.706 -1.744,1.604 l -0.015,0 0,5.863 c 0,0.505 0.409,0.914 0.913,0.914 0.505,0 0.915,-0.409 0.915,-0.914 l 0,-4.33 c 0.051,0.012 0.105,0.019 0.161,0.019 l 0.151,0 c -0.011,0.062 -0.019,0.125 -0.019,0.189 l 0,13.797 c 0,0.609 0.494,1.104 1.104,1.104 0.609,0 1.104,-0.494 1.104,-1.104 l 0,-6.346 0.274,0 0,6.346 c 0,0.609 0.495,1.104 1.104,1.104 0.609,0 1.104,-0.494 1.104,-1.104 l 0,-13.797 c 0,-0.064 -0.009,-0.127 -0.02,-0.189 l 0.313,0 0,4.277 c 0,0.504 0.409,0.914 0.914,0.914 0.505,0 0.913,-0.409 0.913,-0.914 l 0,-5.829 -0.015,0 z"
               inkscape:connector-curvature="0"
               style="fill:#00b0e9" /></g></g></g></g><g
       id="g3969"
       class="viruela"><g
         id="g223"><g
           id="g225"><g
             id="g227"><path
               id="path229"
               d="m 97.611,136.126 -1.685,-4.983 c -0.227,-0.973 -1.101,-1.699 -2.143,-1.699 l -2.878,0 c -0.894,0 -1.664,0.534 -2.008,1.299 l 0,0.001 c -0.058,0.127 -0.104,0.261 -0.136,0.399 l -1.685,4.983 c -0.143,0.423 0.084,0.883 0.507,1.026 0.424,0.144 0.883,-0.083 1.026,-0.507 l 1.555,-4.597 0.266,0 -2.635,7.795 2.435,0 0,6.631 c 0,0.548 0.445,0.992 0.992,0.992 0.548,0 0.992,-0.444 0.992,-0.992 l 0,-6.631 0.261,0 0,6.631 c 0,0.548 0.444,0.992 0.992,0.992 0.548,0 0.994,-0.444 0.994,-0.992 l 0,-6.631 2.433,0 -2.634,-7.795 0.266,0 1.553,4.597 c 0.144,0.424 0.603,0.651 1.026,0.507 0.422,-0.143 0.65,-0.603 0.506,-1.026 z"
               inkscape:connector-curvature="0"
               style="fill:#00b0e9" /><circle
               id="circle231"
               r="2.217"
               cy="126.883"
               cx="92.344002"
               style="fill:#00b0e9" /></g></g><g
           id="g233"><g
             id="g235"><circle
               id="circle237"
               r="2.069"
               cy="126.799"
               cx="80.699997"
               style="fill:#00b0e9" /><path
               id="path239"
               d="m 85.15,130.782 c -0.08,-0.898 -0.826,-1.604 -1.744,-1.604 l -1.079,0 -1.079,0 -1.13,0 -1.08,0 -0.343,0 -0.702,0 c -0.918,0 -1.664,0.706 -1.744,1.604 l -0.015,0 0,5.863 c 0,0.505 0.409,0.914 0.913,0.914 0.505,0 0.915,-0.409 0.915,-0.914 l 0,-4.33 c 0.051,0.012 0.105,0.019 0.161,0.019 l 0.151,0 c -0.011,0.062 -0.019,0.125 -0.019,0.189 l 0,13.797 c 0,0.609 0.494,1.104 1.104,1.104 0.609,0 1.104,-0.494 1.104,-1.104 l 0,-6.346 0.274,0 0,6.346 c 0,0.609 0.495,1.104 1.104,1.104 0.609,0 1.104,-0.494 1.104,-1.104 l 0,-13.797 c 0,-0.064 -0.009,-0.127 -0.02,-0.189 l 0.313,0 0,4.277 c 0,0.504 0.409,0.914 0.914,0.914 0.505,0 0.913,-0.409 0.913,-0.914 l 0,-5.829 -0.015,0 z"
               inkscape:connector-curvature="0"
               style="fill:#00b0e9" /></g></g></g><g
         id="g241"><g
           id="g243"><g
             id="g245"><path
               id="path247"
               d="m 121.521,136.126 -1.685,-4.983 c -0.227,-0.973 -1.101,-1.699 -2.143,-1.699 l -2.878,0 c -0.894,0 -1.664,0.534 -2.008,1.299 l 0,0.001 c -0.058,0.127 -0.104,0.261 -0.136,0.399 l -1.685,4.983 c -0.143,0.423 0.084,0.883 0.507,1.026 0.424,0.144 0.883,-0.083 1.026,-0.507 l 1.555,-4.597 0.266,0 -2.635,7.795 2.435,0 0,6.631 c 0,0.548 0.445,0.992 0.992,0.992 0.548,0 0.992,-0.444 0.992,-0.992 l 0,-6.631 0.261,0 0,6.631 c 0,0.548 0.444,0.992 0.992,0.992 0.548,0 0.994,-0.444 0.994,-0.992 l 0,-6.631 2.433,0 -2.634,-7.795 0.266,0 1.553,4.597 c 0.144,0.424 0.603,0.651 1.026,0.507 0.422,-0.143 0.65,-0.603 0.506,-1.026 z"
               inkscape:connector-curvature="0"
               style="fill:#00b0e9" /><circle
               id="circle249"
               r="2.217"
               cy="126.883"
               cx="116.254"
               style="fill:#00b0e9" /></g></g><g
           id="g251"><g
             id="g253"><circle
               id="circle255"
               r="2.069"
               cy="126.799"
               cx="104.61"
               style="fill:#00b0e9" /><path
               id="path257"
               d="m 109.06,130.782 c -0.08,-0.898 -0.826,-1.604 -1.744,-1.604 l -1.079,0 -1.079,0 -1.13,0 -1.08,0 -0.343,0 -0.702,0 c -0.918,0 -1.664,0.706 -1.744,1.604 l -0.015,0 0,5.863 c 0,0.505 0.409,0.914 0.913,0.914 0.505,0 0.915,-0.409 0.915,-0.914 l 0,-4.33 c 0.051,0.012 0.105,0.019 0.161,0.019 l 0.151,0 c -0.011,0.062 -0.019,0.125 -0.019,0.189 l 0,13.797 c 0,0.609 0.494,1.104 1.104,1.104 0.609,0 1.104,-0.494 1.104,-1.104 l 0,-6.346 0.274,0 0,6.346 c 0,0.609 0.495,1.104 1.104,1.104 0.609,0 1.104,-0.494 1.104,-1.104 l 0,-13.797 c 0,-0.064 -0.009,-0.127 -0.02,-0.189 l 0.313,0 0,4.277 c 0,0.504 0.409,0.914 0.914,0.914 0.505,0 0.913,-0.409 0.913,-0.914 l 0,-5.829 -0.015,0 z"
               inkscape:connector-curvature="0"
               style="fill:#00b0e9" /></g></g></g><g
         id="g259"><g
           id="g261"><circle
             id="circle263"
             r="2.069"
             cy="126.735"
             cx="129.12"
             style="fill:#00b0e9" /><path
             id="path265"
             d="m 133.57,130.719 c -0.08,-0.898 -0.826,-1.604 -1.744,-1.604 l -1.079,0 -1.079,0 -1.13,0 -1.08,0 -0.343,0 -0.702,0 c -0.918,0 -1.664,0.706 -1.744,1.604 l -0.015,0 0,5.863 c 0,0.505 0.409,0.914 0.913,0.914 0.505,0 0.915,-0.409 0.915,-0.914 l 0,-4.33 c 0.051,0.012 0.105,0.019 0.161,0.019 l 0.151,0 c -0.011,0.062 -0.019,0.125 -0.019,0.189 l 0,13.797 c 0,0.609 0.494,1.104 1.104,1.104 0.609,0 1.104,-0.494 1.104,-1.104 l 0,-6.346 0.274,0 0,6.346 c 0,0.609 0.495,1.104 1.104,1.104 0.609,0 1.104,-0.494 1.104,-1.104 l 0,-13.797 c 0,-0.064 -0.009,-0.127 -0.02,-0.189 l 0.313,0 0,4.277 c 0,0.504 0.409,0.914 0.914,0.914 0.505,0 0.913,-0.409 0.913,-0.914 l 0,-5.829 -0.015,0 z"
             inkscape:connector-curvature="0"
             style="fill:#00b0e9" /></g></g></g><g
       id="g267"
       class="mers"><g
         id="g269"><circle
           cx="80.364998"
           cy="157.235"
           r="2.069"
           id="circle271"
           style="fill:#00b0e9" /><path
           d="m 84.815,161.219 c -0.08,-0.898 -0.826,-1.604 -1.744,-1.604 l -1.079,0 -1.079,0 -1.13,0 -1.08,0 -0.343,0 -0.702,0 c -0.918,0 -1.664,0.706 -1.744,1.604 l -0.015,0 0,5.863 c 0,0.505 0.409,0.914 0.913,0.914 0.505,0 0.915,-0.409 0.915,-0.914 l 0,-4.33 c 0.051,0.012 0.105,0.019 0.161,0.019 l 0.151,0 c -0.011,0.062 -0.019,0.125 -0.019,0.189 l 0,13.797 c 0,0.609 0.494,1.104 1.104,1.104 0.609,0 1.104,-0.494 1.104,-1.104 l 0,-6.346 0.274,0 0,6.346 c 0,0.609 0.495,1.104 1.104,1.104 0.609,0 1.104,-0.494 1.104,-1.104 l 0,-13.797 c 0,-0.064 -0.009,-0.127 -0.02,-0.189 l 0.313,0 0,4.277 c 0,0.504 0.409,0.914 0.914,0.914 0.505,0 0.913,-0.409 0.913,-0.914 l 0,-5.829 -0.015,0 z"
           id="path273"
           inkscape:connector-curvature="0"
           style="fill:#00b0e9" /></g></g><g
       id="g3993"
       class="sars"><g
         id="g275"><g
           id="g277"><g
             id="g279"><path
               id="path281"
               d="m 98.367,196.625 -1.685,-4.982 c -0.227,-0.973 -1.101,-1.699 -2.143,-1.699 l -2.878,0 c -0.894,0 -1.664,0.534 -2.008,1.299 l 0,0.001 c -0.058,0.127 -0.104,0.261 -0.136,0.399 l -1.685,4.982 c -0.143,0.424 0.084,0.884 0.507,1.027 0.424,0.143 0.883,-0.084 1.026,-0.508 l 1.555,-4.597 0.266,0 -2.635,7.795 2.435,0 0,6.632 c 0,0.547 0.445,0.991 0.992,0.991 0.548,0 0.992,-0.444 0.992,-0.991 l 0,-6.632 0.261,0 0,6.632 c 0,0.547 0.444,0.991 0.992,0.991 0.548,0 0.994,-0.444 0.994,-0.991 l 0,-6.632 2.433,0 -2.634,-7.795 0.266,0 1.553,4.597 c 0.144,0.424 0.603,0.65 1.026,0.508 0.422,-0.143 0.649,-0.603 0.506,-1.027 z"
               inkscape:connector-curvature="0"
               style="fill:#00b0e9" /><circle
               id="circle283"
               r="2.217"
               cy="187.383"
               cx="93.099998"
               style="fill:#00b0e9" /></g></g><g
           id="g285"><g
             id="g287"><circle
               id="circle289"
               r="2.069"
               cy="187.299"
               cx="81.456001"
               style="fill:#00b0e9" /><path
               id="path291"
               d="m 85.906,191.282 c -0.08,-0.898 -0.826,-1.604 -1.744,-1.604 l -1.079,0 -1.079,0 -1.13,0 -1.08,0 -0.343,0 -0.702,0 c -0.918,0 -1.664,0.706 -1.744,1.604 l -0.015,0 0,5.863 c 0,0.506 0.409,0.914 0.913,0.914 0.505,0 0.915,-0.408 0.915,-0.914 l 0,-4.33 c 0.051,0.012 0.105,0.019 0.161,0.019 l 0.151,0 c -0.011,0.062 -0.019,0.125 -0.019,0.189 l 0,13.797 c 0,0.609 0.494,1.104 1.104,1.104 0.609,0 1.104,-0.494 1.104,-1.104 l 0,-6.346 0.274,0 0,6.346 c 0,0.609 0.495,1.104 1.104,1.104 0.609,0 1.104,-0.494 1.104,-1.104 l 0,-13.797 c 0,-0.064 -0.009,-0.127 -0.02,-0.189 l 0.313,0 0,4.277 c 0,0.504 0.409,0.913 0.914,0.913 0.505,0 0.913,-0.409 0.913,-0.913 l 0,-5.83 -0.015,0 z"
               inkscape:connector-curvature="0"
               style="fill:#00b0e9" /></g></g></g><g
         id="g293"><g
           id="g295"><g
             id="g297"><path
               id="path299"
               d="m 122.276,196.625 -1.685,-4.982 c -0.227,-0.973 -1.101,-1.699 -2.143,-1.699 l -2.878,0 c -0.894,0 -1.664,0.534 -2.008,1.299 l 0,0.001 c -0.058,0.127 -0.104,0.261 -0.136,0.399 l -1.685,4.982 c -0.143,0.424 0.084,0.884 0.507,1.027 0.424,0.143 0.883,-0.084 1.026,-0.508 l 1.555,-4.597 0.266,0 -2.635,7.795 2.435,0 0,6.632 c 0,0.547 0.445,0.991 0.992,0.991 0.548,0 0.992,-0.444 0.992,-0.991 l 0,-6.632 0.261,0 0,6.632 c 0,0.547 0.444,0.991 0.992,0.991 0.548,0 0.994,-0.444 0.994,-0.991 l 0,-6.632 2.433,0 -2.634,-7.795 0.266,0 1.553,4.597 c 0.144,0.424 0.603,0.65 1.026,0.508 0.422,-0.143 0.65,-0.603 0.506,-1.027 z"
               inkscape:connector-curvature="0"
               style="fill:#00b0e9" /><circle
               id="circle301"
               r="2.217"
               cy="187.383"
               cx="117.009"
               style="fill:#00b0e9" /></g></g><g
           id="g303"><g
             id="g305"><circle
               id="circle307"
               r="2.069"
               cy="187.299"
               cx="105.365"
               style="fill:#00b0e9" /><path
               id="path309"
               d="m 109.815,191.282 c -0.08,-0.898 -0.826,-1.604 -1.744,-1.604 l -1.079,0 -1.079,0 -1.13,0 -1.08,0 -0.343,0 -0.702,0 c -0.918,0 -1.664,0.706 -1.744,1.604 l -0.015,0 0,5.863 c 0,0.506 0.409,0.914 0.913,0.914 0.505,0 0.915,-0.408 0.915,-0.914 l 0,-4.33 c 0.051,0.012 0.105,0.019 0.161,0.019 l 0.151,0 c -0.011,0.062 -0.019,0.125 -0.019,0.189 l 0,13.797 c 0,0.609 0.494,1.104 1.104,1.104 0.609,0 1.104,-0.494 1.104,-1.104 l 0,-6.346 0.274,0 0,6.346 c 0,0.609 0.495,1.104 1.104,1.104 0.609,0 1.104,-0.494 1.104,-1.104 l 0,-13.797 c 0,-0.064 -0.009,-0.127 -0.02,-0.189 l 0.313,0 0,4.277 c 0,0.504 0.409,0.913 0.914,0.913 0.505,0 0.913,-0.409 0.913,-0.913 l 0,-5.83 -0.015,0 z"
               inkscape:connector-curvature="0"
               style="fill:#00b0e9" /></g></g></g></g><g
       id="g4013"
       class="influenza"><g
         id="g311"><g
           id="g313"><g
             id="g315"><path
               id="path317"
               d="m 98.367,226.625 -1.685,-4.982 c -0.227,-0.973 -1.101,-1.699 -2.143,-1.699 l -2.878,0 c -0.894,0 -1.664,0.533 -2.008,1.299 l 0,0.001 c -0.058,0.127 -0.104,0.261 -0.136,0.399 l -1.685,4.982 c -0.143,0.424 0.084,0.884 0.507,1.027 0.424,0.143 0.883,-0.084 1.026,-0.508 l 1.555,-4.597 0.266,0 -2.635,7.795 2.435,0 0,6.632 c 0,0.547 0.445,0.991 0.992,0.991 0.548,0 0.992,-0.444 0.992,-0.991 l 0,-6.632 0.261,0 0,6.632 c 0,0.547 0.444,0.991 0.992,0.991 0.548,0 0.994,-0.444 0.994,-0.991 l 0,-6.632 2.433,0 -2.634,-7.795 0.266,0 1.553,4.597 c 0.144,0.424 0.603,0.65 1.026,0.508 0.422,-0.143 0.649,-0.603 0.506,-1.027 z"
               inkscape:connector-curvature="0"
               style="fill:#00b0e9" /><circle
               id="circle319"
               r="2.217"
               cy="217.383"
               cx="93.099998"
               style="fill:#00b0e9" /></g></g><g
           id="g321"><g
             id="g323"><circle
               id="circle325"
               r="2.069"
               cy="217.298"
               cx="81.456001"
               style="fill:#00b0e9" /><path
               id="path327"
               d="m 85.906,221.282 c -0.08,-0.897 -0.826,-1.604 -1.744,-1.604 l -1.079,0 -1.079,0 -1.13,0 -1.08,0 -0.343,0 -0.702,0 c -0.918,0 -1.664,0.706 -1.744,1.604 l -0.015,0 0,5.863 c 0,0.506 0.409,0.914 0.913,0.914 0.505,0 0.915,-0.408 0.915,-0.914 l 0,-4.33 c 0.051,0.012 0.105,0.02 0.161,0.02 l 0.151,0 c -0.011,0.063 -0.019,0.125 -0.019,0.189 l 0,13.797 c 0,0.609 0.494,1.104 1.104,1.104 0.609,0 1.104,-0.494 1.104,-1.104 l 0,-6.346 0.274,0 0,6.346 c 0,0.609 0.495,1.104 1.104,1.104 0.609,0 1.104,-0.494 1.104,-1.104 l 0,-13.797 c 0,-0.064 -0.009,-0.127 -0.02,-0.189 l 0.313,0 0,4.277 c 0,0.504 0.409,0.913 0.914,0.913 0.505,0 0.913,-0.409 0.913,-0.913 l 0,-5.83 -0.015,0 z"
               inkscape:connector-curvature="0"
               style="fill:#00b0e9" /></g></g></g><g
         id="g329"><g
           id="g331"><circle
             id="circle333"
             r="2.069"
             cy="217.235"
             cx="105.365"
             style="fill:#00b0e9" /><path
             id="path335"
             d="m 109.815,221.219 c -0.08,-0.898 -0.826,-1.604 -1.744,-1.604 l -1.079,0 -1.079,0 -1.13,0 -1.08,0 -0.343,0 -0.702,0 c -0.918,0 -1.664,0.705 -1.744,1.604 l -0.015,0 0,5.863 c 0,0.504 0.409,0.914 0.913,0.914 0.505,0 0.915,-0.41 0.915,-0.914 l 0,-4.33 c 0.051,0.012 0.105,0.019 0.161,0.019 l 0.151,0 c -0.011,0.062 -0.019,0.124 -0.019,0.188 l 0,13.797 c 0,0.609 0.494,1.104 1.104,1.104 0.609,0 1.104,-0.494 1.104,-1.104 l 0,-6.346 0.274,0 0,6.346 c 0,0.609 0.495,1.104 1.104,1.104 0.609,0 1.104,-0.494 1.104,-1.104 l 0,-13.797 c 0,-0.064 -0.009,-0.127 -0.02,-0.188 l 0.313,0 0,4.276 c 0,0.505 0.409,0.914 0.914,0.914 0.505,0 0.913,-0.409 0.913,-0.914 l 0,-5.828 -0.015,0 z"
             inkscape:connector-curvature="0"
             style="fill:#00b0e9" /></g></g></g><g
       id="g4028"
       class="polio"><g
         id="g337"><g
           id="g339"><g
             id="g341"><path
               id="path343"
               d="m 98.611,256.125 -1.685,-4.982 c -0.227,-0.973 -1.101,-1.699 -2.143,-1.699 l -2.878,0 c -0.894,0 -1.664,0.533 -2.008,1.299 l 0,0.001 c -0.058,0.127 -0.104,0.261 -0.136,0.399 l -1.685,4.982 c -0.143,0.424 0.084,0.884 0.507,1.027 0.424,0.143 0.883,-0.084 1.026,-0.508 l 1.555,-4.597 0.266,0 -2.635,7.795 2.435,0 0,6.632 c 0,0.547 0.445,0.991 0.992,0.991 0.548,0 0.992,-0.444 0.992,-0.991 l 0,-6.632 0.261,0 0,6.632 c 0,0.547 0.444,0.991 0.992,0.991 0.548,0 0.994,-0.444 0.994,-0.991 l 0,-6.632 2.433,0 -2.634,-7.795 0.266,0 1.553,4.597 c 0.144,0.424 0.603,0.65 1.026,0.508 0.422,-0.143 0.65,-0.603 0.506,-1.027 z"
               inkscape:connector-curvature="0"
               style="fill:#00b0e9" /><circle
               id="circle345"
               r="2.217"
               cy="246.883"
               cx="93.344002"
               style="fill:#00b0e9" /></g></g><g
           id="g347"><g
             id="g349"><circle
               id="circle351"
               r="2.069"
               cy="246.798"
               cx="81.699997"
               style="fill:#00b0e9" /><path
               id="path353"
               d="m 86.15,250.782 c -0.08,-0.897 -0.826,-1.604 -1.744,-1.604 l -1.079,0 -1.079,0 -1.13,0 -1.08,0 -0.343,0 -0.702,0 c -0.918,0 -1.664,0.706 -1.744,1.604 l -0.015,0 0,5.863 c 0,0.506 0.409,0.914 0.913,0.914 0.505,0 0.915,-0.408 0.915,-0.914 l 0,-4.33 c 0.051,0.012 0.105,0.02 0.161,0.02 l 0.151,0 c -0.011,0.063 -0.019,0.125 -0.019,0.189 l 0,13.797 c 0,0.609 0.494,1.104 1.104,1.104 0.609,0 1.104,-0.494 1.104,-1.104 l 0,-6.346 0.274,0 0,6.346 c 0,0.609 0.495,1.104 1.104,1.104 0.609,0 1.104,-0.494 1.104,-1.104 l 0,-13.797 c 0,-0.064 -0.009,-0.127 -0.02,-0.189 l 0.313,0 0,4.277 c 0,0.504 0.409,0.913 0.914,0.913 0.505,0 0.913,-0.409 0.913,-0.913 l 0,-5.83 -0.015,0 z"
               inkscape:connector-curvature="0"
               style="fill:#00b0e9" /></g></g></g><g
         id="g355"><g
           id="g357"><g
             id="g359"><path
               id="path361"
               d="m 122.521,256.125 -1.685,-4.982 c -0.227,-0.973 -1.101,-1.699 -2.143,-1.699 l -2.878,0 c -0.894,0 -1.664,0.533 -2.008,1.299 l 0,0.001 c -0.058,0.127 -0.104,0.261 -0.136,0.399 l -1.685,4.982 c -0.143,0.424 0.084,0.884 0.507,1.027 0.424,0.143 0.883,-0.084 1.026,-0.508 l 1.555,-4.597 0.266,0 -2.635,7.795 2.435,0 0,6.632 c 0,0.547 0.445,0.991 0.992,0.991 0.548,0 0.992,-0.444 0.992,-0.991 l 0,-6.632 0.261,0 0,6.632 c 0,0.547 0.444,0.991 0.992,0.991 0.548,0 0.994,-0.444 0.994,-0.991 l 0,-6.632 2.433,0 -2.634,-7.795 0.266,0 1.553,4.597 c 0.144,0.424 0.603,0.65 1.026,0.508 0.422,-0.143 0.65,-0.603 0.506,-1.027 z"
               inkscape:connector-curvature="0"
               style="fill:#00b0e9" /><circle
               id="circle363"
               r="2.217"
               cy="246.883"
               cx="117.254"
               style="fill:#00b0e9" /></g></g><g
           id="g365"><g
             id="g367"><circle
               id="circle369"
               r="2.069"
               cy="246.798"
               cx="105.61"
               style="fill:#00b0e9" /><path
               id="path371"
               d="m 110.06,250.782 c -0.08,-0.897 -0.826,-1.604 -1.744,-1.604 l -1.079,0 -1.079,0 -1.13,0 -1.08,0 -0.343,0 -0.702,0 c -0.918,0 -1.664,0.706 -1.744,1.604 l -0.015,0 0,5.863 c 0,0.506 0.409,0.914 0.913,0.914 0.505,0 0.915,-0.408 0.915,-0.914 l 0,-4.33 c 0.051,0.012 0.105,0.02 0.161,0.02 l 0.151,0 c -0.011,0.063 -0.019,0.125 -0.019,0.189 l 0,13.797 c 0,0.609 0.494,1.104 1.104,1.104 0.609,0 1.104,-0.494 1.104,-1.104 l 0,-6.346 0.274,0 0,6.346 c 0,0.609 0.495,1.104 1.104,1.104 0.609,0 1.104,-0.494 1.104,-1.104 l 0,-13.797 c 0,-0.064 -0.009,-0.127 -0.02,-0.189 l 0.313,0 0,4.277 c 0,0.504 0.409,0.913 0.914,0.913 0.505,0 0.913,-0.409 0.913,-0.913 l 0,-5.83 -0.015,0 z"
               inkscape:connector-curvature="0"
               style="fill:#00b0e9" /></g></g></g><g
         id="g373"><g
           id="g375"><g
             id="g377"><path
               id="path379"
               d="m 146.031,256.125 -1.685,-4.982 c -0.227,-0.973 -1.101,-1.699 -2.143,-1.699 l -2.878,0 c -0.894,0 -1.664,0.533 -2.008,1.299 l 0,0.001 c -0.058,0.127 -0.104,0.261 -0.136,0.399 l -1.685,4.982 c -0.143,0.424 0.084,0.884 0.507,1.027 0.424,0.143 0.883,-0.084 1.026,-0.508 l 1.555,-4.597 0.266,0 -2.635,7.795 2.435,0 0,6.632 c 0,0.547 0.445,0.991 0.992,0.991 0.548,0 0.992,-0.444 0.992,-0.991 l 0,-6.632 0.261,0 0,6.632 c 0,0.547 0.444,0.991 0.992,0.991 0.548,0 0.994,-0.444 0.994,-0.991 l 0,-6.632 2.433,0 -2.634,-7.795 0.266,0 1.553,4.597 c 0.144,0.424 0.603,0.65 1.026,0.508 0.422,-0.143 0.649,-0.603 0.506,-1.027 z"
               inkscape:connector-curvature="0"
               style="fill:#00b0e9" /><circle
               id="circle381"
               r="2.217"
               cy="246.883"
               cx="140.76401"
               style="fill:#00b0e9" /></g></g><g
           id="g383"><g
             id="g385"><circle
               id="circle387"
               r="2.069"
               cy="246.798"
               cx="129.12"
               style="fill:#00b0e9" /><path
               id="path389"
               d="m 133.57,250.782 c -0.08,-0.897 -0.826,-1.604 -1.744,-1.604 l -1.079,0 -1.079,0 -1.13,0 -1.08,0 -0.343,0 -0.702,0 c -0.918,0 -1.664,0.706 -1.744,1.604 l -0.015,0 0,5.863 c 0,0.506 0.409,0.914 0.913,0.914 0.505,0 0.915,-0.408 0.915,-0.914 l 0,-4.33 c 0.051,0.012 0.105,0.02 0.161,0.02 l 0.151,0 c -0.011,0.063 -0.019,0.125 -0.019,0.189 l 0,13.797 c 0,0.609 0.494,1.104 1.104,1.104 0.609,0 1.104,-0.494 1.104,-1.104 l 0,-6.346 0.274,0 0,6.346 c 0,0.609 0.495,1.104 1.104,1.104 0.609,0 1.104,-0.494 1.104,-1.104 l 0,-13.797 c 0,-0.064 -0.009,-0.127 -0.02,-0.189 l 0.313,0 0,4.277 c 0,0.504 0.409,0.913 0.914,0.913 0.505,0 0.913,-0.409 0.913,-0.913 l 0,-5.83 -0.015,0 z"
               inkscape:connector-curvature="0"
               style="fill:#00b0e9" /></g></g></g></g><g
       id="g391"
       class="influenza_e"><g
         id="g393"><g
           id="g395"><path
             d="m 98.702,286.625 -1.685,-4.982 c -0.227,-0.973 -1.101,-1.699 -2.143,-1.699 l -2.878,0 c -0.894,0 -1.664,0.533 -2.008,1.299 l 0,0.001 c -0.058,0.127 -0.104,0.261 -0.136,0.399 l -1.685,4.982 c -0.143,0.424 0.084,0.884 0.507,1.027 0.424,0.143 0.883,-0.084 1.026,-0.508 l 1.555,-4.597 0.266,0 -2.635,7.795 2.435,0 0,6.632 c 0,0.547 0.445,0.991 0.992,0.991 0.548,0 0.992,-0.444 0.992,-0.991 l 0,-6.632 0.261,0 0,6.632 c 0,0.547 0.444,0.991 0.992,0.991 0.548,0 0.994,-0.444 0.994,-0.991 l 0,-6.632 2.433,0 -2.634,-7.795 0.266,0 1.553,4.597 c 0.144,0.424 0.603,0.65 1.026,0.508 0.422,-0.143 0.649,-0.603 0.506,-1.027 z"
             id="path397"
             inkscape:connector-curvature="0"
             style="fill:#00b0e9" /><circle
             cx="93.434998"
             cy="277.383"
             r="2.217"
             id="circle399"
             style="fill:#00b0e9" /></g></g><g
         id="g401"><g
           id="g403"><circle
             cx="81.791"
             cy="277.298"
             r="2.069"
             id="circle405"
             style="fill:#00b0e9" /><path
             d="m 86.241,281.282 c -0.08,-0.897 -0.826,-1.604 -1.744,-1.604 l -1.079,0 -1.079,0 -1.13,0 -1.08,0 -0.343,0 -0.702,0 c -0.918,0 -1.664,0.706 -1.744,1.604 l -0.015,0 0,5.863 c 0,0.506 0.409,0.914 0.913,0.914 0.505,0 0.915,-0.408 0.915,-0.914 l 0,-4.33 c 0.051,0.012 0.105,0.02 0.161,0.02 l 0.151,0 c -0.011,0.063 -0.019,0.125 -0.019,0.189 l 0,13.797 c 0,0.609 0.494,1.104 1.104,1.104 0.609,0 1.104,-0.494 1.104,-1.104 l 0,-6.346 0.274,0 0,6.346 c 0,0.609 0.495,1.104 1.104,1.104 0.609,0 1.104,-0.494 1.104,-1.104 l 0,-13.797 c 0,-0.064 -0.009,-0.127 -0.02,-0.189 l 0.313,0 0,4.277 c 0,0.504 0.409,0.913 0.914,0.913 0.505,0 0.913,-0.409 0.913,-0.913 l 0,-5.83 -0.015,0 z"
             id="path407"
             inkscape:connector-curvature="0"
             style="fill:#00b0e9" /></g></g></g><g
       id="g4090"
       class="sarampion"><g
         id="g409"><g
           id="g411"><g
             id="g413"><path
               id="path415"
               d="m 171.101,315.938 -1.685,-4.982 c -0.227,-0.973 -1.101,-1.699 -2.143,-1.699 l -2.878,0 c -0.894,0 -1.664,0.533 -2.008,1.299 l 0,0.001 c -0.058,0.127 -0.104,0.261 -0.136,0.399 l -1.685,4.982 c -0.143,0.424 0.084,0.884 0.507,1.027 0.424,0.143 0.883,-0.084 1.026,-0.508 l 1.555,-4.597 0.266,0 -2.635,7.795 2.435,0 0,6.632 c 0,0.547 0.445,0.991 0.992,0.991 0.548,0 0.992,-0.444 0.992,-0.991 l 0,-6.632 0.261,0 0,6.632 c 0,0.547 0.444,0.991 0.992,0.991 0.548,0 0.994,-0.444 0.994,-0.991 l 0,-6.632 2.433,0 -2.634,-7.795 0.266,0 1.553,4.597 c 0.144,0.424 0.603,0.65 1.026,0.508 0.422,-0.143 0.65,-0.603 0.506,-1.027 z"
               inkscape:connector-curvature="0"
               style="fill:#00b0e9" /><circle
               id="circle417"
               r="2.217"
               cy="306.69601"
               cx="165.834"
               style="fill:#00b0e9" /></g></g><g
           id="g419"><g
             id="g421"><circle
               id="circle423"
               r="2.069"
               cy="306.61099"
               cx="154.19"
               style="fill:#00b0e9" /><path
               id="path425"
               d="m 158.64,310.594 c -0.08,-0.897 -0.826,-1.604 -1.744,-1.604 l -1.079,0 -1.079,0 -1.13,0 -1.08,0 -0.343,0 -0.702,0 c -0.918,0 -1.664,0.706 -1.744,1.604 l -0.015,0 0,5.863 c 0,0.506 0.409,0.914 0.913,0.914 0.505,0 0.915,-0.408 0.915,-0.914 l 0,-4.33 c 0.051,0.012 0.105,0.02 0.161,0.02 l 0.151,0 c -0.011,0.063 -0.019,0.125 -0.019,0.189 l 0,13.797 c 0,0.609 0.494,1.104 1.104,1.104 0.609,0 1.104,-0.494 1.104,-1.104 l 0,-6.346 0.274,0 0,6.346 c 0,0.609 0.495,1.104 1.104,1.104 0.609,0 1.104,-0.494 1.104,-1.104 l 0,-13.797 c 0,-0.064 -0.009,-0.127 -0.02,-0.189 l 0.313,0 0,4.277 c 0,0.504 0.409,0.913 0.914,0.913 0.505,0 0.913,-0.409 0.913,-0.913 l 0,-5.83 -0.015,0 z"
               inkscape:connector-curvature="0"
               style="fill:#00b0e9" /></g></g></g><g
         id="g427"><g
           id="g429"><g
             id="g431"><path
               id="path433"
               d="m 195.011,315.938 -1.685,-4.982 c -0.227,-0.973 -1.101,-1.699 -2.143,-1.699 l -2.878,0 c -0.894,0 -1.664,0.533 -2.008,1.299 l 0,0.001 c -0.058,0.127 -0.104,0.261 -0.136,0.399 l -1.685,4.982 c -0.143,0.424 0.084,0.884 0.507,1.027 0.424,0.143 0.883,-0.084 1.026,-0.508 l 1.555,-4.597 0.266,0 -2.635,7.795 2.435,0 0,6.632 c 0,0.547 0.445,0.991 0.992,0.991 0.548,0 0.992,-0.444 0.992,-0.991 l 0,-6.632 0.261,0 0,6.632 c 0,0.547 0.444,0.991 0.992,0.991 0.548,0 0.994,-0.444 0.994,-0.991 l 0,-6.632 2.433,0 -2.634,-7.795 0.266,0 1.553,4.597 c 0.144,0.424 0.603,0.65 1.026,0.508 0.422,-0.143 0.649,-0.603 0.506,-1.027 z"
               inkscape:connector-curvature="0"
               style="fill:#00b0e9" /><circle
               id="circle435"
               r="2.217"
               cy="306.69601"
               cx="189.744"
               style="fill:#00b0e9" /></g></g><g
           id="g437"><g
             id="g439"><circle
               id="circle441"
               r="2.069"
               cy="306.61099"
               cx="178.10001"
               style="fill:#00b0e9" /><path
               id="path443"
               d="m 182.55,310.594 c -0.08,-0.897 -0.826,-1.604 -1.744,-1.604 l -1.079,0 -1.079,0 -1.13,0 -1.08,0 -0.343,0 -0.702,0 c -0.918,0 -1.664,0.706 -1.744,1.604 l -0.015,0 0,5.863 c 0,0.506 0.409,0.914 0.913,0.914 0.505,0 0.915,-0.408 0.915,-0.914 l 0,-4.33 c 0.051,0.012 0.105,0.02 0.161,0.02 l 0.151,0 c -0.011,0.063 -0.019,0.125 -0.019,0.189 l 0,13.797 c 0,0.609 0.494,1.104 1.104,1.104 0.609,0 1.104,-0.494 1.104,-1.104 l 0,-6.346 0.274,0 0,6.346 c 0,0.609 0.495,1.104 1.104,1.104 0.609,0 1.104,-0.494 1.104,-1.104 l 0,-13.797 c 0,-0.064 -0.009,-0.127 -0.02,-0.189 l 0.313,0 0,4.277 c 0,0.504 0.409,0.913 0.914,0.913 0.505,0 0.913,-0.409 0.913,-0.913 l 0,-5.83 -0.015,0 z"
               inkscape:connector-curvature="0"
               style="fill:#00b0e9" /></g></g></g><g
         id="g445"><g
           id="g447"><g
             id="g449"><path
               id="path451"
               d="m 218.521,315.938 -1.685,-4.982 c -0.227,-0.973 -1.101,-1.699 -2.143,-1.699 l -2.878,0 c -0.894,0 -1.664,0.533 -2.008,1.299 l 0,0.001 c -0.058,0.127 -0.104,0.261 -0.136,0.399 l -1.685,4.982 c -0.143,0.424 0.084,0.884 0.507,1.027 0.424,0.143 0.883,-0.084 1.026,-0.508 l 1.555,-4.597 0.266,0 -2.635,7.795 2.435,0 0,6.632 c 0,0.547 0.445,0.991 0.992,0.991 0.548,0 0.992,-0.444 0.992,-0.991 l 0,-6.632 0.261,0 0,6.632 c 0,0.547 0.444,0.991 0.992,0.991 0.548,0 0.994,-0.444 0.994,-0.991 l 0,-6.632 2.433,0 -2.634,-7.795 0.266,0 1.553,4.597 c 0.144,0.424 0.603,0.65 1.026,0.508 0.422,-0.143 0.649,-0.603 0.506,-1.027 z"
               inkscape:connector-curvature="0"
               style="fill:#00b0e9" /><circle
               id="circle453"
               r="2.217"
               cy="306.69601"
               cx="213.25301"
               style="fill:#00b0e9" /></g></g><g
           id="g455"><g
             id="g457"><circle
               id="circle459"
               r="2.069"
               cy="306.61099"
               cx="201.60899"
               style="fill:#00b0e9" /><path
               id="path461"
               d="m 206.06,310.594 c -0.08,-0.897 -0.826,-1.604 -1.744,-1.604 l -1.079,0 -1.079,0 -1.13,0 -1.08,0 -0.343,0 -0.702,0 c -0.918,0 -1.664,0.706 -1.744,1.604 l -0.015,0 0,5.863 c 0,0.506 0.409,0.914 0.913,0.914 0.505,0 0.915,-0.408 0.915,-0.914 l 0,-4.33 c 0.051,0.012 0.105,0.02 0.161,0.02 l 0.151,0 c -0.011,0.063 -0.019,0.125 -0.019,0.189 l 0,13.797 c 0,0.609 0.494,1.104 1.104,1.104 0.609,0 1.104,-0.494 1.104,-1.104 l 0,-6.346 0.274,0 0,6.346 c 0,0.609 0.495,1.104 1.104,1.104 0.609,0 1.104,-0.494 1.104,-1.104 l 0,-13.797 c 0,-0.064 -0.009,-0.127 -0.02,-0.189 l 0.313,0 0,4.277 c 0,0.504 0.409,0.913 0.914,0.913 0.505,0 0.913,-0.409 0.913,-0.913 l 0,-5.83 -0.015,0 z"
               inkscape:connector-curvature="0"
               style="fill:#00b0e9" /></g></g></g><g
         id="g463"><g
           id="g465"><g
             id="g467"><path
               id="path469"
               d="m 98.902,315.875 -1.685,-4.982 c -0.227,-0.973 -1.101,-1.699 -2.143,-1.699 l -2.878,0 c -0.894,0 -1.664,0.533 -2.008,1.299 l 0,0.001 c -0.058,0.127 -0.104,0.261 -0.136,0.399 l -1.685,4.982 c -0.143,0.424 0.084,0.884 0.507,1.027 0.424,0.143 0.883,-0.084 1.026,-0.508 l 1.555,-4.597 0.266,0 -2.635,7.795 2.435,0 0,6.632 c 0,0.547 0.445,0.991 0.992,0.991 0.548,0 0.992,-0.444 0.992,-0.991 l 0,-6.632 0.261,0 0,6.632 c 0,0.547 0.444,0.991 0.992,0.991 0.548,0 0.994,-0.444 0.994,-0.991 l 0,-6.632 2.433,0 -2.634,-7.795 0.266,0 1.553,4.597 c 0.144,0.424 0.603,0.65 1.026,0.508 0.422,-0.143 0.649,-0.603 0.506,-1.027 z"
               inkscape:connector-curvature="0"
               style="fill:#00b0e9" /><circle
               id="circle471"
               r="2.217"
               cy="306.633"
               cx="93.635002"
               style="fill:#00b0e9" /></g></g><g
           id="g473"><g
             id="g475"><circle
               id="circle477"
               r="2.069"
               cy="306.548"
               cx="81.990997"
               style="fill:#00b0e9" /><path
               id="path479"
               d="m 86.441,310.532 c -0.08,-0.897 -0.826,-1.604 -1.744,-1.604 l -1.079,0 -1.079,0 -1.13,0 -1.08,0 -0.343,0 -0.702,0 c -0.918,0 -1.664,0.706 -1.744,1.604 l -0.015,0 0,5.863 c 0,0.506 0.409,0.914 0.913,0.914 0.505,0 0.915,-0.408 0.915,-0.914 l 0,-4.33 c 0.051,0.012 0.105,0.02 0.161,0.02 l 0.151,0 c -0.011,0.063 -0.019,0.125 -0.019,0.189 l 0,13.797 c 0,0.609 0.494,1.104 1.104,1.104 0.609,0 1.104,-0.494 1.104,-1.104 l 0,-6.346 0.274,0 0,6.346 c 0,0.609 0.495,1.104 1.104,1.104 0.609,0 1.104,-0.494 1.104,-1.104 l 0,-13.797 c 0,-0.064 -0.009,-0.127 -0.02,-0.189 l 0.313,0 0,4.277 c 0,0.504 0.409,0.913 0.914,0.913 0.505,0 0.913,-0.409 0.913,-0.913 l 0,-5.83 -0.015,0 z"
               inkscape:connector-curvature="0"
               style="fill:#00b0e9" /></g></g></g><g
         id="g481"><g
           id="g483"><g
             id="g485"><path
               id="path487"
               d="m 122.812,315.875 -1.685,-4.982 c -0.227,-0.973 -1.101,-1.699 -2.143,-1.699 l -2.878,0 c -0.894,0 -1.664,0.533 -2.008,1.299 l 0,0.001 c -0.058,0.127 -0.104,0.261 -0.136,0.399 l -1.685,4.982 c -0.143,0.424 0.084,0.884 0.507,1.027 0.424,0.143 0.883,-0.084 1.026,-0.508 l 1.555,-4.597 0.266,0 -2.635,7.795 2.435,0 0,6.632 c 0,0.547 0.445,0.991 0.992,0.991 0.548,0 0.992,-0.444 0.992,-0.991 l 0,-6.632 0.261,0 0,6.632 c 0,0.547 0.444,0.991 0.992,0.991 0.548,0 0.994,-0.444 0.994,-0.991 l 0,-6.632 2.433,0 -2.634,-7.795 0.266,0 1.553,4.597 c 0.144,0.424 0.603,0.65 1.026,0.508 0.422,-0.143 0.649,-0.603 0.506,-1.027 z"
               inkscape:connector-curvature="0"
               style="fill:#00b0e9" /><circle
               id="circle489"
               r="2.217"
               cy="306.633"
               cx="117.544"
               style="fill:#00b0e9" /></g></g><g
           id="g491"><g
             id="g493"><circle
               id="circle495"
               r="2.069"
               cy="306.548"
               cx="105.9"
               style="fill:#00b0e9" /><path
               id="path497"
               d="m 110.351,310.532 c -0.08,-0.897 -0.826,-1.604 -1.744,-1.604 l -1.079,0 -1.079,0 -1.13,0 -1.08,0 -0.343,0 -0.702,0 c -0.918,0 -1.664,0.706 -1.744,1.604 l -0.015,0 0,5.863 c 0,0.506 0.409,0.914 0.913,0.914 0.505,0 0.915,-0.408 0.915,-0.914 l 0,-4.33 c 0.051,0.012 0.105,0.02 0.161,0.02 l 0.151,0 c -0.011,0.063 -0.019,0.125 -0.019,0.189 l 0,13.797 c 0,0.609 0.494,1.104 1.104,1.104 0.609,0 1.104,-0.494 1.104,-1.104 l 0,-6.346 0.274,0 0,6.346 c 0,0.609 0.495,1.104 1.104,1.104 0.609,0 1.104,-0.494 1.104,-1.104 l 0,-13.797 c 0,-0.064 -0.009,-0.127 -0.02,-0.189 l 0.313,0 0,4.277 c 0,0.504 0.409,0.913 0.914,0.913 0.505,0 0.913,-0.409 0.913,-0.913 l 0,-5.83 -0.015,0 z"
               inkscape:connector-curvature="0"
               style="fill:#00b0e9" /></g></g></g><g
         id="g499"><g
           id="g501"><g
             id="g503"><path
               id="path505"
               d="m 146.321,315.875 -1.685,-4.982 c -0.227,-0.973 -1.101,-1.699 -2.143,-1.699 l -2.878,0 c -0.894,0 -1.664,0.533 -2.008,1.299 l 0,0.001 c -0.058,0.127 -0.104,0.261 -0.136,0.399 l -1.685,4.982 c -0.143,0.424 0.084,0.884 0.507,1.027 0.424,0.143 0.883,-0.084 1.026,-0.508 l 1.555,-4.597 0.266,0 -2.635,7.795 2.435,0 0,6.632 c 0,0.547 0.445,0.991 0.992,0.991 0.548,0 0.992,-0.444 0.992,-0.991 l 0,-6.632 0.261,0 0,6.632 c 0,0.547 0.444,0.991 0.992,0.991 0.548,0 0.994,-0.444 0.994,-0.991 l 0,-6.632 2.433,0 -2.634,-7.795 0.266,0 1.553,4.597 c 0.144,0.424 0.603,0.65 1.026,0.508 0.422,-0.143 0.65,-0.603 0.506,-1.027 z"
               inkscape:connector-curvature="0"
               style="fill:#00b0e9" /><circle
               id="circle507"
               r="2.217"
               cy="306.633"
               cx="141.054"
               style="fill:#00b0e9" /></g></g><g
           id="g509"><g
             id="g511"><circle
               id="circle513"
               r="2.069"
               cy="306.548"
               cx="129.41"
               style="fill:#00b0e9" /><path
               id="path515"
               d="m 133.86,310.532 c -0.08,-0.897 -0.826,-1.604 -1.744,-1.604 l -1.079,0 -1.079,0 -1.13,0 -1.08,0 -0.343,0 -0.702,0 c -0.918,0 -1.664,0.706 -1.744,1.604 l -0.015,0 0,5.863 c 0,0.506 0.409,0.914 0.913,0.914 0.505,0 0.915,-0.408 0.915,-0.914 l 0,-4.33 c 0.051,0.012 0.105,0.02 0.161,0.02 l 0.151,0 c -0.011,0.063 -0.019,0.125 -0.019,0.189 l 0,13.797 c 0,0.609 0.494,1.104 1.104,1.104 0.609,0 1.104,-0.494 1.104,-1.104 l 0,-6.346 0.274,0 0,6.346 c 0,0.609 0.495,1.104 1.104,1.104 0.609,0 1.104,-0.494 1.104,-1.104 l 0,-13.797 c 0,-0.064 -0.009,-0.127 -0.02,-0.189 l 0.313,0 0,4.277 c 0,0.504 0.409,0.913 0.914,0.913 0.505,0 0.913,-0.409 0.913,-0.913 l 0,-5.83 -0.015,0 z"
               inkscape:connector-curvature="0"
               style="fill:#00b0e9" /></g></g></g><g
         id="g517"><g
           id="g519"><g
             id="g521"><path
               id="path523"
               d="m 242.117,315.875 -1.685,-4.982 c -0.227,-0.973 -1.101,-1.699 -2.143,-1.699 l -2.878,0 c -0.894,0 -1.664,0.533 -2.008,1.299 l 0,0.001 c -0.058,0.127 -0.104,0.261 -0.136,0.399 l -1.685,4.982 c -0.143,0.424 0.084,0.884 0.507,1.027 0.424,0.143 0.883,-0.084 1.026,-0.508 l 1.555,-4.597 0.266,0 -2.635,7.795 2.435,0 0,6.632 c 0,0.547 0.445,0.991 0.992,0.991 0.548,0 0.992,-0.444 0.992,-0.991 l 0,-6.632 0.261,0 0,6.632 c 0,0.547 0.444,0.991 0.992,0.991 0.548,0 0.994,-0.444 0.994,-0.991 l 0,-6.632 2.433,0 -2.634,-7.795 0.266,0 1.553,4.597 c 0.144,0.424 0.603,0.65 1.026,0.508 0.422,-0.143 0.649,-0.603 0.506,-1.027 z"
               inkscape:connector-curvature="0"
               style="fill:#00b0e9" /><circle
               id="circle525"
               r="2.217"
               cy="306.633"
               cx="236.85001"
               style="fill:#00b0e9" /></g></g><g
           id="g527"><g
             id="g529"><circle
               id="circle531"
               r="2.069"
               cy="306.548"
               cx="225.20599"
               style="fill:#00b0e9" /><path
               id="path533"
               d="m 229.656,310.532 c -0.08,-0.897 -0.826,-1.604 -1.744,-1.604 l -1.079,0 -1.079,0 -1.13,0 -1.08,0 -0.343,0 -0.702,0 c -0.918,0 -1.664,0.706 -1.744,1.604 l -0.015,0 0,5.863 c 0,0.506 0.409,0.914 0.913,0.914 0.505,0 0.915,-0.408 0.915,-0.914 l 0,-4.33 c 0.051,0.012 0.105,0.02 0.161,0.02 l 0.151,0 c -0.011,0.063 -0.019,0.125 -0.019,0.189 l 0,13.797 c 0,0.609 0.494,1.104 1.104,1.104 0.609,0 1.104,-0.494 1.104,-1.104 l 0,-6.346 0.274,0 0,6.346 c 0,0.609 0.495,1.104 1.104,1.104 0.609,0 1.104,-0.494 1.104,-1.104 l 0,-13.797 c 0,-0.064 -0.009,-0.127 -0.02,-0.189 l 0.313,0 0,4.277 c 0,0.504 0.409,0.913 0.914,0.913 0.505,0 0.913,-0.409 0.913,-0.913 l 0,-5.83 -0.015,0 z"
               inkscape:connector-curvature="0"
               style="fill:#00b0e9" /></g></g></g><g
         id="g535"><g
           id="g537"><circle
             id="circle539"
             r="2.069"
             cy="306.48499"
             cx="249.11501"
             style="fill:#00b0e9" /><path
             id="path541"
             d="m 253.565,310.469 c -0.08,-0.898 -0.826,-1.604 -1.744,-1.604 l -1.079,0 -1.079,0 -1.13,0 -1.08,0 -0.343,0 -0.702,0 c -0.918,0 -1.664,0.705 -1.744,1.604 l -0.015,0 0,5.863 c 0,0.504 0.409,0.914 0.913,0.914 0.505,0 0.915,-0.41 0.915,-0.914 l 0,-4.33 c 0.051,0.012 0.105,0.019 0.161,0.019 l 0.151,0 c -0.011,0.062 -0.019,0.124 -0.019,0.188 l 0,13.797 c 0,0.609 0.494,1.104 1.104,1.104 0.609,0 1.104,-0.494 1.104,-1.104 l 0,-6.346 0.274,0 0,6.346 c 0,0.609 0.495,1.104 1.104,1.104 0.609,0 1.104,-0.494 1.104,-1.104 l 0,-13.797 c 0,-0.064 -0.009,-0.127 -0.02,-0.188 l 0.313,0 0,4.276 c 0,0.505 0.409,0.914 0.914,0.914 0.505,0 0.913,-0.409 0.913,-0.914 l 0,-5.828 -0.015,0 z"
             inkscape:connector-curvature="0"
             style="fill:#00b0e9" /></g></g></g><g
       id="g4057"
       class="varicela"><g
         id="g543"><g
           id="g545"><g
             id="g547"><path
               id="path549"
               d="m 98.591,346.125 -1.685,-4.982 c -0.227,-0.973 -1.101,-1.699 -2.143,-1.699 l -2.878,0 c -0.894,0 -1.664,0.533 -2.008,1.299 l 0,0.001 c -0.058,0.127 -0.104,0.261 -0.136,0.399 l -1.685,4.982 c -0.143,0.424 0.084,0.884 0.507,1.027 0.424,0.143 0.883,-0.084 1.026,-0.508 l 1.555,-4.597 0.266,0 -2.635,7.795 2.435,0 0,6.632 c 0,0.547 0.445,0.991 0.992,0.991 0.548,0 0.992,-0.444 0.992,-0.991 l 0,-6.632 0.261,0 0,6.632 c 0,0.547 0.444,0.991 0.992,0.991 0.548,0 0.994,-0.444 0.994,-0.991 l 0,-6.632 2.433,0 -2.634,-7.795 0.266,0 1.553,4.597 c 0.144,0.424 0.603,0.65 1.026,0.508 0.422,-0.143 0.65,-0.603 0.506,-1.027 z"
               inkscape:connector-curvature="0"
               style="fill:#00b0e9" /><circle
               id="circle551"
               r="2.217"
               cy="336.883"
               cx="93.323997"
               style="fill:#00b0e9" /></g></g><g
           id="g553"><g
             id="g555"><circle
               id="circle557"
               r="2.069"
               cy="336.798"
               cx="81.68"
               style="fill:#00b0e9" /><path
               id="path559"
               d="m 86.13,340.782 c -0.08,-0.897 -0.826,-1.604 -1.744,-1.604 l -1.079,0 -1.079,0 -1.13,0 -1.08,0 -0.343,0 -0.702,0 c -0.918,0 -1.664,0.706 -1.744,1.604 l -0.015,0 0,5.863 c 0,0.506 0.409,0.914 0.913,0.914 0.505,0 0.915,-0.408 0.915,-0.914 l 0,-4.33 c 0.051,0.012 0.105,0.02 0.161,0.02 l 0.151,0 c -0.011,0.063 -0.019,0.125 -0.019,0.189 l 0,13.797 c 0,0.609 0.494,1.104 1.104,1.104 0.609,0 1.104,-0.494 1.104,-1.104 l 0,-6.346 0.274,0 0,6.346 c 0,0.609 0.495,1.104 1.104,1.104 0.609,0 1.104,-0.494 1.104,-1.104 l 0,-13.797 c 0,-0.064 -0.009,-0.127 -0.02,-0.189 l 0.313,0 0,4.277 c 0,0.504 0.409,0.913 0.914,0.913 0.505,0 0.913,-0.409 0.913,-0.913 l 0,-5.83 -0.015,0 z"
               inkscape:connector-curvature="0"
               style="fill:#00b0e9" /></g></g></g><g
         id="g561"><g
           id="g563"><circle
             id="circle565"
             r="2.069"
             cy="336.73499"
             cx="105.59"
             style="fill:#00b0e9" /><path
             id="path567"
             d="m 110.04,340.719 c -0.08,-0.898 -0.826,-1.604 -1.744,-1.604 l -1.079,0 -1.079,0 -1.13,0 -1.08,0 -0.343,0 -0.702,0 c -0.918,0 -1.664,0.705 -1.744,1.604 l -0.015,0 0,5.863 c 0,0.504 0.409,0.914 0.913,0.914 0.505,0 0.915,-0.41 0.915,-0.914 l 0,-4.33 c 0.051,0.012 0.105,0.019 0.161,0.019 l 0.151,0 c -0.011,0.062 -0.019,0.124 -0.019,0.188 l 0,13.797 c 0,0.609 0.494,1.104 1.104,1.104 0.609,0 1.104,-0.494 1.104,-1.104 l 0,-6.346 0.274,0 0,6.346 c 0,0.609 0.495,1.104 1.104,1.104 0.609,0 1.104,-0.494 1.104,-1.104 l 0,-13.797 c 0,-0.064 -0.009,-0.127 -0.02,-0.188 l 0.313,0 0,4.276 c 0,0.505 0.409,0.914 0.914,0.914 0.505,0 0.913,-0.409 0.913,-0.914 l 0,-5.828 -0.015,0 z"
             inkscape:connector-curvature="0"
             style="fill:#00b0e9" /></g></g><g
         id="g569"><g
           id="g571"><g
             id="g573"><path
               id="path575"
               d="m 134.457,346.125 -1.685,-4.982 c -0.227,-0.973 -1.101,-1.699 -2.143,-1.699 l -2.878,0 c -0.894,0 -1.664,0.533 -2.008,1.299 l 0,0.001 c -0.058,0.127 -0.104,0.261 -0.136,0.399 l -1.685,4.982 c -0.143,0.424 0.084,0.884 0.507,1.027 0.424,0.143 0.883,-0.084 1.026,-0.508 l 1.555,-4.597 0.266,0 -2.635,7.795 2.435,0 0,6.632 c 0,0.547 0.445,0.991 0.992,0.991 0.548,0 0.992,-0.444 0.992,-0.991 l 0,-6.632 0.261,0 0,6.632 c 0,0.547 0.444,0.991 0.992,0.991 0.548,0 0.994,-0.444 0.994,-0.991 l 0,-6.632 2.433,0 -2.634,-7.795 0.266,0 1.553,4.597 c 0.144,0.424 0.603,0.65 1.026,0.508 0.422,-0.143 0.65,-0.603 0.506,-1.027 z"
               inkscape:connector-curvature="0"
               style="fill:#00b0e9" /><circle
               id="circle577"
               r="2.217"
               cy="336.883"
               cx="129.19"
               style="fill:#00b0e9" /></g></g><g
           id="g579"><g
             id="g581"><circle
               id="circle583"
               r="2.069"
               cy="336.798"
               cx="117.546"
               style="fill:#00b0e9" /><path
               id="path585"
               d="m 121.996,340.782 c -0.08,-0.897 -0.826,-1.604 -1.744,-1.604 l -1.079,0 -1.079,0 -1.13,0 -1.08,0 -0.343,0 -0.702,0 c -0.918,0 -1.664,0.706 -1.744,1.604 l -0.015,0 0,5.863 c 0,0.506 0.409,0.914 0.913,0.914 0.505,0 0.915,-0.408 0.915,-0.914 l 0,-4.33 c 0.051,0.012 0.105,0.02 0.161,0.02 l 0.151,0 c -0.011,0.063 -0.019,0.125 -0.019,0.189 l 0,13.797 c 0,0.609 0.494,1.104 1.104,1.104 0.609,0 1.104,-0.494 1.104,-1.104 l 0,-6.346 0.274,0 0,6.346 c 0,0.609 0.495,1.104 1.104,1.104 0.609,0 1.104,-0.494 1.104,-1.104 l 0,-13.797 c 0,-0.064 -0.009,-0.127 -0.02,-0.189 l 0.313,0 0,4.277 c 0,0.504 0.409,0.913 0.914,0.913 0.505,0 0.913,-0.409 0.913,-0.913 l 0,-5.83 -0.015,0 z"
               inkscape:connector-curvature="0"
               style="fill:#00b0e9" /></g></g></g><g
         id="g587"><g
           id="g589"><g
             id="g591"><path
               id="path593"
               d="m 158.367,346.125 -1.685,-4.982 c -0.227,-0.973 -1.101,-1.699 -2.143,-1.699 l -2.878,0 c -0.894,0 -1.664,0.533 -2.008,1.299 l 0,0.001 c -0.058,0.127 -0.104,0.261 -0.136,0.399 l -1.685,4.982 c -0.143,0.424 0.084,0.884 0.507,1.027 0.424,0.143 0.883,-0.084 1.026,-0.508 l 1.555,-4.597 0.266,0 -2.635,7.795 2.435,0 0,6.632 c 0,0.547 0.445,0.991 0.992,0.991 0.548,0 0.992,-0.444 0.992,-0.991 l 0,-6.632 0.261,0 0,6.632 c 0,0.547 0.444,0.991 0.992,0.991 0.548,0 0.994,-0.444 0.994,-0.991 l 0,-6.632 2.433,0 -2.634,-7.795 0.266,0 1.553,4.597 c 0.144,0.424 0.603,0.65 1.026,0.508 0.422,-0.143 0.649,-0.603 0.506,-1.027 z"
               inkscape:connector-curvature="0"
               style="fill:#00b0e9" /><circle
               id="circle595"
               r="2.217"
               cy="336.883"
               cx="153.10001"
               style="fill:#00b0e9" /></g></g><g
           id="g597"><g
             id="g599"><circle
               id="circle601"
               r="2.069"
               cy="336.798"
               cx="141.45599"
               style="fill:#00b0e9" /><path
               id="path603"
               d="m 145.906,340.782 c -0.08,-0.897 -0.826,-1.604 -1.744,-1.604 l -1.079,0 -1.079,0 -1.13,0 -1.08,0 -0.343,0 -0.702,0 c -0.918,0 -1.664,0.706 -1.744,1.604 l -0.015,0 0,5.863 c 0,0.506 0.409,0.914 0.913,0.914 0.505,0 0.915,-0.408 0.915,-0.914 l 0,-4.33 c 0.051,0.012 0.105,0.02 0.161,0.02 l 0.151,0 c -0.011,0.063 -0.019,0.125 -0.019,0.189 l 0,13.797 c 0,0.609 0.494,1.104 1.104,1.104 0.609,0 1.104,-0.494 1.104,-1.104 l 0,-6.346 0.274,0 0,6.346 c 0,0.609 0.495,1.104 1.104,1.104 0.609,0 1.104,-0.494 1.104,-1.104 l 0,-13.797 c 0,-0.064 -0.009,-0.127 -0.02,-0.189 l 0.313,0 0,4.277 c 0,0.504 0.409,0.913 0.914,0.913 0.505,0 0.913,-0.409 0.913,-0.913 l 0,-5.83 -0.015,0 z"
               inkscape:connector-curvature="0"
               style="fill:#00b0e9" /></g></g></g></g></g><rect
     x="-183.14"
     y="-169.095"
     fill="#F59C00"
     width="33"
     height="33"
     id="rect605" />
<text class="source" transform="matrix(1 0 0 1 23.3062 400)" fill="#3C3C3B" font-family="Roboto" font-weight="300" font-style="italic" font-size="10">Fuente: OMS, CDC</text>
   </svg>
