<?xml version="1.0" encoding="utf-8"?>
<!-- Generator: Adobe Illustrator 16.0.0, SVG Export Plug-In . SVG Version: 6.00 Build 0)  -->
<!DOCTYPE svg PUBLIC "-//W3C//DTD SVG 1.1//EN" "http://www.w3.org/Graphics/SVG/1.1/DTD/svg11.dtd">
<svg version="1.1" id="Capa_1" xmlns="http://www.w3.org/2000/svg" xmlns:xlink="http://www.w3.org/1999/xlink" x="0px" y="0px"
	 width="893px" height="450px" viewBox="0 0 893 450" enable-background="new 0 0 893 450" xml:space="preserve">
<image overflow="visible" enable-background="new    " width="1140" height="728" xlink:href="10_2015.png"  transform="matrix(1 0 0 1 -1198.0029 -77.3831)">
</image>
<rect x="2.447" y="57.502" fill="#EDEDED" width="890.553" height="356.001"/>
<rect y="153.409" opacity="0.4" fill="#F59C00" enable-background="new    " width="223.13" height="39.889"/>
<rect y="209.486" fill="#F59C00" width="223.13" height="44.337"/>
<text transform="matrix(1 0 0 1 23.3062 36.9998)" font-family="Roboto" font-weight="700" font-size="30">Funds Committed to Ebola Response and Preparedness in Spain</text>
<text transform="matrix(1 0 0 1 23.3062 436.5027)" fill="#3C3C3B" font-family="Roboto" font-weight="300" font-style="italic" font-size="10">Source: Own estimates based on consultation with experts. They are best estimates, and do not represent official data from Hospital Clinic.</text>
<g>

		<polyline fill="#FFFFFF" stroke="#B3B3B3" stroke-width="5.4544" stroke-linecap="round" stroke-linejoin="round" stroke-miterlimit="10" points="
		573.176,255.759 574.156,255.978 574.342,255.457 575.555,259.175 572.615,262.232 570.563,263.617 566.971,261.672
		568.789,258.266 573.176,255.759 	"/>

		<polyline fill="#FFFFFF" stroke="#B3B3B3" stroke-width="5.4544" stroke-linecap="round" stroke-linejoin="round" stroke-miterlimit="10" points="
		618.705,227.619 617.633,231.875 617.955,233.823 622.109,233.823 624.488,237.414 622.295,244.18 616.979,249.556
		609.234,245.053 607.369,241.346 603.592,241.566 600.836,243.107 597.852,239.723 602.422,234.371 618.471,226.815
		619.031,226.815 618.705,227.619 	"/>

		<polyline fill="#FFFFFF" stroke="#B3B3B3" stroke-width="5.4544" stroke-linecap="round" stroke-linejoin="round" stroke-miterlimit="10" points="
		646.041,225.415 646.689,225.415 646.971,226.815 647.297,231.104 644.688,231.104 640.205,229.357 636.523,225.962
		638.576,224.084 643.055,223.771 644.826,224.329 646.041,225.415 	"/>

		<polyline fill="#FFFFFF" stroke="#B3B3B3" stroke-width="5.4544" stroke-linecap="round" stroke-linejoin="round" stroke-miterlimit="10" points="
		576.768,144.562 577.793,146.452 575.74,147.198 572.428,147 571.029,144.376 567.717,141.437 574.156,142.067 576.768,144.562
		"/>

		<polyline fill="#FFFFFF" stroke="#B3B3B3" stroke-width="5.4544" stroke-linecap="round" stroke-linejoin="round" stroke-miterlimit="10" points="
		171.817,376.566 169.905,376.238 165.101,380.064 159.783,382.675 153.998,384.169 155.024,390.093 159.27,394.57 164.54,392.262
		166.78,384.869 171.912,381.019 173.824,378.385 173.17,377.219 171.817,376.566 	"/>

		<polyline fill="#FFFFFF" stroke="#B3B3B3" stroke-width="5.4544" stroke-linecap="round" stroke-linejoin="round" stroke-miterlimit="10" points="
		187.397,390.093 183.479,396.857 183.619,402.641 185.672,404.275 190.009,403.969 193.182,402.453 194.487,400.353
		195.188,398.49 195.375,393.591 194.163,391.96 187.397,390.093 	"/>

		<polyline fill="#FFFFFF" stroke="#B3B3B3" stroke-width="5.4544" stroke-linecap="round" stroke-linejoin="round" stroke-miterlimit="10" points="
		238.616,372.089 238.384,371.107 235.911,371.434 233.252,375.912 231.619,380.064 227.328,386.803 227.514,389.766
		223.644,392.262 233.812,388.132 236.75,384.518 238.384,380.365 238.616,372.089 	"/>

		<polyline fill="#FFFFFF" stroke="#B3B3B3" stroke-width="5.4544" stroke-linecap="round" stroke-linejoin="round" stroke-miterlimit="10" points="
		251.398,355.689 249.579,355.387 248.133,357.859 242.535,360.846 240.577,363.339 239.783,366.303 245.427,364.644
		247.667,363.016 249.626,360.169 251.398,355.689 	"/>

		<polyline fill="#FFFFFF" stroke="#B3B3B3" stroke-width="5.4544" stroke-linecap="round" stroke-linejoin="round" stroke-miterlimit="10" points="
		332.706,317.906 331.166,309.73 330.934,304.586 334.85,299.689 341.942,294.568 345.439,290.172 344.086,284.949 339.657,280.134
		338.023,273.904 338.583,267.35 342.174,261.672 344.135,257.437 343.014,254.896 337.37,246.395 335.971,239.05 340.308,236.107
		345.674,234.593 350.571,229.357 351.038,224.854 347.867,220.178 347.959,216.879 351.132,210.242 352.485,203.559
		352.671,197.461 353.323,192.984 364.239,183.023 368.298,176.796 368.298,173.087 364.66,169.181 362.14,164.679 354.536,163.373
		346.233,163.07 339.749,165.997 328.32,165.006 321.884,165.671 318.338,163.607 317.965,158.253 311.154,159.221 304.064,161.95
		299.679,166.557 298.606,164.458 298.512,160.446 300.473,154.976 303.83,150.906 299.679,151.455 301.358,147.746
		296.973,145.892 300.473,139.991 298.186,140.352 295.015,138.475 295.76,134.767 288.344,128.994 290.956,123.175
		296.646,119.361 302.15,117.822 311.248,117.508 315.213,114.101 315.119,111.058 318.338,106.579 329.486,104.282
		334.431,105.285 341.615,108.457 350.897,109.95 370.677,109.763 375.668,107.349 381.499,108.13 390.502,110.486 396.007,110.859
		412.006,113.915 420.356,114.405 429.779,113.915 436.169,112.387 441.675,113.915 450.958,115.209 465.277,114.766
		471.948,116.865 480.672,117.064 485.057,116.002 485.988,117.822 496.439,125.506 500.73,127.571 506.002,128.655 511.6,131.477
		514.91,134.195 537.023,139.583 544.395,140.352 547.52,139.664 552.51,136.633 556.568,135.746 560.721,137.169 567.717,141.437
		571.029,144.376 572.428,147 575.74,147.198 577.793,146.452 576.768,144.562 582.133,148.294 585.957,149.378 599.717,148.527
		606.154,147.549 612.639,147.198 615.855,147.746 619.404,149.076 620.385,152.247 616.184,154.195 616.883,158.557
		618.705,162.51 614.457,167.63 595.984,178.102 589.547,183.933 560.721,193.752 554.844,200.528 554.844,203.559 550.783,207.397
		544.768,214.393 537.162,226.815 527.32,238.627 525.549,244.412 524.055,247.259 524.055,248.459 525.873,250.978
		526.666,255.759 527.879,258.848 530.258,261.344 533.012,262.896 536.838,263.617 538.656,266.466 536.23,270.779 529.932,275.55
		525.268,278.521 521.816,281.894 517.152,289.637 515.938,294.221 513.42,297.937 512.207,302.094 513.232,304.83 497.605,307.107
		487.342,315.841 483.938,324.809 481.746,328.726 479.039,331.9 475.262,332.447 469.104,331.35 461.547,334.326 455.203,333.975
		447.366,332.109 439.296,333.337 432.952,332.447 414.758,334.721 409.021,340.646 402.677,341.275 396.893,343.598
		392.507,347.969 390.968,350.91 388.588,353.31 384.578,355.387 376.181,353.964 370.256,349.721 364.892,341.637 364.333,337.359
		360.881,334.408 360.647,329.496 360.18,327.199 358.641,325.451 354.536,321.996 347.073,318.15 343.527,317.264 332.706,317.906
			"/>
</g>
<text transform="matrix(1 0 0 1 10.5532 227.6697)" font-family="Roboto" font-size="15">Cost of dealing with </text>
<text transform="matrix(1 0 0 1 10.5532 246.8708)" font-family="Roboto" font-size="15">suspected and confirmed cases</text>
<text transform="matrix(1 0 0 1 10.5532 169.3689)" font-family="Roboto" font-size="15">Response plan </text>
<text transform="matrix(1 0 0 1 10.5532 188.5691)" font-family="Roboto" font-size="15">approved by the Government</text>
<text transform="matrix(1 0 0 1 226.6924 237.5251)" fill="#3C3C3B" font-family="Roboto" font-weight="700" font-size="19">13,901,815 €</text>
<rect x="552" y="236.409" opacity="0.3" fill="#00B0E9" enable-background="new    " width="341" height="100.414"/>
<text transform="matrix(1 0 0 1 236.832 182.2234)" fill="#3C3C3B" font-family="Roboto" font-weight="700" font-size="19">3,260,513 €</text>
<text transform="matrix(1 0 0 1 564.4941 260.3533)" font-family="Roboto" font-weight="700" font-size="18">Estimated cost per patient and per day:</text>
<text transform="matrix(1 0 0 1 659.9697 281.9539)" font-family="Roboto" font-size="18">Confirmed case: 20,000 €</text>
<text transform="matrix(1 0 0 1 659.127 303.5535)" font-family="Roboto" font-size="18">Suspected case: 11,000 €</text>
<text transform="matrix(1 0 0 1 667.9316 325.1541)" font-family="Roboto" font-size="18">Quarantined case: 250 €</text>
</svg>
