<?xml version="1.0" encoding="utf-8"?>
<!-- Generator: Adobe Illustrator 16.0.0, SVG Export Plug-In . SVG Version: 6.00 Build 0)  -->
<!DOCTYPE svg PUBLIC "-//W3C//DTD SVG 1.1//EN" "http://www.w3.org/Graphics/SVG/1.1/DTD/svg11.dtd">
<svg version="1.1" id="Capa_1" xmlns="http://www.w3.org/2000/svg" xmlns:xlink="http://www.w3.org/1999/xlink" x="0px" y="0px"
	 width="893px" height="550px" viewBox="0 0 893 550" enable-background="new 0 0 893 550" xml:space="preserve">
<rect x="-5" y="149.691" opacity="0.4" fill="#008EAB" stroke="#008EAB" stroke-width="1.0323" stroke-miterlimit="10" width="898" height="100.309"/>
<rect x="-5" y="56.912" opacity="0.4" fill="#D7AE1A" width="898" height="75.088"/>
<rect x="23.277" y="-3" fill="none" width="438.723" height="43.341"/>
<text transform="matrix(1 0 0 1 33.48 80)" fill="#00B0E9" font-family="Roboto" font-weight="700" font-size="16">Prevención de brotes</text>
<text transform="matrix(1 0 0 1 33.48 100)" font-family="Roboto" font-size="13">1. Comunidad global: </text>
<text transform="matrix(1 0 0 1 162 100)" font-family="Roboto" font-weight="700" font-size="H13">garantizar la inversión doméstica</text>
<text transform="matrix(1 0 0 1 358 100)" font-family="Roboto" font-size="13"> para  construir capacidades</text>
<text transform="matrix(1 0 0 1 33.48 120)" font-family="Roboto" font-size="13">2. OMS: promover la </text>
<text transform="matrix(1 0 0 1 153.9443 120)" font-family="Roboto" font-weight="700" font-size="13">pronta comunicación de brotes y el intercambio de información</text>
<text transform="matrix(1 0 0 1 23.5654 39)" fill="#1D1D1B" font-family="Roboto" font-weight="700" font-size="30">10 reformas esenciales</text>
<text transform="matrix(1 0 0 1 658.6992 174)" fill="#00B0E9" font-family="Roboto" font-weight="700" font-size="16">Respuesta a epidemias </text>
<text transform="matrix(1 0 0 1 305.4668 194)" font-family="Roboto" font-size="13">3. OMS: </text>
<text transform="matrix(1 0 0 1 353.7715 194)" font-family="Roboto" font-weight="700" font-size="13">crear un centro  para respuesta a epidemias</text>
<text transform="matrix(1 0 0 1 610.4053 194)" font-family="Roboto" font-size="13"> con capacidad técnica y recursos propios</text>
<text transform="matrix(1 0 0 1 277.791 214)" font-family="Roboto" font-size="13">4. OMS: </text>
<text transform="matrix(1 0 0 1 326.0957 214)" font-family="Roboto" font-weight="700" font-size="13">crear un Comité de Emergencias</text>
<text transform="matrix(1 0 0 1 513 214)" font-family="Roboto" font-size="13">  con la responsabilidad de declarar emergencias públicas</text>
<text transform="matrix(1 0 0 1 403.3027 234)" font-family="Roboto" font-size="13">5. ONU: crear un Comité de Rendición de cuentas para</text>
<text transform="matrix(1 0 0 1 724 234)" font-family="Roboto" font-weight="700" font-size="13">evaluar las respuestas </text>
<rect x="-5" y="267.5" opacity="0.4" fill="#D7AE1A" width="898" height="113.167"/>
<text transform="matrix(1 0 0 1 33.48 293)" fill="#00B0E9" font-family="Roboto" font-weight="700" font-size="16">Investigación </text>
<text transform="matrix(1 0 0 1 33.48 313)" font-family="Roboto" font-size="13">6. Gobiernos, comunidad científica, ONG:  </text>
<text transform="matrix(1 0 0 1 272.7588 313)" font-family="Roboto" font-weight="700" font-size="13">desarrollar normas para operar durante y entre brotes </text>
<text transform="matrix(1 0 0 1 33.48 328.5996)" font-family="Roboto" font-size="13">para acelerar la investigación y aumentar el acceso a sus beneficios </text>
<text transform="matrix(1 0 0 1 33.48 348.5996)" font-family="Roboto" font-size="13">7. Financiadores: </text>
<text transform="matrix(1 0 0 1 135.3081 348.5996)" font-family="Roboto" font-weight="700" font-size="13">establecer fondos para investigar y desarrollar medicamentos</text>
<text transform="matrix(1 0 0 1 500.7705 348.5996)" font-family="Roboto" font-size="13">, vacunas y diagnósticos</text>
<text transform="matrix(1 0 0 1 33.48 364.2002)" font-family="Roboto" font-size="13">que no responden al mercado  </text>
<rect x="-5" y="396.5" opacity="0.4" fill="#008EAB" width="898" height="113.166"/>
<g opacity="0.9">
	<path fill="#00B0E9" d="M100.458,493.283c0.01,0.013,0.021,0.03,0.036,0.045C100.554,493.328,100.528,493.313,100.458,493.283z"/>
	<path fill="#00B0E9" d="M96.177,416.654c-1.437,0.204-2.506,1.124-3.701,1.641c-4.729,2.05-7.814,7.175-9.463,11.891
		C87.748,426.087,92.678,421.988,96.177,416.654z"/>
	<path fill="#00B0E9" d="M77.876,442.482c0.817-2.047,2.259-3.483,3.701-5.122c1.85-1.843,3.801-3.174,5.551-4.921
		c1.648-1.639,3.085-3.483,3.907-5.74c-4.729,2.668-9.66,5.74-11.722,11.072c0.207-4.717,2.264-9.224,2.264-13.938
		c-1.649,1.637-2.884,3.686-3.494,5.942c-0.615,2.256-1.235,4.51-0.827,6.766C77.669,438.591,77.876,440.436,77.876,442.482z"/>
	<path fill="#00B0E9" d="M75.819,452.944c0.414,0.612,0,1.636,0.822,2.05c0.414-1.026,0.207-2.257,0.615-3.28
		c1.028-2.259,2.329-4.258,3.907-6.36c1.851-2.457,3.287-5.119,3.499-8.2c-1.85,2.259-3.701,4.104-5.556,6.355
		c-1.638,2.055-2.052,4.717-2.672,7.177c-0.408-2.254,0-4.714-0.408-6.97c-1.029-3.688-1.029-7.379-1.442-11.074
		c-3.7,5.538-3.08,12.712,0,18.452C74.997,451.714,75.406,452.324,75.819,452.944z"/>
	<path fill="#00B0E9" d="M79.52,467.908c-0.615-5.329,1.644-10.25,2.672-15.584c0.413-1.639,0.207-3.075,0-4.712
		c-0.817,0-0.817,1.026-1.029,1.438c-0.822,1.228-1.134,2.712-1.85,3.895c-0.62,1.023-0.62,2.254-0.822,3.481
		c-0.822,2.667-0.207,5.535-0.207,8.407c-1.437-5.332-4.321-9.839-6.988-14.763c-0.822-1.639-1.028-3.282-1.648-4.918
		c-1.442,3.279-0.822,6.764,0.414,9.842C72.118,459.912,75.819,464.011,79.52,467.908z"/>
	<path fill="#00B0E9" d="M85.277,480c-0.414-2.251-0.827-4.51-1.23-6.761c-0.207-2.463,0.202-4.709,0.202-7.179
		c0-1.846-0.615-3.481-1.023-5.332c-0.211-0.403-0.413-0.816-0.827-1.023c-1.235,2.256-0.822,4.717-1.235,7.18
		c-0.408,2.868,0.62,5.53,0.827,8.404c-3.085-6.153-8.641-10.25-12.548-15.788C71.09,468.316,77.054,476.105,85.277,480z"/>
	<path fill="#00B0E9" d="M91.242,482.461c-0.615-2.254-1.029-4.712-1.851-6.971c-0.202-0.821-0.635-1.668-1.235-2.664
		c-0.615-1.023-1.028-2.256-2.057-2.866c-0.615,5.737,1.028,11.071,4.734,15.783c0,0-0.207,0.411-0.413,0.204
		c-3.292-3.073-7.195-4.916-11.107-6.973c-2.259-1.226-3.907-3.073-6.166-4.306c3.085,9.024,13.159,13.123,21.8,14.767
		C93.918,486.974,92.063,485.125,91.242,482.461z"/>
	<path fill="#00B0E9" d="M98.234,484.717c-1.442-2.049-3.085-3.892-5.349-5.122c1.437,5.107,3.892,9.602,7.572,13.688
		c0.071,0.03,0.096,0.045,0.036,0.045c-0.015-0.015-0.025-0.032-0.036-0.045c-0.176-0.073-0.635-0.217-0.781-0.368
		c-1.028-0.406-2.057-0.817-3.085-1.023c-5.964-2.257-12.342-2.257-17.687-5.536c1.644,3.08,4.729,4.923,7.608,6.766
		c5.35,3.076,11.516,1.438,17.273,2.463C101.728,492.098,100.72,488.262,98.234,484.717z"/>
	<path fill="#00B0E9" d="M119.621,498.246c1.029-0.41,2.057-1.025,3.081-1.843c-6.781-3.692-14.596-1.023-21.795,1.023
		c-2.258,0.615-4.522,1.23-6.786,1.026c-2.258-0.207-4.114-1.232-6.171-1.843c3.701,4.505,10.285,5.329,15.836,4.916
		c4.321-0.411,8.238-1.765,12.75-2.662C117.559,498.657,118.593,498.657,119.621,498.246z"/>
	<path fill="#00B0E9" d="M155.402,497.836c-6.786-0.615-12.958-3.688-19.744-3.076c-3.902,0.414-7.401,1.438-10.9,3.282
		c-3.287,1.846-6.373,3.69-9.045,6.355c0,0.204,0,0.411,0,0.617c0.822,0.406,1.845,0.406,2.465,0
		c2.884-2.052,5.465-4.187,8.838-5.538c2.062-0.819,4.119-1.023,6.377-1.023c4.936,0.204,9.463,1.848,14.399,2.662
		c3.7,0.824,6.993,0,10.486-1.021c2.264-0.617,4.936-1.641,6.373-3.896C161.78,497.634,158.689,498.042,155.402,497.836z"/>
	<path fill="#00B0E9" d="M133.395,499.684c-1.028-0.613-2.052-0.207-3.081,0.204c0.409,0.819,1.321,1.175,2.052,1.639
		c2.269,1.437,3.706,4.512,6.584,3.282c0,0,0-0.411,0-0.618C137.308,502.348,135.452,501.115,133.395,499.684z"/>
	<path fill="#00B0E9" d="M151.495,493.121c2.057-2.049,3.706-4.099,4.936-6.559c1.028-2.662,2.465-5.125,2.879-7.999
		c-2.057,1.644-4.109,3.081-5.344,5.337c-1.442,3.073-2.677,6.148-4.321,9.221c-0.414,0.62-1.235,1.233-1.644,1.846
		c1.23,0.207,2.264,0.207,3.494,0.207c8.435,0,19.128-1.846,22.623-10.663c-2.471,1.644-4.936,3.69-7.815,4.512
		C161.367,490.666,156.431,492.098,151.495,493.121z"/>
	<path fill="#00B0E9" d="M179.254,473.438c-2.672,2.463-5.349,4.311-8.223,6.562c-3.292,2.461-6.786,3.9-9.872,6.563
		c-0.202,0.206-0.408-0.207-0.408-0.207c1.845-2.044,3.081-4.306,3.701-6.968c1.028-3.282,1.028-6.766,1.648-10.048
		c-1.648,0.413-2.269,2.463-3.09,3.693c-2.465,5.53-1.851,12.506-6.58,16.602c0.207,0.207-0.202,0.633,0.207,0.414
		c5.758-3.075,12.13-3.895,17.268-7.999c0.827-0.819,1.648-1.432,2.269-2.254c1.437-1.845,2.052-3.895,3.288-5.737
		C179.461,473.853,179.668,473.239,179.254,473.438z"/>
	<path fill="#00B0E9" d="M169.388,475.901c1.029-2.256,1.851-4.918,1.644-7.585c-0.408-3.277-1.028-6.557-1.85-9.635
		c-0.207-0.201-1.028,1.023-1.028,1.644c-1.649,5.122,0.202,10.245-0.207,15.372c-0.207,1.846-1.028,3.484-1.845,5.128
		c0.615,0.206,0.676-0.318,1.023-0.618c6.166-5.331,14.188-10.66,14.188-19.479c-4.109,5.13-9.045,9.638-11.722,15.791
		C169.388,476.313,169.388,476.105,169.388,475.901z"/>
	<path fill="#00B0E9" d="M182.138,445.354c-2.057,6.563-5.964,12.506-8.021,19.068c-0.212-1.843,0.408-3.693,0.408-5.533
		c-0.408-4.513-2.052-8.818-4.729-12.3c-0.615,2.461,0,4.712,0.207,7.175c0.207,3.072,1.25,5.793,2.264,8.815
		c0.62,1.843,0.414,3.892,0.414,5.737c0,0.207,0.403,0.207,0.403,0.207c0.62-1.438,1.235-2.665,2.062-3.896
		c2.672-3.486,5.551-6.354,6.786-10.453C182.96,451.301,182.96,448.226,182.138,445.354z"/>
	<path fill="#00B0E9" d="M167.124,436.748c0,5.734,5.349,9.021,7.815,13.735c0.207,0.61,0.322,1.057,0.615,1.639
		c0.207,0.409,0.207,1.023,0.414,1.435c0.408,0.411,0.408-0.411,0.408-0.411c1.235-2.662,2.264-5.124,2.879-7.993
		c1.029-4.717,0-9.229-2.259-13.328c0,3.28-0.207,6.355-0.822,9.635c-0.413,2.874,0.409,5.743-0.207,8.611
		C174.939,444.54,171.238,440.436,167.124,436.748z"/>
	<path fill="#00B0E9" d="M170.209,433.468c-2.47-2.868-5.556-4.719-8.843-6.354c-0.207,1.023,0.615,1.435,1.23,2.254
		c1.235,2.049,2.854,3.519,4.734,5.124c1.437,1.23,2.672,2.257,4.114,3.486c1.235,1.021,1.845,2.458,3.081,3.481
		c1.028-6.554,0.414-14.553-5.551-18.452c1.648,4.923,2.878,9.841,4.109,14.971C172.06,436.541,171.445,434.905,170.209,433.468z"/>
	<path fill="#00B0E9" d="M164.245,425.674c1.855,1.232,3.086,3.075,5.143,3.895c-1.033-2.662-2.672-4.918-4.321-7.376
		c-1.442-1.848-3.287-3.078-5.344-3.897c-1.235-0.612-2.063-2.049-3.701-1.843C158.074,420.138,160.605,423.259,164.245,425.674z"/>
	<path fill="#00B0E9" d="M85.686,451.971c0,22.113,18.039,40.097,40.218,40.097c22.173,0,40.212-17.983,40.212-40.097
		c0-21.616-17.252-39.279-38.75-40.056c0.015-0.797,0.025-1.596,0.045-2.395c0-1.084,0.438-2.166,0.867-3.247
		c0.222-0.865,0.222-1.946,0-2.813c-0.217-0.431-0.429-0.867-0.65-1.298c-0.65-0.865-1.518-1.082-2.385-1.304
		c-2.39-0.212-3.912,2.385-3.69,4.336c0.121,2.294,0.232,4.588,0.323,6.887C101.582,414.098,85.686,431.22,85.686,451.971z
		 M86.85,452.208h7.165c0.02,2.975,0.463,5.851,1.255,8.584c-0.61-0.021-1.235,0.027-1.86,0.201c-0.414,0-0.615,0.411-1.029,0.612
		c-0.615,0.207-1.235-0.201-1.855,0c-1.23,0.62-0.822,2.055-0.822,3.076c0,0.206,0.62,0.206,0.822,0.62c0-0.62,0-1.233-0.615-1.438
		c0.207-0.204,0.615-0.204,0.827-0.615c0.615,0.819,1.437,0.819,2.259,1.23c1.028,0.822,1.648,1.639,1.437,2.869
		c0,1.025,2.062,1.025,3.09,1.437c1.23,0.406,0.414,2.667,1.442,2.869c0.812,0.187,1.604,0.393,2.39,0.587
		c0.59,0.706,1.2,1.384,1.84,2.034l-5.062,5.047C91.211,472.337,86.916,462.763,86.85,452.208z M104.733,431.199
		c-0.282,0.111-0.549,0.237-0.771,0.406c0.322,0.104,0.69-0.053,1.018-0.159l0.847,0.842c0,0.384-0.091,0.792-0.348,1.047
		c0.257-0.205,0.443-0.492,0.595-0.8l2.551,2.544c-4.245,4.306-6.877,10.185-6.938,16.663h-7.21c0.066-8.46,3.509-16.137,9.05-21.74
		L104.733,431.199z M103.856,429.672c1.119-1.1,2.324-2.117,3.6-3.038c-0.358,1.028-0.655,2.115-0.893,3.239
		c-0.126,0.641-0.721,0.902-1.356,1.145L103.856,429.672z M142.596,426.117c0.363,1.684,0.373,3.469,0.373,5.357
		c0,0.206,0,0.408,0,0.614c0.615,0,1.023,0.411,1.23,0.613c0.085,0.171,0.065,0.405,0.04,0.657l-1.392,1.392
		c-0.681-0.663-1.412-1.272-2.163-1.853C142.132,430.831,142.813,428.477,142.596,426.117z M154.278,438.853
		c0.02-0.04,0.065-0.061,0.101-0.096c1.85,3.953,2.904,8.349,2.939,12.985h-7.209c-0.015-2.348-0.388-4.611-1.039-6.754
		c0.101-0.005,0.202-0.048,0.272-0.191c0.207-0.816,0.827-1.843-0.414-2.254c0,0.411,0,0.615,0,1.023
		c-0.081,0-0.192,0.099-0.292,0.189c-0.03-0.094-0.071-0.194-0.106-0.29c-0.025-1.063-1.039-1.833-1.039-2.768
		c0-0.204,0.207-0.409,0.207-0.613c-0.373-0.494-0.816-0.748-1.286-0.885c-0.938-1.487-2.011-2.879-3.231-4.121l1.064-1.063
		c0.025,0.123,0.07,0.239,0.161,0.327c0.827,0.411,1.442,0.819,2.057,1.642c0.413,0.818,1.855,0.201,2.672,1.028
		c0.414,0.199,0.822-0.21,1.034-0.21c1.23,1.026,1.845,2.252,2.672,3.486c0.207,0.205,0.822-0.204,1.437-0.41
		C154.479,439.879,154.071,439.261,154.278,438.853z M139.677,459.97c0.207-0.413,0.822-0.207,1.235-0.413
		c0.409-0.406,0.409-1.432,1.029-1.432c1.028-0.205,1.644-1.026,2.465-1.435c0.62-0.414,1.85-0.207,1.85-1.438
		c-0.61,0-1.23-0.201-1.644-0.614c-0.413-0.207-0.827,0.206-1.028,0.614c-0.721-0.902-0.958-1.963-1.003-3.045h7.063
		c-0.061,6.348-2.642,12.11-6.796,16.33l-1.079-1.079c-0.056-0.434-0.126-0.887-0.035-1.341c0-0.816-0.414-1.437-0.822-2.05
		c-0.207,0.204-0.207,0.204-0.413,0.411c-0.409-0.615-0.202-1.437-0.202-2.05c0.202-0.617,0.408-1.025,0.408-1.641
		C140.09,460.993,139.47,460.789,139.677,459.97z M128.5,474.684c0.318,0.212,0.605,0.444,0.877,0.681
		c-0.857,0.126-1.724,0.207-2.617,0.242c0.015-1.623,0.151-3.244,0.136-4.825h1.401v-0.761c0.081,0.161,0.177,0.298,0.277,0.403
		c1.261,1.623,3.317,2.453,4.361,4.162c-0.373,0.113-0.756,0.196-1.129,0.29c-0.968-1.135-1.992-2.188-3.529-2.571
		C128.278,473.166,127.849,474.25,128.5,474.684z M129.836,475.766c1.21,1.142,2.143,2.44,3.438,3.249
		c0-1.298-0.191-2.614-1.083-3.681c-0.015-0.02-0.03-0.04-0.056-0.061c0.338-0.088,0.676-0.166,1.003-0.27
		c0.055,0.116,0.121,0.22,0.161,0.341c0,0,2.798,1.162,0.191,4.306c0,0-1.356,0.018-1.976-1.881c0,0-2.072-0.716-0.494,1.452
		c0,0,1.699,1.742,2.612,1.916c0,0,0.822,0.383,1.442,0.791c-2.582,0.794-5.309,1.251-8.127,1.344
		c0.005-2.407-0.167-4.777-0.182-7.202C127.809,476.032,128.833,475.93,129.836,475.766z M133.718,464.9
		c-0.227,0.134-0.444,0.275-0.681,0.401c-0.196,0-0.418,0-0.56,0c-0.277,0.136-0.56,0.464-0.842,0.66
		c-0.162,0.065-0.333,0.116-0.494,0.177c-0.897,0.169-1.77,0.227-2.375,0.67c-0.157,0.03-0.313,0.046-0.469,0.071v-0.132h-0.434
		v-0.821h-1.921c2.506-0.907,5.103-1.361,7.553-2.932c0.655-0.421,1.16-0.971,1.558-1.568l1.034,1.026
		C135.417,463.327,134.555,464.092,133.718,464.9z M106.982,453.821c0-0.206,0-0.413,0-0.62c0.207-0.405,0.62,0,0.822-0.201
		c0.196-0.301,0.297-0.545,0.333-0.792h1.891c0.091,0.046,0.182,0.106,0.262,0.182c0.01,0.277,0.035,0.545,0.05,0.816
		c-0.363,0.005-0.711,0.041-0.887,0.409c-0.212,0.614,0.202,1.229,0.408,1.437c0.227,0.225,0.52,0.383,0.842,0.509
		c0.666,2.773,2.062,5.273,3.993,7.258l-4.936,4.918c-0.03-0.126-0.081-0.252-0.106-0.388c-0.414-0.819-1.85,0.413-1.644-0.613
		c0-0.41,0.822-0.819,0.615-1.434c-0.409-0.62-0.615-1.438-1.023-2.053c-0.212-0.413-0.62-1.023-1.24-1.437
		c0.62-0.408,0.827-1.023,0.62-1.639c-0.207-0.411-0.827-0.617-0.827-0.816c0.207-1.438-0.817-1.851-0.817-3.081
		c0-0.201,0.414-0.816,0.817-0.816C105.948,454.639,106.362,454.229,106.982,453.821z M108.01,451.358
		c0-0.206,0.207-0.405,0.408-0.405c0.308,0.146,0.721,0.413,0.917,0.789h-1.23C108.086,451.623,108.056,451.495,108.01,451.358z
		 M123.07,472.521c0.59-1.326-0.025-2.955,0.141-4.269h0.943c0,2.453-0.101,4.878-0.146,7.304
		c-4.623-0.368-8.863-2.058-12.367-4.694c-0.045-0.394-0.202-0.797-0.544-1.054c-0.564-0.424-0.933-0.953-1.175-1.575l5.103-5.087
		c1.346,1.301,2.924,2.354,4.668,3.113c-0.03,0.065-0.065,0.126-0.096,0.201C118.94,468.841,120.247,471.871,123.07,472.521z
		 M103.694,456.075c-0.353,0.174-0.711-0.086-1.189-0.169c-0.202-1.21-0.343-2.44-0.353-3.698h2.99
		C105.933,453.643,104.919,455.667,103.694,456.075z M104.572,472.914l-1.043,1.036c-0.484-0.489-0.943-1.001-1.392-1.52
		C102.948,472.627,103.755,472.793,104.572,472.914z M105.151,472.987c0.535,0.063,1.079,0.104,1.624,0.104
		c1.644,0,2.879-0.62,4.527-1.023c0.151-0.081,0.272-0.328,0.328-0.636c3.524,2.577,7.764,4.226,12.367,4.586
		c-0.041,2.412,0.01,4.82,0.262,7.24c-7.931-0.411-15.09-3.764-20.404-8.982L105.151,472.987z M121.552,463.859
		c-0.696,0.517-1.245,1.185-1.659,1.977c-1.699-0.729-3.232-1.755-4.542-3.018l5.364-5.344c0.01,0.012,0.03,0.022,0.045,0.032
		c0.055-0.086,0.116-0.171,0.182-0.257l0.973-0.979c0.151-0.08,0.308-0.151,0.489-0.196c-0.03-0.07-0.076-0.118-0.116-0.172
		l1.079-1.071c0.076,2.227,0.136,4.455,0.136,6.647c1.084,0.65,3.035-0.219,3.257-1.081c0.459-2.203,0.635-4.381,0.691-6.552
		l0.645,0.641c0.081,0.453,0.257,0.861,0.62,1.149c0.635,0.633,1.553,1.192,2.047,1.855c0.348,0.464,0.484,0.98,0.126,1.603
		c-0.041,0.065-0.086,0.121-0.126,0.182v-1.784h-3.121v4.033h0.277C125.949,462.357,123.579,462.645,121.552,463.859z
		 M128.243,451.742v-1.425h-0.348l0.782-0.779c0.055,0.427,0.101,0.835,0.101,1.208c0.641,0.368,1.321,0.683,2.001,0.996h-0.807
		c-0.615-0.336-1.205-0.535-1.472-0.006v0.006H128.243z M128.328,452.208c-0.03,0.096-0.055,0.207-0.085,0.308v-0.308H128.328z
		 M128.207,452.64c-0.09,0.36-0.156,0.751-0.166,1.139l-0.57-0.567c0-0.188,0-0.383,0-0.571H128.207z M135.306,461.021
		c1.154-2.128,0.816-4.932-0.943-6.686c-0.867-0.867-2.173-1.729-3.262-1.949c-0.101-0.053-0.211-0.113-0.328-0.179h1.034
		c1.639,0.751,3.242,1.616,4.371,3.252c1.034,1.639,1.447,3.483,0.827,5.329c-0.156,0.464-0.373,0.888-0.64,1.286L135.306,461.021z
		 M133.985,444.242l1.129-1.124c0.131-0.03,0.272-0.076,0.454-0.164c0.781-0.391,1.568,0.139,2.349-0.161
		c0.096,0.128,0.192,0.26,0.292,0.391C137.217,444.142,135.478,444.454,133.985,444.242z M137.111,441.132l4.986-4.974
		c0.328,0.35,0.666,0.721,0.666,1.258c0.615-0.204,0.822,0.413,1.023,0.62c0,1.019,0.827,1.432,0.827,2.253
		c0.207,0,0.414,0,0.62-0.204c0.414,0.409-0.207,1.026,0,1.433c0.414,1.025,1.437,1.229,2.057,2.049
		c0.202,0.822,0.615,1.438,0.822,2.254c0.207,1.235-0.62,2.259-0.207,3.489c0,0,0.207,0,0.413,0c0-0.618,0.404-0.819,0.61-1.23
		c0.62-1.023-1.023-2.052-0.414-3.075c0.025-0.016,0.045-0.03,0.065-0.036c0.671,2.144,1.044,4.42,1.064,6.774h-7.079
		c0.03-0.21,0.414-0.603,0.61-0.996c0.202,0,0.408,0,0.61,0c0.207,0,0.207-0.411,0.207-0.617c0.62-1.233,2.471-1.026,2.884-2.257
		c0.202-0.615,0.822-1.023,0.414-1.845c-0.62,0.62-1.034,1.845-2.057,2.052c-1.447,0.207-0.207-1.639-0.827-1.846
		c-0.822-0.413-1.437,0.207-2.057,0.822c-0.202,0.201-0.408,0-0.408-0.207c0-0.408,0.408-0.821,0.207-1.23
		c-0.615-0.408-0.413-1.229-0.827-1.434c-0.62-0.618-1.472-0.424-2.294-0.638C138.462,442.68,137.827,441.867,137.111,441.132z
		 M142.969,435.984c0.041-0.156,0.036-0.298,0.01-0.434c1.049,1.086,1.991,2.266,2.818,3.534c-0.121-0.011-0.237-0.03-0.358-0.03
		c-0.62,0-0.958-0.913-1.447-1.639C143.584,436.803,142.763,436.393,142.969,435.984z M142.521,468.866
		c-0.56,0.544-1.145,1.061-1.744,1.548c-0.086-0.177-0.116-0.373-0.071-0.605c0.207-0.204,0.827-0.617,0.827-0.816
		c0.192-0.263,0.257-0.545,0.268-0.842L142.521,468.866z M141.321,478.42c0,0-0.202-0.612-0.409-1.023c0-0.617,0-1.026,0.409-1.437
		c0.414-0.414-0.202-1.228,0-1.639c0.414-0.414,1.235-0.615,1.028-1.23c0-0.411,0.207-0.821,0-1.23
		c-0.368-0.368-0.953-0.663-1.321-1.059c0.63-0.504,1.24-1.041,1.82-1.605l1.109,1.106c-0.096,0.177-0.171,0.353-0.171,0.532
		c0,0.819,0.207,1.845,1.034,1.845c0.519,0,0.776-0.26,0.887-0.633l2.238,2.229c-2.203,2.163-4.729,4.001-7.487,5.448
		C140.655,479.11,140.968,478.369,141.321,478.42z M145.772,471.452c-0.045-0.771-0.418-1.712-0.746-2.261
		c0,0-0.207-0.199-0.414-0.199c0,0.3-0.196,0.604-0.398,0.907l-1.034-1.033c4.235-4.304,6.867-10.177,6.927-16.658h7.209
		c-0.065,8.46-3.504,16.134-9.05,21.74L145.772,471.452z M141.855,434.486c-0.232,0.22-0.469,0.398-0.323,0.676
		c0,0.244,0.111,0.449,0.257,0.641l-5.011,5.004c-1.019-0.988-2.178-1.833-3.434-2.517c2.602-0.99,4.961-2.417,6.877-4.736
		c0.076-0.091,0.131-0.187,0.202-0.277C140.912,433.66,141.391,434.068,141.855,434.486z M136.244,440.955
		c0.025,0.131,0.03,0.257,0.005,0.378l-0.993,0.993c-0.232,0.096-0.474,0.167-0.721,0.217c0,0,0,0.277,0,0.494l-1.104,1.102
		c-0.187-0.045-0.368-0.096-0.54-0.158c0.408-0.414,1.442-0.414,0.822-1.026c-0.414-0.411-1.029,0.411-1.851,0.819
		c-0.615,0.207-0.615,1.845-1.644,1.641c-1.028-0.41-0.207-1.229-0.207-2.049c-2.41,0.796-1.805,3.355-1.427,5.606l-1.145,1.139
		c-0.081-2.763-0.242-5.522-0.242-8.333c0-0.215-0.222-0.432-0.222-0.432c-1.518,0.432-2.823,0.65-4.124,1.087
		c0.07,2.127,0.171,4.28,0.267,6.443l-0.69-0.687c0-0.461-0.313-0.842-0.232-1.341c0.207-1.23-0.615-2.254-1.23-1.435
		c-0.272,0.265-0.343,0.613-0.317,0.991l-2.113-2.103c0.555-2.024,3.091-3.171,5.183-3.604c3.141-0.65,6.227-1.19,9.04-2.186
		C134.041,439.163,135.21,439.982,136.244,440.955z M120.917,447.333c0.252,0.514,0.646,1.013,1.074,1.358
		c0.101,0,0.192,0,0.267-0.02l0.893,0.892c0.015,0.252,0.025,0.497,0.035,0.754h-1.104c-0.045-0.429-0.141-0.827-0.313-1.18
		c-0.655-1.079-2.829-1.513-3.262-3.247c-0.076-0.36-0.096-0.7-0.07-1.028L120.917,447.333z M121.986,453.902
		c0-0.398,0.03-0.827,0.055-1.263h1.246c0.02,0.517,0.035,1.035,0.055,1.56l-1.396,1.392c-0.423-0.227-0.958-0.131-1.392-0.131
		c-0.615,0.202-1.028,0.816-0.822,1.639c0,0.207,0.207,0.207,0.409,0.207c0.03,0,0.055,0,0.081,0l-5.198,5.183
		c-1.81-1.86-3.131-4.188-3.792-6.771c0.756,0.182,1.608,0.24,2.329,0.358c1.235,0.201,2.264,1.639,3.494,2.664
		c0.207,0.204,0.62,0.411,1.033,0.204c0.409-0.204,0.202-0.818-0.211-1.023c0.62-0.821-0.202-1.845,0.62-2.46
		c0.408-0.207,0.822,0.408,1.235,0c-1.891-0.736-3.836-1.792-5.258-3.252h2.259C118.477,452.944,120.236,453.514,121.986,453.902z
		 M114.045,451.742c-1.114-1.318-1.81-2.927-1.719-4.894c-0.207,0-0.408,0-0.615,0c-0.03,0.028-0.056,0.056-0.091,0.086
		c0.267-0.729,0.56-1.437,0.933-2.112c-0.156,1.79,0.247,3.549,1.396,5.183c0.565,0.564,1.134,1.271,1.845,1.737H114.045z
		 M112.865,443.077c-0.05,0.172-0.081,0.346-0.121,0.52c-0.771,1.205-1.381,2.516-1.805,3.912c-0.933,0.272-1.533,1.205-2.314,1.594
		c-0.999,0.832-1.734,1.921-2.743,2.64h-3.731c0.061-6.351,2.647-12.113,6.801-16.336l5.167,5.15
		C113.617,441.29,113.188,442.114,112.865,443.077z M101.688,452.208c0.01,1.175,0.136,2.319,0.308,3.448
		c-0.232-0.373-0.071-1.059-0.57-1.225c-0.615,1.644-2.672,1.845-3.081,3.282c-0.408,1.025-0.615,2.256-0.822,3.486
		c-0.555-0.182-1.145-0.315-1.759-0.381c-0.807-2.735-1.266-5.621-1.286-8.611H101.688z M125.903,490.908
		c-10.688,0-20.384-4.306-27.437-11.258l5.062-5.045c5.41,5.312,12.7,8.718,20.777,9.118c0.222,1.883,0.575,3.771,1.154,5.683h0.867
		c0.444-1.946,0.59-3.822,0.615-5.672c2.984-0.097,5.863-0.596,8.586-1.458c0.171,0.151,0.277,0.301,0.247,0.416
		c0,0,1.961,1.042,2.531-0.617c0,0,1.956-0.802,1.941-1.588c0,0,0.015-0.065,0.035-0.156c2.954-1.495,5.652-3.429,7.986-5.726
		l5.067,5.045C146.277,486.603,136.582,490.908,125.903,490.908z M153.663,479.322l-5.062-5.047
		c5.626-5.691,9.125-13.481,9.186-22.067h7.159C164.886,462.763,160.59,472.337,153.663,479.322z M164.946,451.742h-7.159
		c-0.036-4.729-1.114-9.217-3.015-13.242c0.297-0.124,0.62-0.228,0.741-0.464c0.207-0.62-0.409-0.824-0.62-1.233
		c-1.023-1.023-2.259-2.049-2.672-3.483c-0.151-0.305-0.534-0.386-0.887-0.491c-0.368-0.479-0.751-0.95-1.145-1.412
		c-0.136-0.317-0.272-0.635-0.438-0.968c-0.191-0.191-0.565-0.209-0.782-0.386c-0.01-0.013-0.02-0.027-0.035-0.04
		c0-0.199,0.005-0.396,0.202-0.396c-0.07-0.096-0.167-0.161-0.247-0.236l4.774-4.765C160.59,431.61,164.886,441.185,164.946,451.742
		z M153.335,424.297l-4.794,4.78c-0.363-0.245-0.767-0.414-1.175-0.577c-0.187-0.175-0.378-0.344-0.575-0.512
		c0.721-1.138-0.59-2.083-1.558-2.662c-0.62-0.411-1.648-0.824-2.47-1.438c-0.156-0.156-0.318,0.167-0.57,0.232
		c-0.171-0.545-0.383-1.079-0.661-1.611c-0.438-0.431-0.655-0.864-1.089-1.515c-0.867-1.301-2.173-1.946-3.257-2.597
		c-2.602-1.518-5.43-2.597-8.47-2.163c0,1.427,0,2.667,0,4.081c-0.01,0-0.015,0-0.03,0v-0.718h-1.331
		c-0.005-2.179-0.015-4.358,0-6.521C137.464,413.447,146.6,417.662,153.335,424.297z M127.355,421.923h1.331v-1.14
		c1.18,0.101,2.334,0.262,3.474,0.489c1.628,0.708,3.02,1.921,3.942,3.62c0.882,1.767,0.509,3.534-0.469,4.998
		c-2.591-1.142-5.42-1.822-8.384-1.988C127.325,425.916,127.35,423.917,127.355,421.923z M122.636,429.223
		c0,1.301-0.973,5.327,1.518,4.331c1.089-0.434,2.606-0.434,2.823-1.084c0.116-1.361,0.191-2.728,0.252-4.104
		c2.874,0.161,5.617,0.816,8.132,1.91c-0.675,0.888-1.568,1.642-2.521,2.193c-5.823,2.997-14.41,2.438-18.443,7.706l-5.117-5.097
		c3.544-3.464,8.172-5.806,13.325-6.521C122.611,428.779,122.626,429.001,122.636,429.223z M122.576,428.091
		c-5.264,0.724-10.003,3.116-13.623,6.66l-2.688-2.68c0.338-0.89,0.544-1.845,1.387-1.983c1.301,0,2.531-0.794,3.69-1.299
		c3.474-1.518,5.43-4.33,8.253-6.71c0.423-0.215,0.852-0.628,1.28-0.438v0.282h1.412
		C122.379,423.979,122.47,426.034,122.576,428.091z M111.776,423.592c0-0.215,0.434-0.215,0.65-0.215
		c0.438,0,0.373,0.497,0.222,0.648c-0.222,0.217-0.222,0.867-0.655,0.217C111.993,424.025,111.993,423.811,111.776,423.592z
		 M121.925,413.241c0.091,2.12,0.182,4.239,0.267,6.357h-1.316c-0.025-0.835-0.076-1.664-0.196-2.501
		c-2.824,0.867-5.864,1.515-8.253,3.035c-2.284,1.278-3.711,3.317-4.679,5.728c-1.502,1.046-2.919,2.208-4.22,3.483l-5.062-5.047
		C104.637,418.217,112.825,414.163,121.925,413.241z M103.195,429.672c-5.622,5.692-9.121,13.481-9.181,22.07H86.85
		c0.065-10.558,4.361-20.132,11.283-27.117L103.195,429.672z"/>
</g>
<text transform="matrix(1 0 0 1 685.1582 419.0186)" fill="#00B0E9" font-family="Roboto" font-weight="700" font-size="16">Gobernanza global </text>
<text transform="matrix(1 0 0 1 127.0479 439.0186)" font-family="Roboto" font-size="13">8. Consejo seguridad ONU: </text>
<text transform="matrix(1 0 0 1 284.9189 439.0186)" font-family="Roboto" font-weight="700" font-size="13">crear un Comité de Salud Global</text>
<text transform="matrix(1 0 0 1 472.6426 439.0186)" font-family="Roboto" font-size="13"> que lidere y reconozca la salud como una cuestión de seguridad</text>
<text transform="matrix(1 0 0 1 545.4434 459.0186)" font-family="Roboto" font-size="13">9. </text>
<text transform="matrix(1 0 0 1 559.3828 459.0186)" font-family="Roboto" font-weight="700" font-size="13">OMS: concentrarse sobre sus funciones esenciales</text>
<text transform="matrix(1 0 0 1 266 479.0186)" font-family="Roboto" font-size="13">10. OMS: </text>
<text transform="matrix(1 0 0 1 324 479.0186)" font-family="Roboto" font-weight="700" font-size="13">implementar reformas </text>
<text transform="matrix(1 0 0 1 460 479.0186)" font-family="Roboto" font-size="13">para julio 2017 a cambio de</text>
<text transform="matrix(1 0 0 1 623.8447 479.0186)" font-family="Roboto" font-weight="700" font-size="13">más recursos de los estados miembros</text>
<g opacity="0.8">
	<path fill="#F59C00" d="M743.632,59.66c-0.651-0.271-1.127-0.934-1.127-1.717c0-0.078,0.017-0.151,0.025-0.225h-4.549
		c0.008,0.074,0.021,0.147,0.021,0.225c0,0.783-0.468,1.447-1.123,1.717c0.332,0.738,2,4.448,2.68,5.952
		c0.222-0.076,0.455-0.121,0.697-0.121c0.237,0,0.476,0.045,0.692,0.121C741.624,64.114,743.296,60.397,743.632,59.66z
		 M740.325,56.469c4.594,0,8.331-3.731,8.331-8.329c0-4.6-3.737-8.327-8.331-8.327c-4.602,0-8.331,3.727-8.331,8.327
		C731.994,52.738,735.724,56.469,740.325,56.469z M758.233,64.171c-0.324-3.61-3.319-6.454-7.012-6.454h-4.348
		c0.385,0.733,0.504,1.619,0.315,2.504l-0.033,0.11l-3.442,7.655c-0.336,1.16-1.348,2.051-2.561,2.135c0,0-0.095,0-0.136,0
		c-0.356,0.473-0.84,1.135-0.84,1.135c-1.308,1.737-2.627,3.528-3.237,5.438c0.5-0.181,1.11-0.459,1.476-0.64l1.442-0.578
		c1.516-0.312,2.352,0.627,2.819,1.467c0.106-0.01,0.196-0.074,0.295-0.074c1.704,0,3.094,1.385,3.094,3.096
		c0,1.699-1.39,3.09-3.094,3.09c-1.705,0-3.09-1.391-3.09-3.09c0,0,0.028-0.176,0.049-0.317c-0.144-0.201-0.233-0.316-0.246-0.326
		c0,0-0.086,0.006-0.278,0.125l-0.213,0.131c-0.795,0.5-1.89,1.184-3.09,1.016c-1.033-0.144-1.881-0.615-2.385-1.319
		c-0.353-0.483-0.529-1.057-0.529-1.672c0-0.217,0.025-0.435,0.066-0.66c0.557-2.963,2.359-5.405,4.122-7.77
		c0,0,0.024-0.037,0.024-0.039c-0.282-0.336-0.487-0.736-0.619-1.166l-3.43-7.639l-0.028-0.11c-0.197-0.885-0.074-1.766,0.312-2.504
		h-4.205c-3.696,0-6.695,2.844-7.016,6.454h-0.065v23.6c0,2.026,1.647,3.671,3.676,3.671s3.681-1.645,3.681-3.671V70.343
		c0.209,0.045,0.422,0.074,0.643,0.074h0.615c-0.045,0.25-0.078,0.5-0.078,0.762v55.515c0,2.458,1.987,4.45,4.442,4.45
		c2.45,0,4.442-1.992,4.442-4.45v-25.53h1.105v25.53c0,2.458,1.992,4.45,4.447,4.45c2.45,0,4.438-1.992,4.438-4.45V71.179
		c0-0.262-0.033-0.512-0.078-0.762h1.263v17.211c0,2.028,1.644,3.678,3.676,3.678c2.028,0,3.676-1.649,3.676-3.678V64.171H758.233z
		 M740.288,67.852c-0.012-0.025-0.016-0.045-0.024-0.058c-0.008,0.012-0.024,0.024-0.041,0.058
		C740.256,67.852,740.264,67.852,740.288,67.852z"/>
</g>
<g opacity="0.8">
	<path fill="#F59C00" d="M702.632,59.66c-0.651-0.271-1.127-0.934-1.127-1.717c0-0.078,0.017-0.151,0.025-0.225h-4.549
		c0.008,0.074,0.021,0.147,0.021,0.225c0,0.783-0.468,1.447-1.123,1.717c0.332,0.738,2,4.448,2.68,5.952
		c0.222-0.076,0.455-0.121,0.697-0.121c0.237,0,0.476,0.045,0.692,0.121C700.624,64.114,702.296,60.397,702.632,59.66z
		 M699.325,56.469c4.594,0,8.331-3.731,8.331-8.329c0-4.6-3.737-8.327-8.331-8.327c-4.602,0-8.331,3.727-8.331,8.327
		C690.994,52.738,694.724,56.469,699.325,56.469z M717.233,64.171c-0.324-3.61-3.319-6.454-7.012-6.454h-4.348
		c0.385,0.733,0.504,1.619,0.315,2.504l-0.033,0.11l-3.442,7.655c-0.336,1.16-1.348,2.051-2.561,2.135c0,0-0.095,0-0.136,0
		c-0.356,0.473-0.84,1.135-0.84,1.135c-1.308,1.737-2.627,3.528-3.237,5.438c0.5-0.181,1.11-0.459,1.476-0.64l1.442-0.578
		c1.516-0.312,2.352,0.627,2.819,1.467c0.106-0.01,0.196-0.074,0.295-0.074c1.704,0,3.094,1.385,3.094,3.096
		c0,1.699-1.39,3.09-3.094,3.09c-1.705,0-3.09-1.391-3.09-3.09c0,0,0.028-0.176,0.049-0.317c-0.144-0.201-0.233-0.316-0.246-0.326
		c0,0-0.086,0.006-0.278,0.125l-0.213,0.131c-0.795,0.5-1.89,1.184-3.09,1.016c-1.033-0.144-1.881-0.615-2.385-1.319
		c-0.353-0.483-0.529-1.057-0.529-1.672c0-0.217,0.025-0.435,0.066-0.66c0.557-2.963,2.359-5.405,4.122-7.77
		c0,0,0.024-0.037,0.024-0.039c-0.282-0.336-0.487-0.736-0.619-1.166l-3.43-7.639l-0.028-0.11c-0.197-0.885-0.074-1.766,0.312-2.504
		h-4.205c-3.696,0-6.695,2.844-7.016,6.454h-0.065v23.6c0,2.026,1.647,3.671,3.676,3.671s3.681-1.645,3.681-3.671V70.343
		c0.209,0.045,0.422,0.074,0.643,0.074h0.615c-0.045,0.25-0.078,0.5-0.078,0.762v55.515c0,2.458,1.987,4.45,4.442,4.45
		c2.45,0,4.442-1.992,4.442-4.45v-25.53h1.105v25.53c0,2.458,1.992,4.45,4.447,4.45c2.45,0,4.438-1.992,4.438-4.45V71.179
		c0-0.262-0.033-0.512-0.078-0.762h1.263v17.211c0,2.028,1.644,3.678,3.676,3.678c2.028,0,3.676-1.649,3.676-3.678V64.171H717.233z
		 M699.288,67.852c-0.012-0.025-0.016-0.045-0.024-0.058c-0.008,0.012-0.024,0.024-0.041,0.058
		C699.256,67.852,699.264,67.852,699.288,67.852z"/>
</g>
<g opacity="0.8">
	<path fill="#F59C00" d="M784.869,59.66c-0.651-0.271-1.127-0.935-1.127-1.718c0-0.077,0.017-0.15,0.025-0.225h-4.549
		c0.008,0.074,0.021,0.147,0.021,0.225c0,0.783-0.468,1.447-1.123,1.718c0.332,0.737,2,4.448,2.68,5.952
		c0.222-0.076,0.455-0.121,0.697-0.121c0.237,0,0.476,0.045,0.692,0.121C782.861,64.114,784.533,60.397,784.869,59.66z
		 M781.563,56.469c4.594,0,8.331-3.73,8.331-8.328c0-4.601-3.737-8.328-8.331-8.328c-4.602,0-8.331,3.728-8.331,8.328
		C773.231,52.739,776.961,56.469,781.563,56.469z M799.471,64.171c-0.324-3.61-3.319-6.454-7.012-6.454h-4.348
		c0.385,0.733,0.504,1.619,0.315,2.504l-0.033,0.11l-3.442,7.655c-0.336,1.16-1.348,2.051-2.561,2.135c0,0-0.095,0-0.136,0
		c-0.356,0.473-0.84,1.135-0.84,1.135c-1.308,1.738-2.627,3.529-3.237,5.438c0.5-0.181,1.11-0.459,1.476-0.64l1.442-0.578
		c1.516-0.311,2.352,0.627,2.819,1.468c0.106-0.011,0.196-0.073,0.295-0.073c1.704,0,3.094,1.385,3.094,3.096
		c0,1.698-1.39,3.09-3.094,3.09c-1.705,0-3.09-1.392-3.09-3.09c0,0,0.028-0.177,0.049-0.318c-0.144-0.201-0.233-0.315-0.246-0.326
		c0,0-0.086,0.007-0.278,0.125l-0.213,0.132c-0.795,0.5-1.89,1.185-3.09,1.017c-1.033-0.145-1.881-0.615-2.385-1.32
		c-0.353-0.482-0.529-1.057-0.529-1.672c0-0.217,0.025-0.434,0.066-0.659c0.557-2.963,2.359-5.405,4.122-7.771
		c0,0,0.024-0.036,0.024-0.038c-0.282-0.337-0.487-0.735-0.619-1.166l-3.43-7.639l-0.028-0.11c-0.197-0.885-0.074-1.766,0.312-2.504
		h-4.205c-3.696,0-6.695,2.844-7.016,6.454h-0.065v23.601c0,2.025,1.647,3.671,3.676,3.671s3.681-1.646,3.681-3.671v-17.43
		c0.209,0.045,0.422,0.074,0.643,0.074h0.615c-0.045,0.25-0.078,0.5-0.078,0.762v55.516c0,2.458,1.987,4.449,4.442,4.449
		c2.45,0,4.442-1.991,4.442-4.449v-25.531h1.105v25.531c0,2.458,1.992,4.449,4.447,4.449c2.45,0,4.438-1.991,4.438-4.449V71.178
		c0-0.262-0.033-0.512-0.078-0.762h1.263v17.211c0,2.029,1.644,3.678,3.676,3.678c2.028,0,3.676-1.648,3.676-3.678V64.171H799.471z
		 M781.525,67.852c-0.012-0.025-0.016-0.046-0.024-0.059c-0.008,0.013-0.024,0.025-0.041,0.059
		C781.493,67.852,781.501,67.852,781.525,67.852z"/>
</g>
<path d="M72.018,221.824"/>
<g opacity="0.9">
	<path fill="#00B0E9" d="M134.889,157.576h-18.478l-9.239,16.115l9.239,16.115h18.478l9.238-16.115L134.889,157.576z
		 M123.322,183.049c-1.223,1.104-0.915,2.636-0.915,2.636c-0.012,0.166-0.012,0.333-0.012,0.499h-2.007
		c0-2.684,1.211-4.477,2.422-5.593c0.487,0.356,0.926,0.629,1.247,0.808l0.06,0.036c0.202,0.107,0.38,0.178,0.511,0.249
		C124.189,182.016,123.726,182.467,123.322,183.049z M128.916,186.184c0-0.166-0.012-0.333-0.025-0.499
		c0.238-1.033-0.902-2.636-0.902-2.636s0,0-0.012,0c-0.392-0.594-0.868-1.034-1.307-1.366c-0.701-0.546-1.307-0.784-1.366-0.808
		c-0.047-0.012-0.344-0.13-0.76-0.356c-0.476-0.25-1.105-0.653-1.722-1.223c-1.223-1.116-2.435-2.91-2.435-5.605
		s1.211-4.477,2.435-5.605c0.736,0.57,1.425,0.926,1.805,1.092c-0.309,0.238-0.629,0.522-0.926,0.879
		c-0.82,0.808-1.354,2.125-1.354,3.61c0,1.247,0.38,2.387,0.998,3.194c0.012,0.012,0.012,0.012,0.024,0.024
		c0.392,0.558,0.843,0.985,1.271,1.318c0.712,0.546,1.342,0.795,1.354,0.795c0.048,0.024,0.345,0.131,0.772,0.356v0.012
		c0.475,0.25,1.093,0.641,1.722,1.223c1.223,1.116,2.423,2.909,2.423,5.594L128.916,186.184L128.916,186.184z M128.488,179.296
		c-0.392-0.309-0.808-0.582-1.247-0.819c-0.226-0.119-0.416-0.214-0.558-0.273c0.426-0.333,0.891-0.772,1.283-1.342h-0.048
		c0.177-0.249,0.345-0.511,0.487-0.808h0.011c0.143-0.309,0.262-0.653,0.357-1.033h-0.012c0.107-0.427,0.155-0.891,0.155-1.354
		c0-1.259-0.381-2.399-0.998-3.207c-0.451-0.629-0.974-1.104-1.449-1.437c-0.25-0.178-0.487-0.309-0.677-0.416l-0.677-0.309
		c-0.344-0.143-1.116-0.522-1.936-1.188c-1.33-1.093-2.791-2.957-2.791-5.914h1.971c0.012,0.463,0.072,0.902,0.179,1.33
		c0,0.012,0,0.036,0.012,0.048c0,0.023,0.012,0.047,0.012,0.071c0.083,0.332,0.202,0.629,0.333,0.914
		c0.131,0.297,0.297,0.558,0.463,0.796h-0.012c1.033,1.508,2.553,2.114,2.648,2.149c0.202,0.071,4.917,1.864,4.917,7.185
		C130.911,176.387,129.711,178.168,128.488,179.296z M128.488,166.792c-0.749-0.559-1.425-0.915-1.817-1.081
		c0.333-0.261,0.701-0.582,1.021-0.986c0.761-0.831,1.26-2.102,1.295-3.527h1.923C130.911,163.894,129.711,165.675,128.488,166.792z
		"/>
	<rect x="118.128" y="191.862" fill="#00B0E9" width="15.29" height="5.294"/>
	<rect x="118.128" y="199.081" fill="#00B0E9" width="15.29" height="5.294"/>
	<rect x="118.128" y="206.542" fill="#00B0E9" width="15.29" height="5.294"/>
	<rect x="118.128" y="213.764" fill="#00B0E9" width="15.29" height="5.294"/>
	<rect x="115.5" y="221.464" fill="#00B0E9" width="20.546" height="5.294"/>
	<polygon fill="#00B0E9" points="113.11,220.5 87.308,204.375 67.002,239.272 88.266,207.987 113.11,223.148 	"/>
	<polygon fill="#00B0E9" points="113.11,225.434 97.463,227.478 74.409,246.731 99.732,229.646 113.11,228.083 	"/>
	<polygon fill="#00B0E9" points="138.594,225.434 154.241,227.478 177.296,246.731 151.972,229.646 138.594,228.083 	"/>
	<line fill="#00B0E9" x1="118.128" y1="223.148" x2="118.128" y2="220.5"/>
	<polygon fill="#00B0E9" points="138.594,220.5 164.396,204.375 184.703,239.272 163.439,207.987 138.594,223.148 	"/>
</g>
<path opacity="0.8" fill-rule="evenodd" clip-rule="evenodd" fill="#F59C00" d="M780.437,326.112
	c10.438,0,19.626,3.124,24.802,7.805c-23.229,0.956-40.248,5.117-52.299,14.4c-1.137-1.761-1.752-3.658-1.752-5.637
	C751.188,333.555,764.326,326.112,780.437,326.112L780.437,326.112z M790.964,299.207c0.431,2.277-0.657,4.563-1.865,6.671
	c-25.065-15.485-50.8-18.427-74.615-17.234C727.545,271.658,784.956,267.691,790.964,299.207L790.964,299.207z M791.274,310.46
	c0,3.897-1.327,7.595-3.712,10.928c-1.411-0.162-2.852-0.278-4.316-0.341c5.075-4.962,7.909-10.904,7.909-16.67
	C791.155,306.445,791.274,308.403,791.274,310.46L791.274,310.46z M745.443,336.598c-20.289-1.551-36.118-12.693-36.118-26.141
	c0-2.054,0.119-4.015,0.119-6.08c0,13.364,15.231,27.322,38.317,28.458C746.781,334.03,745.999,335.292,745.443,336.598
	L745.443,336.598z M785.68,310.19c-7.006,6.765-20.247,11.353-35.383,11.353c-22.393,0-40.661-10.037-40.661-22.336
	c0-1.898,0.437-3.742,1.249-5.503C741.778,292.264,766.4,298.522,785.68,310.19L785.68,310.19z M751.05,346.518
	c0,29.516,58.78,30,58.78,0.003C812.4,382.08,747.553,380.263,751.05,346.518L751.05,346.518z M808.096,337.5
	c1.166,1.782,1.591,3.175,1.591,5.181c0,9.125-13.14,16.567-29.25,16.567c-10.784,0-19.368-2.795-24.442-7.738
	C770.263,343.84,786.038,340.109,808.096,337.5L808.096,337.5z"/>
<text transform="matrix(1 0 0 1 28 528)"><tspan x="0" y="0" font-family="Roboto" font-style="italic" font-size="9">Fuente: Moon S, Sridhar D, Pate MA, et al. Will Ebola change the game? Ten essential reforms before the next pandemic. The report of the Harvard-LSHTM Independent Panel on the </tspan><tspan x="0" y="10.8" font-family="Roboto" font-style="italic" font-size="9">Global Response to Ebola. Lancet. 2015 Nov 28;386 (10009):2204-21. <a xlink:href="http://www.ncbi.nlm.nih.gov/pubmed/26615326">http://www.ncbi.nlm.nih.gov/pubmed/26615326</a></tspan></text>
</svg>
