<?xml version="1.0" encoding="utf-8"?>
<!-- Generator: Adobe Illustrator 16.0.0, SVG Export Plug-In . SVG Version: 6.00 Build 0)  -->
<!DOCTYPE svg PUBLIC "-//W3C//DTD SVG 1.1//EN" "http://www.w3.org/Graphics/SVG/1.1/DTD/svg11.dtd">
<svg version="1.1" id="Capa_1" xmlns="http://www.w3.org/2000/svg" xmlns:xlink="http://www.w3.org/1999/xlink" x="0px" y="0px"
	 width="893px" height="450px" viewBox="0 0 893 450" enable-background="new 0 0 893 450" xml:space="preserve">
<rect y="57.502" fill="#EDEDED" width="893" height="356"/>
<g display="none" opacity="0.7">
	<rect x="0.001" y="-167.999" display="inline" fill="#878787" width="893" height="893"/>
	<rect x="0.001" y="363.967" display="inline" fill="#BE1622" width="893" height="361.035"/>
</g>
<g class="sierra_leona bar">
	<rect x="43.277" y="89.045" opacity="0.4" fill="#F59C00" width="200" height="282.48"/>
	<rect x="43.278" y="292.406" fill="#F59C00" width="199.999" height="79.119"/>
</g>
<g class="liberia bar">>
	<rect x="289.432" y="158.025" opacity="0.4" fill="#F59C00" width="200" height="213.5"/>
	<rect x="289.432" y="275.346" fill="#F59C00" width="200" height="96.18"/>
</g>
<g class="guinea bar">
	 <rect x="536.588" y="295.445" opacity="0.4" fill="#F59C00" width="199.998" height="76.08"/>
	<rect x="536.588" y="320.806" fill="#F59C00" width="199.998" height="50.72"/>
</g>
<text class="title" transform="matrix(1 0 0 1 19.8755 38.7671)" font-family="Roboto" font-weight="700" font-size="30">Dónde ha golpeado y a cuántos</text>
<text transform="matrix(1 0 0 1 295.6118 787.0137)"><tspan x="0" y="0" fill="#575756" font-family="'Verdana'" font-size="20">EEUU</tspan><tspan x="0" y="24" fill="#575756" font-family="'Verdana'" font-size="20">Mali</tspan><tspan x="0" y="48" fill="#575756" font-family="'Verdana'" font-size="20">España</tspan><tspan x="0" y="72" fill="#575756" font-family="'Verdana'" font-size="20">Reino Unido</tspan><tspan x="0" y="96" fill="#575756" font-family="'Verdana'" font-size="20">Italia</tspan><tspan x="0" y="120" fill="#575756" font-family="'Verdana'" font-size="20">Suiza</tspan><tspan x="0" y="144" fill="#575756" font-family="'Verdana'" font-size="20">Noruega</tspan><tspan x="0" y="168" fill="#575756" font-family="'Verdana'" font-size="20">Países Bajos</tspan><tspan x="0" y="192" fill="#575756" font-family="'Verdana'" font-size="20">Senegal</tspan></text>
<g class="others bar">
	<rect x="801.604" y="320.525" opacity="0.4" fill="#F59C00" width="4" height="51"/>
	<rect x="801.604" y="353.525" fill="#F59C00" width="4" height="18"/>
</g>
<text class="label sierra_leona" transform="matrix(1 0 0 1 79.9321 397.5967)" fill="#575756" font-family="Roboto" font-size="22">Sierra Leona</text>
<text class="label liberia" transform="matrix(1 0 0 1 362.6177 397.5967)" fill="#575756" font-family="Roboto" font-size="22">Liberia</text>
<text class="label guinea" transform="matrix(1 0 0 1 601.4688 397.5967)" fill="#575756" font-family="Roboto" font-size="22">Guinea</text>
<text class="label others" transform="matrix(1 0 0 1 776.2461 397.5967)" fill="#575756" font-family="Roboto" font-size="22">Otros*</text>
<g>
	<rect x="-676.248" y="684.711" fill="#878787" width="286.688" height="286.688"/>
	<rect x="-676.248" y="855.491" fill="#BE1622" width="286.688" height="115.907"/>
</g>
<g>
	<rect x="-370.564" y="773.601" fill="#878787" width="197.799" height="197.798"/>
	<rect x="-370.563" y="904.742" fill="#BE1622" width="197.798" height="66.656"/>
</g>
<g>
	<rect x="-152" y="793.093" fill="#878787" width="178.305" height="178.306"/>
	<rect x="-152" y="890.939" fill="#BE1622" width="178.305" height="80.459"/>
</g>
<g>

		<rect x="47.143" y="865.238" fill="#878787" stroke="#000000" stroke-width="0.2437" stroke-miterlimit="10" width="106.162" height="106.16"/>

		<rect x="47.143" y="901.39" fill="#BE1622" stroke="#000000" stroke-width="0.2437" stroke-miterlimit="10" width="106.162" height="70.009"/>
</g>
<rect x="224.361" y="946.596" fill="#878787" width="2.051" height="6.146"/>
<rect x="224.361" y="952.741" fill="#BE1622" width="2.051" height="4.103"/>
<rect x="224.362" y="935.855" fill="#878787" width="2.051" height="4.606"/>
<rect x="224.362" y="956.841" fill="#BE1622" width="2.051" height="1.027"/>
<rect x="224.362" y="940.462" fill="#878787" width="2.051" height="1.023"/>
<rect x="224.36" y="958.897" fill="#BE1622" width="2.051" height="3.072"/>
<rect x="224.36" y="941.485" fill="#878787" width="2.051" height="0.511"/>
<rect x="224.362" y="957.868" fill="#BE1622" width="2.051" height="1.029"/>
<rect x="224.36" y="943.529" fill="#878787" width="2.052" height="1.532"/>
<rect x="224.36" y="945.573" fill="#878787" width="2.052" height="1.022"/>
<rect x="224.361" y="941.996" fill="#878787" width="2.051" height="0.511"/>
<rect x="224.36" y="942.507" fill="#878787" width="2.053" height="0.511"/>
<rect x="224.361" y="943.018" fill="#878787" width="2.052" height="0.512"/>
<rect x="224.361" y="945.062" fill="#878787" width="2.051" height="0.512"/>
<g>

		<rect x="238.584" y="946.596" fill="#878787" stroke="#000000" stroke-width="0.0105" stroke-miterlimit="10" width="2.051" height="10.248"/>

		<rect x="238.584" y="952.741" fill="#BE1622" stroke="#000000" stroke-width="0.0066" stroke-miterlimit="10" width="2.051" height="4.103"/>
</g>
<g>
	<rect x="238.581" y="957.354" fill="#878787" width="2.051" height="5.635"/>
	<rect x="238.581" y="961.961" fill="#BE1622" width="2.051" height="1.028"/>
</g>
<g>

		<rect x="238.581" y="965.039" fill="#878787" stroke="#000000" stroke-width="0.0066" stroke-miterlimit="10" width="2.051" height="4.095"/>

		<rect x="238.581" y="966.063" fill="#BE1622" stroke="#000000" stroke-width="0.0058" stroke-miterlimit="10" width="2.051" height="3.071"/>
</g>
<g>

		<rect x="238.581" y="962.989" fill="#878787" stroke="#000000" stroke-width="0.0041" stroke-miterlimit="10" width="2.051" height="1.54"/>

		<rect x="238.581" y="963.5" fill="#BE1622" stroke="#000000" stroke-width="0.0033" stroke-miterlimit="10" width="2.051" height="1.029"/>
</g>
<rect x="238.582" y="943.529" fill="#878787" width="2.052" height="1.532"/>
<rect x="238.581" y="945.573" fill="#878787" stroke="#000000" stroke-width="0.0033" stroke-miterlimit="10" width="2.052" height="1.022"/>
<rect x="238.585" y="964.528" fill="#878787" stroke="#000000" stroke-width="0.0024" stroke-miterlimit="10" width="2.051" height="0.511"/>
<rect x="238.584" y="956.844" fill="#878787" stroke="#000000" stroke-width="0.0024" stroke-miterlimit="10" width="2.053" height="0.511"/>
<rect x="238.584" y="943.018" fill="#878787" stroke="#000000" stroke-width="0.0024" stroke-miterlimit="10" width="2.052" height="0.512"/>
<rect x="238.582" y="945.062" fill="#878787" stroke="#000000" stroke-width="0.0024" stroke-miterlimit="10" width="2.051" height="0.512"/>
<g>
	<rect x="169.888" y="945.284" fill="#878787" width="1.524" height="16.887"/>
	<rect x="169.888" y="962.171" fill="#BE1622" width="1.524" height="9.228"/>
</g>
<text transform="matrix(1 0 0 1 -339.0171 996.4727)" fill="#575756" font-family="'Verdana'" font-size="20">Sierra Leona</text>
<text transform="matrix(1 0 0 1 -108.0293 996.4727)" fill="#575756" font-family="'Verdana'" font-size="20">Liberia</text>
<text transform="matrix(1 0 0 1 68.9619 996.4727)" fill="#575756" font-family="'Verdana'" font-size="20">Guinea</text>
<text transform="matrix(1 0 0 1 -358.5664 -118.4077)">
	<tspan x="0" y="0" font-family="'MyriadPro-Bold'" font-size="21">1.384.329</tspan>
	<tspan x="4.315" y="25" font-family="'MyriadPro-Bold'" font-size="21">  559.679</tspan>
</text>
<text transform="matrix(1 0 0 1 48.583 111.6904)">
<tspan x="0" y="0" fill="#F6F6F6" font-family="Roboto" font-weight="700" font-size="21" letter-spacing="-1" class="infectados label">Infectados:</tspan>
<tspan x="114.786" y="0" font-family="Roboto" font-weight="700" font-size="21" letter-spacing="-1"> </tspan>
<tspan x="118.441" y="0" fill="#3C3C3B" font-family="Roboto" font-weight="700" font-size="21" letter-spacing="-1" class="sierra_leona infectados value">14.124</tspan>
</text>
<rect x="-933.45" y="163.971" fill="#EDEDED" width="850.553" height="349"/>
<rect x="-652.298" y="229.123" opacity="0.4" fill="#F59C00" width="20.604" height="102.966"/>
<rect x="-652.298" y="293.854" fill="#F59C00" width="20.604" height="41.22"/>
<g>
	<rect x="-652.298" y="425.604" opacity="0.4" fill="#F59C00" width="20.605" height="56.614"/>
	<rect x="-652.298" y="471.887" fill="#F59C00" width="20.605" height="10.332"/>
</g>
<g>
	<rect x="-652.298" y="351.771" opacity="0.4" fill="#F59C00" width="20.605" height="41.142"/>
	<rect x="-652.298" y="362.054" fill="#F59C00" width="20.605" height="30.858"/>
</g>
<rect x="-371.564" y="229.123" opacity="0.4" fill="#F59C00" width="20.605" height="15.474"/>
<rect x="-371.564" y="237.241" fill="#F59C00" width="20.605" height="10.341"/>
<rect x="-371.569" y="306.132" opacity="0.4" fill="#F59C00" width="20.613" height="15.395"/>
<rect x="-371.57" y="356.719" opacity="0.4" fill="#F59C00" width="20.615" height="10.272"/>
<rect x="-371.565" y="457.909" opacity="0.4" fill="#F59C00" width="20.605" height="5.131"/>
<rect x="-371.575" y="483.847" opacity="0.4" fill="#F59C00" width="20.625" height="5.132"/>
<rect x="-371.569" y="433.456" opacity="0.4" fill="#F59C00" width="20.614" height="5.141"/>
<rect x="-371.564" y="410.899" opacity="0.4" fill="#F59C00" width="20.604" height="5.142"/>
<rect x="-915.242" y="229.123" opacity="0.4" fill="#F59C00" width="20.604" height="169.668"/>
<rect x="-915.242" y="398.791" fill="#F59C00" width="20.604" height="92.713"/>
<text transform="matrix(1 0 0 1 -616.8008 244.5967)"><tspan x="0" y="0" fill="#575756" font-family="'Verdana'" font-size="18">Nigeria</tspan><tspan x="0" y="21.601" opacity="0.4" fill="#F59C00" font-family="'Verdana-Bold'" font-size="18">20</tspan><tspan x="25.594" y="21.601" fill="#575756" font-family="'Verdana'" font-size="18"> Infectados</tspan><tspan x="0" y="43.2" fill="#575756" font-family="'Verdana'" font-size="18">  </tspan><tspan x="12.656" y="43.2" fill="#F59C00" font-family="'Verdana'" font-size="18">8</tspan><tspan x="24.1" y="43.2" fill="#575756" font-family="'Verdana'" font-size="18" class="fallecidos"> Fallecidos</tspan></text>
<text transform="matrix(1 0 0 1 -609.8008 367.3135)"><tspan x="0" y="0" fill="#575756" font-family="'Verdana'" font-size="18">Mali</tspan><tspan x="0" y="21.601" opacity="0.4" fill="#F59C00" font-family="'Verdana-Bold'" font-size="18">  8</tspan><tspan x="25.102" y="21.601" fill="#575756" font-family="'Verdana'" font-size="18"> Infectados</tspan><tspan x="0" y="43.2" fill="#575756" font-family="'Verdana'" font-size="18">  </tspan><tspan x="12.656" y="43.2" fill="#F59C00" font-family="'Verdana'" font-size="18">6</tspan><tspan x="24.1" y="43.2" fill="#575756" font-family="'Verdana'" font-size="18" class="fallecidos"> Fallecidos</tspan></text>
<text transform="matrix(1 0 0 1 -609.8008 441.1475)"><tspan x="0" y="0" fill="#575756" font-family="'Verdana'" font-size="18">EEUU</tspan><tspan x="0" y="21.601" opacity="0.4" fill="#F59C00" font-family="'Verdana-Bold'" font-size="18">11</tspan><tspan x="25.594" y="21.601" fill="#575756" font-family="'Verdana'" font-size="18"> Infectados</tspan><tspan x="0" y="43.2" fill="#575756" font-family="'Verdana'" font-size="18">  </tspan><tspan x="12.656" y="43.2" fill="#F59C00" font-family="'Verdana'" font-size="18">2</tspan><tspan x="24.1" y="43.2" fill="#575756" font-family="'Verdana'" font-size="18" class="fallecidos"> Fallecidos</tspan></text>
<text transform="matrix(1 0 0 1 -334.8008 244.5654)"><tspan x="0" y="0" fill="#575756" font-family="'Verdana'" font-size="18">España</tspan><tspan x="0" y="21.601" opacity="0.4" fill="#F59C00" font-family="'Verdana-Bold'" font-size="18">  3</tspan><tspan x="25.102" y="21.601" fill="#575756" font-family="'Verdana'" font-size="18"> Infectados</tspan><tspan x="0" y="43.2" fill="#575756" font-family="'Verdana'" font-size="18">  </tspan><tspan x="12.656" y="43.2" fill="#F59C00" font-family="'Verdana'" font-size="18">2</tspan><tspan x="24.1" y="43.2" fill="#575756" font-family="'Verdana'" font-size="18" class="fallecidos"> Fallecidos</tspan></text>
<text transform="matrix(1 0 0 1 -334.8008 321.6748)"><tspan x="0" y="0" fill="#575756" font-family="'Verdana'" font-size="18">Reino Unido</tspan><tspan x="0" y="21.601" opacity="0.4" fill="#F59C00" font-family="'Verdana-Bold'" font-size="18">  3</tspan><tspan x="25.102" y="21.601" fill="#575756" font-family="'Verdana'" font-size="18"> Infectados</tspan><tspan x="0" y="43.2" fill="#575756" font-family="'Verdana'" font-size="18">  </tspan></text>
<text transform="matrix(1 0 0 1 -334.8008 370.5967)"><tspan x="0" y="0" fill="#575756" font-family="'Verdana'" font-size="18">Italia</tspan><tspan x="0" y="21.601" opacity="0.4" fill="#F59C00" font-family="'Verdana-Bold'" font-size="18">  2</tspan><tspan x="25.102" y="21.601" fill="#575756" font-family="'Verdana'" font-size="18"> Infectados  </tspan></text>
<text transform="matrix(1 0 0 1 -334.8008 420.041)"><tspan x="0" y="0" fill="#575756" font-family="'Verdana'" font-size="18">Suiza  </tspan><tspan x="61.559" y="0" opacity="0.4" fill="#F59C00" font-family="'Verdana-Bold'" font-size="18">1</tspan><tspan x="74.355" y="0" fill="#575756" font-family="'Verdana'" font-size="18"> Infectado</tspan><tspan x="0" y="24" fill="#575756" font-family="'Verdana'" font-size="18">Noruega  </tspan><tspan x="88.866" y="24" opacity="0.4" fill="#F59C00" font-family="'Verdana-Bold'" font-size="18">1</tspan><tspan x="101.663" y="24" fill="#575756" font-family="'Verdana'" font-size="18"> Infectado</tspan><tspan x="0" y="48" fill="#575756" font-family="'Verdana'" font-size="18">Países Bajos  </tspan><tspan x="124.717" y="48" opacity="0.4" fill="#F59C00" font-family="'Verdana-Bold'" font-size="18">1</tspan><tspan x="137.514" y="48" fill="#575756" font-family="'Verdana'" font-size="18"> Infectado</tspan><tspan x="0" y="72" fill="#575756" font-family="'Verdana'" font-size="18">Senegal  </tspan><tspan x="84.762" y="72" opacity="0.4" fill="#F59C00" font-family="'Verdana-Bold'" font-size="18">1</tspan><tspan x="97.559" y="72" fill="#575756" font-family="'Verdana'" font-size="18"> Infectado</tspan></text>
<text transform="matrix(1 0 0 1 -915.2422 200.5654)" font-family="'Verdana-Bold'" font-size="18">La distribución de los otros</text>
<text transform="matrix(1 0 0 1 -882.8008 244.5967)"><tspan x="0" y="0" fill="#575756" font-family="'Verdana'" font-size="18">Otros</tspan><tspan x="0" y="21.601" opacity="0.4" fill="#F59C00" font-family="'Verdana-Bold'" font-size="18">51</tspan><tspan x="25.594" y="21.601" fill="#575756" font-family="'Verdana'" font-size="18"> Infectados*</tspan><tspan x="0" y="43.2" fill="#F59C00" font-family="'Verdana'" font-size="18">18</tspan><tspan x="22.887" y="43.2" fill="#575756" font-family="'Verdana'" font-size="18" class="fallecidos"> Fallecidos</tspan><tspan x="0" y="103.2" fill="#575756" font-family="'Verdana-Italic'" font-size="14">* 3 Personas </tspan><tspan x="0" y="120" fill="#575756" font-family="'Verdana-Italic'" font-size="14">contaminadas </tspan><tspan x="0" y="136.8" fill="#575756" font-family="'Verdana-Italic'" font-size="14">fuera de África: </tspan><tspan x="0" y="153.6" fill="#575756" font-family="'Verdana-Italic'" font-size="14">    2 EEUU </tspan><tspan x="0" y="170.4" fill="#575756" font-family="'Verdana-Italic'" font-size="14">    1 España</tspan></text>
<text transform="matrix(1 0 0 1 293.6177 177.6904)"><tspan x="0" y="0" fill="#F6F6F6" font-family="Roboto" font-weight="700" font-size="18" letter-spacing="-1" class="infectados label" >Infectados: </tspan><tspan x="101.521" y="0" fill="#3C3C3B" font-family="Roboto" font-weight="700" font-size="18" letter-spacing="-1" class="liberia infectados value">10.675</tspan></text>
<text transform="matrix(1 0 0 1 540.4941 309.5254)"><tspan x="0" y="0" fill="#F6F6F6" font-family="Roboto" font-weight="700" font-size="14" letter-spacing="-1" class="infectados label">Infectados:</tspan><tspan x="76.525" y="0" font-family="Roboto" font-weight="700" font-size="14" letter-spacing="-1"> </tspan><tspan x="78.961" y="0" fill="#3C3C3B" font-family="Roboto" font-weight="700" font-size="14" letter-spacing="-1" class="guinea infectados value">3.804</tspan></text>
<text transform="matrix(1 0 0 1 806.8594 332.9658)" fill="#3C3C3B" font-family="Roboto" font-weight="700" font-size="14" letter-spacing="-1">51</text>
<text transform="matrix(1 0 0 1 48.583 314.6904)"><tspan x="0" y="0" fill="#EDEDED" font-family="Roboto" font-weight="700" font-size="21" letter-spacing="-1" class="fallecidos label">FALLECIDOS:</tspan><tspan x="109.71" y="0" font-family="Roboto" font-weight="700" font-size="21" letter-spacing="-1"> </tspan><tspan x="128.365" y="0" fill="#3C3C3B" font-family="Roboto" font-weight="700" font-size="21" letter-spacing="-1">3.956</tspan></text>
<text transform="matrix(1 0 0 1 293.6177 295.4453)"><tspan x="0" y="0" fill="#EDEDED" font-family="Roboto" font-weight="700" font-size="18" letter-spacing="-1" class="fallecidos label">FALLECIDOS:</tspan><tspan x="94.038" y="0" font-family="Roboto" font-weight="700" font-size="18" letter-spacing="-1"> </tspan><tspan x="113.17" y="0" fill="#3C3C3B" font-family="Roboto" font-weight="700" font-size="18" letter-spacing="-1" class="liberia fallecidos value">4.809</tspan></text>
<text transform="matrix(1 0 0 1 540.4941 336.5254)"><tspan x="0" y="0" fill="#EDEDED" font-family="Roboto" font-weight="700" font-size="14" letter-spacing="-1" class="fallecidos label">FALLECIDOS:</tspan><tspan x="88.141" y="0" font-family="Roboto" font-weight="700" font-size="14" letter-spacing="-1" class="guinea fallecidos value">2.536</tspan></text>
<text transform="matrix(1 0 0 1 806.8594 364.5254)" fill="#3C3C3B" font-family="Roboto" font-weight="700" font-size="14" letter-spacing="-1">18</text>
<text class="info" transform="matrix(1 0 0 1 19.8755 436.0264)" fill="#3C3C3B" font-family="Roboto" font-size="14">*sólo hubo tres infectados fuera de áfrica</text>
</svg>
